<svg width="80" height="80" viewBox="0 0 80 80" fill="none" xmlns="http://www.w3.org/2000/svg">
<g id="Frame" clip-path="url(#clip0_596_952)">
<g id="Group">
<path id="Vector" d="M33.3337 53.3333H46.6671C47.7279 53.3333 48.7454 52.9119 49.4955 52.1618C50.2456 51.4116 50.6671 50.3942 50.6671 49.3333V37.3333C50.6671 36.2725 50.2456 35.2551 49.4955 34.5049C48.7454 33.7548 47.7279 33.3333 46.6671 33.3333V30.6667C46.6671 28.8986 45.9647 27.2029 44.7145 25.9526C43.4642 24.7024 41.7685 24 40.0004 24C38.2323 24 36.5366 24.7024 35.2864 25.9526C34.0361 27.2029 33.3337 28.8986 33.3337 30.6667V33.3333C32.2729 33.3333 31.2555 33.7548 30.5053 34.5049C29.7552 35.2551 29.3337 36.2725 29.3337 37.3333V49.3333C29.3337 50.3942 29.7552 51.4116 30.5053 52.1618C31.2555 52.9119 32.2729 53.3333 33.3337 53.3333ZM36.0004 30.6667C36.0004 29.6058 36.4218 28.5884 37.172 27.8382C37.9221 27.0881 38.9395 26.6667 40.0004 26.6667C41.0613 26.6667 42.0787 27.0881 42.8288 27.8382C43.579 28.5884 44.0004 29.6058 44.0004 30.6667V33.3333H36.0004V30.6667ZM32.0004 37.3333C32.0004 36.9797 32.1409 36.6406 32.3909 36.3905C32.641 36.1405 32.9801 36 33.3337 36H46.6671C47.0207 36 47.3598 36.1405 47.6099 36.3905C47.8599 36.6406 48.0004 36.9797 48.0004 37.3333V49.3333C48.0004 49.687 47.8599 50.0261 47.6099 50.2761C47.3598 50.5262 47.0207 50.6667 46.6671 50.6667H33.3337C32.9801 50.6667 32.641 50.5262 32.3909 50.2761C32.1409 50.0261 32.0004 49.687 32.0004 49.3333V37.3333Z" fill="#FCD535"/>
<path id="Vector_2" d="M38.6667 46.4214V46.6667C38.6667 47.0203 38.8071 47.3595 39.0572 47.6095C39.3072 47.8596 39.6464 48 40 48C40.3536 48 40.6928 47.8596 40.9428 47.6095C41.1929 47.3595 41.3333 47.0203 41.3333 46.6667V46.4214C42.223 46.1069 42.9727 45.488 43.4502 44.6741C43.9276 43.8602 44.102 42.9037 43.9424 41.9737C43.7828 41.0437 43.2996 40.2001 42.5782 39.5919C41.8568 38.9837 40.9436 38.6501 40 38.6501C39.0564 38.6501 38.1432 38.9837 37.4218 39.5919C36.7004 40.2001 36.2172 41.0437 36.0576 41.9737C35.8981 42.9037 36.0724 43.8602 36.5498 44.6741C37.0273 45.488 37.7771 46.1069 38.6667 46.4214ZM40 41.3334C40.3536 41.3334 40.6928 41.4739 40.9428 41.7239C41.1929 41.974 41.3333 42.3131 41.3333 42.6667C41.3333 43.0203 41.1929 43.3595 40.9428 43.6095C40.6928 43.8596 40.3536 44 40 44C39.6464 44 39.3072 43.8596 39.0572 43.6095C38.8071 43.3595 38.6667 43.0203 38.6667 42.6667C38.6667 42.3131 38.8071 41.974 39.0572 41.7239C39.3072 41.4739 39.6464 41.3334 40 41.3334Z" fill="#FCD535"/>
<path id="Vector_3" d="M17.3338 40C17.3338 52.5187 27.4818 62.6667 40.0005 62.6667C52.5191 62.6667 62.6671 52.5187 62.6671 40C62.6671 27.4814 52.5191 17.3334 40.0005 17.3334C27.4871 17.3467 17.3471 27.4867 17.3338 40ZM40.0005 20C51.0458 20 60.0005 28.9547 60.0005 40C60.0005 51.0454 51.0458 60 40.0005 60C28.9551 60 20.0004 51.0454 20.0004 40C20.0138 28.96 28.9604 20.0134 40.0005 20ZM66.6671 69.3334C65.4882 69.3378 64.3439 69.7327 63.4132 70.4565C62.4825 71.1802 61.8178 72.1919 61.5231 73.3334H52.0005V65.2734C54.9815 63.8701 57.6902 61.9492 60.0005 59.6C60.1259 59.4757 60.2255 59.3275 60.2932 59.1644C60.361 59.0012 60.3956 58.8261 60.3951 58.6494C60.3946 58.4727 60.359 58.2979 60.2904 58.1351C60.2217 57.9723 60.1214 57.8247 59.9952 57.701C59.869 57.5773 59.7195 57.4799 59.5554 57.4145C59.3912 57.3491 59.2157 57.317 59.0391 57.32C58.8624 57.323 58.6881 57.3611 58.5263 57.4321C58.3644 57.503 58.2183 57.6054 58.0964 57.7334C55.8326 60.0479 53.1452 61.906 50.1804 63.2067C50.0014 63.2778 49.8402 63.3875 49.7084 63.528C49.6938 63.544 49.6858 63.5654 49.6711 63.584C49.5736 63.6925 49.4947 63.8164 49.4378 63.9507C49.4116 64.0345 49.3942 64.1207 49.3858 64.208C49.361 64.2835 49.3436 64.3612 49.3338 64.44V73.3334C49.3338 74.0406 49.6147 74.7189 50.1148 75.219C50.6149 75.7191 51.2932 76 52.0005 76H61.5231C61.7742 76.9635 62.2904 77.8372 63.0131 78.522C63.7357 79.2067 64.636 79.6752 65.6115 79.8741C66.587 80.0729 67.5987 79.9943 68.5318 79.6471C69.4649 79.2999 70.2819 78.698 70.8901 77.9097C71.4983 77.1215 71.8733 76.1786 71.9725 75.1879C72.0717 74.1973 71.8912 73.1987 71.4514 72.3055C71.0116 71.4123 70.3301 70.6603 69.4845 70.135C68.6388 69.6096 67.6627 69.3319 66.6671 69.3334ZM66.6671 77.3334C65.9599 77.3334 65.2816 77.0524 64.7815 76.5523C64.2814 76.0522 64.0005 75.374 64.0005 74.6667C64.0005 73.9595 64.2814 73.2812 64.7815 72.7811C65.2816 72.281 65.9599 72 66.6671 72C67.3744 72 68.0526 72.281 68.5527 72.7811C69.0528 73.2812 69.3338 73.9595 69.3338 74.6667C69.3338 75.374 69.0528 76.0522 68.5527 76.5523C68.0526 77.0524 67.3744 77.3334 66.6671 77.3334ZM10.4778 54.6667H16.9204C16.9311 54.6667 16.9404 54.66 16.9524 54.66C17.0851 54.6541 17.216 54.6276 17.3404 54.5814C17.4026 54.561 17.4633 54.536 17.5218 54.5067C17.5364 54.4987 17.5538 54.496 17.5684 54.4867C17.5831 54.4774 17.6058 54.4494 17.6271 54.4347C17.7481 54.3601 17.8554 54.2654 17.9444 54.1547C17.9602 54.1341 17.9749 54.1128 17.9884 54.0907C18.0748 53.9693 18.1397 53.834 18.1804 53.6907C18.1804 53.6707 18.1884 53.6507 18.1924 53.6307C18.2247 53.5344 18.2453 53.4346 18.2538 53.3334C18.2469 53.283 18.2367 53.2331 18.2231 53.184C18.2231 53.1667 18.2231 53.1507 18.2138 53.132C18.1912 52.9757 18.1401 52.8247 18.0631 52.6867L18.0564 52.6654C16.6893 50.3054 15.7156 47.7384 15.1738 45.0654C15.1388 44.8938 15.0703 44.7308 14.9723 44.5856C14.8742 44.4405 14.7486 44.3161 14.6025 44.2195C14.4564 44.123 14.2927 44.0561 14.1208 44.0228C13.9489 43.9895 13.772 43.9904 13.6004 44.0254C13.4289 44.0604 13.2658 44.1289 13.1207 44.2269C12.9756 44.3249 12.8512 44.4506 12.7546 44.5967C12.658 44.7428 12.5912 44.9064 12.5579 45.0784C12.5245 45.2503 12.5254 45.4271 12.5604 45.5987C13.0084 47.8107 13.7258 49.9587 14.6938 51.9987H10.4778C10.1533 50.7418 9.38147 49.6465 8.3071 48.9179C7.23273 48.1894 5.92953 47.8777 4.64178 48.0412C3.35403 48.2048 2.17014 48.8324 1.31202 49.8064C0.453899 50.7804 -0.0195312 52.0339 -0.0195312 53.332C-0.0195312 54.6301 0.453899 55.8837 1.31202 56.8577C2.17014 57.8317 3.35403 58.4593 4.64178 58.6229C5.92953 58.7864 7.23273 58.4747 8.3071 57.7462C9.38147 57.0176 10.1533 55.9236 10.4778 54.6667ZM5.33378 56C4.62654 56 3.94826 55.7191 3.44816 55.219C2.94806 54.7189 2.66711 54.0406 2.66711 53.3334C2.66711 52.6261 2.94806 51.9479 3.44816 51.4478C3.94826 50.9477 4.62654 50.6667 5.33378 50.6667C6.04102 50.6667 6.7193 50.9477 7.2194 51.4478C7.71949 51.9479 8.00045 52.6261 8.00045 53.3334C8.00045 54.0406 7.71949 54.7189 7.2194 55.219C6.7193 55.7191 6.04102 56 5.33378 56Z" fill="#FCD535"/>
<path id="Vector_4" d="M4.12985e-06 26.6667C-0.00161001 27.9631 0.469986 29.2155 1.32628 30.1889C2.18257 31.1623 3.36468 31.7897 4.65073 31.9534C5.93678 32.1171 7.23835 31.8057 8.31115 31.0778C9.38394 30.3499 10.1542 29.2555 10.4773 28H16.956C17.088 27.992 17.2173 27.9653 17.3413 27.9213C17.3999 27.9026 17.457 27.8795 17.512 27.852C17.5831 27.8146 17.6501 27.7699 17.712 27.7187C17.8245 27.6338 17.9218 27.5306 18 27.4133C18.0173 27.388 18.04 27.3693 18.056 27.3427C19.7657 24.3758 22.06 21.7871 24.8 19.7333C24.9401 19.6283 25.0581 19.4967 25.1473 19.346C25.2365 19.1953 25.2952 19.0286 25.3199 18.8552C25.3447 18.6819 25.3351 18.5054 25.2916 18.3358C25.2482 18.1662 25.1717 18.0068 25.0667 17.8667C24.9616 17.7266 24.83 17.6086 24.6793 17.5194C24.5287 17.4302 24.3619 17.3715 24.1886 17.3467C24.0152 17.322 23.8387 17.3316 23.6691 17.3751C23.4995 17.4185 23.3401 17.495 23.2 17.6C20.394 19.7137 18.0116 22.3372 16.1773 25.3333H10.4773C10.1542 24.0778 9.38394 22.9834 8.31115 22.2555C7.23835 21.5276 5.93678 21.2163 4.65073 21.38C3.36468 21.5436 2.18257 22.171 1.32628 23.1444C0.469986 24.1178 -0.00161001 25.3703 4.12985e-06 26.6667ZM8 26.6667C8 27.3739 7.71905 28.0522 7.21896 28.5523C6.71886 29.0524 6.04058 29.3333 5.33334 29.3333C4.62609 29.3333 3.94782 29.0524 3.44772 28.5523C2.94762 28.0522 2.66667 27.3739 2.66667 26.6667C2.66667 25.9594 2.94762 25.2812 3.44772 24.7811C3.94782 24.281 4.62609 24 5.33334 24C6.04058 24 6.71886 24.281 7.21896 24.7811C7.71905 25.2812 8 25.9594 8 26.6667ZM74.6667 48C73.4877 48.0044 72.3435 48.3994 71.4128 49.1231C70.4821 49.8468 69.8174 50.8585 69.5227 52H65.3053C66.2746 49.9616 66.991 47.8123 67.4387 45.6C67.5094 45.2533 67.4395 44.8927 67.2443 44.5975C67.0492 44.3023 66.7447 44.0967 66.398 44.026C66.0513 43.9553 65.6907 44.0252 65.3955 44.2204C65.1003 44.4155 64.8947 44.72 64.824 45.0667C64.2831 47.7396 63.3104 50.3066 61.944 52.6667V52.684C61.8643 52.825 61.8119 52.9797 61.7893 53.14C61.7893 53.1547 61.7893 53.168 61.78 53.1827C61.7667 53.232 61.7547 53.2827 61.7467 53.3334C61.7547 53.4381 61.7753 53.5415 61.808 53.6414C61.8466 53.8041 61.9169 53.9577 62.0147 54.0934C62.028 54.1134 62.0387 54.1334 62.0533 54.152C62.1437 54.2633 62.2518 54.3588 62.3733 54.4347C62.3947 54.4494 62.408 54.472 62.4307 54.4854C62.4533 54.4987 62.4627 54.4974 62.4773 54.5054C62.536 54.536 62.5973 54.5614 62.6613 54.5814C62.7853 54.626 62.9151 54.6521 63.0467 54.6587C63.0587 54.6587 63.068 54.6654 63.08 54.6654H69.5227C69.7735 55.6289 70.2895 56.5028 71.0121 57.1878C71.7347 57.8728 72.6349 58.3414 73.6105 58.5405C74.586 58.7396 75.5979 58.6611 76.5311 58.314C77.4642 57.9669 78.2814 57.365 78.8897 56.5768C79.498 55.7886 79.8731 54.8456 79.9724 53.8549C80.0717 52.8642 79.8912 51.8655 79.4513 50.9722C79.0115 50.079 78.33 49.3269 77.4843 48.8015C76.6385 48.2762 75.6623 47.9985 74.6667 48ZM74.6667 56C73.9594 56 73.2812 55.7191 72.7811 55.219C72.281 54.7189 72 54.0406 72 53.3334C72 52.6261 72.281 51.9478 72.7811 51.4477C73.2812 50.9476 73.9594 50.6667 74.6667 50.6667C75.3739 50.6667 76.0522 50.9476 76.5523 51.4477C77.0524 51.9478 77.3333 52.6261 77.3333 53.3334C77.3333 54.0406 77.0524 54.7189 76.5523 55.219C76.0522 55.7191 75.3739 56 74.6667 56ZM30.6667 64.4627V64.44C30.6582 64.3652 30.6435 64.2911 30.6227 64.2187C30.6132 64.1282 30.5949 64.0389 30.568 63.952C30.5119 63.8198 30.4344 63.6977 30.3387 63.5907C30.3213 63.5707 30.3133 63.5467 30.296 63.528C30.1637 63.3875 30.0021 63.2778 29.8227 63.2067C26.3325 61.6663 23.2317 59.3637 20.748 56.468C20.6358 56.3299 20.4971 56.2156 20.34 56.1319C20.1829 56.0482 20.0107 55.9968 19.8334 55.9808C19.6562 55.9647 19.4775 55.9843 19.3079 56.0384C19.1384 56.0925 18.9813 56.1799 18.8461 56.2957C18.7109 56.4114 18.6002 56.553 18.5206 56.7122C18.441 56.8714 18.394 57.0449 18.3825 57.2225C18.371 57.4001 18.3952 57.5782 18.4536 57.7463C18.512 57.9144 18.6035 58.0692 18.7227 58.2014C21.2868 61.186 24.4469 63.6013 28 65.292V73.3334H18.4773C18.1528 72.0765 17.381 70.9811 16.3067 70.2526C15.2323 69.524 13.9291 69.2123 12.6413 69.3759C11.3536 69.5394 10.1697 70.167 9.31157 71.141C8.45346 72.1151 7.98003 73.3686 7.98003 74.6667C7.98003 75.9648 8.45346 77.2183 9.31157 78.1923C10.1697 79.1663 11.3536 79.794 12.6413 79.9575C13.9291 80.1211 15.2323 79.8094 16.3067 79.0808C17.381 78.3523 18.1528 77.2569 18.4773 76H28C28.7073 76 29.3855 75.7191 29.8856 75.219C30.3857 74.7189 30.6667 74.0406 30.6667 73.3334V64.4627ZM13.3333 77.3334C12.6261 77.3334 11.9478 77.0524 11.4477 76.5523C10.9476 76.0522 10.6667 75.3739 10.6667 74.6667C10.6667 73.9594 10.9476 73.2812 11.4477 72.7811C11.9478 72.281 12.6261 72 13.3333 72C14.0406 72 14.7189 72.281 15.219 72.7811C15.7191 73.2812 16 73.9594 16 74.6667C16 75.3739 15.7191 76.0522 15.219 76.5523C14.7189 77.0524 14.0406 77.3334 13.3333 77.3334ZM45.0667 64.8267C41.7223 65.4983 38.2777 65.4983 34.9333 64.8267C34.76 64.7869 34.5805 64.7822 34.4054 64.8129C34.2303 64.8435 34.063 64.9089 33.9135 65.0051C33.764 65.1014 33.6353 65.2265 33.5349 65.3733C33.4345 65.52 33.3644 65.6853 33.3288 65.8595C33.2933 66.0337 33.2929 66.2133 33.3278 66.3876C33.3626 66.562 33.432 66.7276 33.5318 66.8747C33.6316 67.0219 33.7598 67.1476 33.9089 67.2444C34.058 67.3413 34.225 67.4073 34.4 67.4387C35.808 67.712 37.2333 67.8787 38.6667 67.9334V78.6667C38.6667 79.0203 38.8071 79.3595 39.0572 79.6095C39.3072 79.8596 39.6464 80 40 80C40.3536 80 40.6928 79.8596 40.9428 79.6095C41.1929 79.3595 41.3333 79.0203 41.3333 78.6667V67.9334C42.7661 67.8776 44.1925 67.7123 45.6 67.4387C45.9393 67.3609 46.2346 67.1535 46.423 66.8608C46.6114 66.5681 46.6779 66.2134 46.6083 65.8724C46.5386 65.5313 46.3384 65.2311 46.0504 65.0357C45.7623 64.8403 45.4093 64.7653 45.0667 64.8267ZM28 4.00001H18.4773C18.1528 2.74313 17.381 1.64776 16.3067 0.919211C15.2323 0.190661 13.9291 -0.121045 12.6413 0.0425213C11.3536 0.206087 10.1697 0.833695 9.31157 1.8077C8.45346 2.78171 7.98003 4.03525 7.98003 5.33335C7.98003 6.63144 8.45346 7.88498 9.31157 8.85899C10.1697 9.833 11.3536 10.4606 12.6413 10.6242C13.9291 10.7877 15.2323 10.476 16.3067 9.74748C17.381 9.01893 18.1528 7.92356 18.4773 6.66668H28V15.5627C28 15.616 28.0253 15.668 28.032 15.7213C28.0453 15.86 28.0813 15.9947 28.1373 16.1213C28.2207 16.3005 28.3455 16.4572 28.5013 16.5787C28.6212 16.6773 28.7569 16.7548 28.9027 16.808C28.9973 16.8387 29.096 16.8573 29.196 16.8667C29.2399 16.8787 29.2844 16.888 29.3293 16.8947C29.5204 16.8907 29.7083 16.8452 29.88 16.7613C31.5043 16.0571 33.198 15.5253 34.9333 15.1747C35.2801 15.104 35.5845 14.8984 35.7797 14.6032C35.9748 14.308 36.0447 13.9474 35.974 13.6007C35.9033 13.254 35.6977 12.9495 35.4025 12.7544C35.1074 12.5592 34.7467 12.4893 34.4 12.56C33.1333 12.8187 31.8853 13.1667 30.6667 13.6V6.66668C30.6667 5.95944 30.3857 5.28116 29.8856 4.78106C29.3855 4.28096 28.7073 4.00001 28 4.00001ZM13.3333 8.00001C12.6261 8.00001 11.9478 7.71906 11.4477 7.21897C10.9476 6.71887 10.6667 6.04059 10.6667 5.33335C10.6667 4.6261 10.9476 3.94783 11.4477 3.44773C11.9478 2.94763 12.6261 2.66668 13.3333 2.66668C14.0406 2.66668 14.7189 2.94763 15.219 3.44773C15.7191 3.94783 16 4.6261 16 5.33335C16 6.04059 15.7191 6.71887 15.219 7.21897C14.7189 7.71906 14.0406 8.00001 13.3333 8.00001ZM61.5227 6.66668C61.8472 7.92356 62.619 9.01893 63.6934 9.74748C64.7677 10.476 66.0709 10.7877 67.3587 10.6242C68.6464 10.4606 69.8303 9.833 70.6884 8.85899C71.5466 7.88498 72.02 6.63144 72.02 5.33335C72.02 4.03525 71.5466 2.78171 70.6884 1.8077C69.8303 0.833695 68.6464 0.206087 67.3587 0.0425213C66.0709 -0.121045 64.7677 0.190661 63.6934 0.919211C62.619 1.64776 61.8472 2.74313 61.5227 4.00001H52C51.2928 4.00001 50.6145 4.28096 50.1144 4.78106C49.6143 5.28116 49.3333 5.95944 49.3333 6.66668V15.5587C49.3414 15.6373 49.357 15.715 49.38 15.7907C49.388 15.8787 49.4067 15.964 49.432 16.048C49.4893 16.1813 49.568 16.3067 49.6653 16.4147C49.68 16.432 49.688 16.4547 49.7027 16.4707C49.8347 16.6107 49.996 16.7213 50.1747 16.792C53.1389 18.0908 55.8262 19.9466 58.0907 22.2587C58.2107 22.3921 58.3565 22.4999 58.5192 22.5756C58.682 22.6514 58.8583 22.6935 59.0377 22.6994C59.2171 22.7053 59.3959 22.675 59.5633 22.6101C59.7306 22.5453 59.8832 22.4474 60.0118 22.3222C60.1404 22.197 60.2425 22.0471 60.3117 21.8815C60.381 21.7159 60.4162 21.5381 60.4151 21.3586C60.414 21.1791 60.3766 21.0017 60.3053 20.837C60.234 20.6722 60.1302 20.5236 60 20.4C57.6897 18.0508 54.9811 16.13 52 14.7267V6.66668H61.5227ZM66.6667 2.66668C67.3739 2.66668 68.0522 2.94763 68.5523 3.44773C69.0524 3.94783 69.3333 4.6261 69.3333 5.33335C69.3333 6.04059 69.0524 6.71887 68.5523 7.21897C68.0522 7.71906 67.3739 8.00001 66.6667 8.00001C65.9594 8.00001 65.2812 7.71906 64.7811 7.21897C64.281 6.71887 64 6.04059 64 5.33335C64 4.6261 64.281 3.94783 64.7811 3.44773C65.2812 2.94763 65.9594 2.66668 66.6667 2.66668ZM40 1.29893e-05C39.6464 1.29893e-05 39.3072 0.140489 39.0572 0.390537C38.8071 0.640586 38.6667 0.979724 38.6667 1.33335V13.3333C38.6667 13.687 38.8071 14.0261 39.0572 14.2762C39.3072 14.5262 39.6464 14.6667 40 14.6667C41.7013 14.6667 43.4 14.836 45.0667 15.1733C45.4093 15.2347 45.7623 15.1597 46.0504 14.9644C46.3384 14.769 46.5386 14.4687 46.6083 14.1277C46.6779 13.7866 46.6114 13.4319 46.423 13.1392C46.2346 12.8466 45.9393 12.6392 45.6 12.5613C44.1925 12.2878 42.7661 12.1224 41.3333 12.0667V1.33335C41.3333 0.979724 41.1929 0.640586 40.9428 0.390537C40.6928 0.140489 40.3536 1.29893e-05 40 1.29893e-05ZM69.5227 28C69.8472 29.2569 70.619 30.3523 71.6934 31.0808C72.7677 31.8094 74.0709 32.1211 75.3587 31.9575C76.6464 31.7939 77.8303 31.1663 78.6884 30.1923C79.5466 29.2183 80.02 27.9648 80.02 26.6667C80.02 25.3686 79.5466 24.115 78.6884 23.141C77.8303 22.167 76.6464 21.5394 75.3587 21.3759C74.0709 21.2123 72.7677 21.524 71.6934 22.2525C70.619 22.9811 69.8472 24.0765 69.5227 25.3333H63.08C63.0547 25.3333 63.0347 25.3467 63.0107 25.3467C62.9334 25.355 62.857 25.3707 62.7827 25.3933C62.6731 25.415 62.5669 25.4508 62.4667 25.5C62.456 25.5 62.4427 25.5 62.4307 25.5133C62.4187 25.5267 62.396 25.5493 62.3733 25.564C62.2518 25.6399 62.1437 25.7354 62.0533 25.8467C62.0387 25.8654 62.028 25.8853 62.0147 25.9053C61.9264 26.0262 61.8601 26.1616 61.8187 26.3053C61.8187 26.3227 61.8187 26.34 61.808 26.3573C61.7752 26.4576 61.7546 26.5615 61.7467 26.6667C61.7533 26.7174 61.764 26.768 61.776 26.8187C61.776 26.8334 61.7827 26.8467 61.7853 26.8613C61.808 27.0213 61.86 27.176 61.94 27.3174V27.3347C64.1637 31.1852 65.3341 35.5535 65.3333 40C65.3333 40.3536 65.4738 40.6928 65.7239 40.9428C65.9739 41.1929 66.313 41.3334 66.6667 41.3334H78.6667C79.0203 41.3334 79.3594 41.1929 79.6095 40.9428C79.8595 40.6928 80 40.3536 80 40C80 39.6464 79.8595 39.3073 79.6095 39.0572C79.3594 38.8072 79.0203 38.6667 78.6667 38.6667H67.956C67.7812 34.9698 66.8748 31.3443 65.2893 28H69.5227ZM74.6667 24C75.3739 24 76.0522 24.281 76.5523 24.7811C77.0524 25.2812 77.3333 25.9594 77.3333 26.6667C77.3333 27.3739 77.0524 28.0522 76.5523 28.5523C76.0522 29.0524 75.3739 29.3333 74.6667 29.3333C73.9594 29.3333 73.2812 29.0524 72.7811 28.5523C72.281 28.0522 72 27.3739 72 26.6667C72 25.9594 72.281 25.2812 72.7811 24.7811C73.2812 24.281 73.9594 24 74.6667 24ZM1.33334 41.3334H13.3333C13.687 41.3334 14.0261 41.1929 14.2761 40.9428C14.5262 40.6928 14.6667 40.3536 14.6667 40C14.6639 37.306 15.091 34.6288 15.932 32.0694C15.9867 31.903 16.0081 31.7275 15.995 31.5529C15.9819 31.3783 15.9346 31.208 15.8556 31.0516C15.7767 30.8953 15.6678 30.7561 15.535 30.6419C15.4023 30.5277 15.2483 30.4407 15.082 30.386C14.9157 30.3313 14.7402 30.3099 14.5656 30.323C14.3909 30.3361 14.2206 30.3835 14.0643 30.4624C13.908 30.5413 13.7687 30.6503 13.6545 30.783C13.5403 30.9157 13.4534 31.0697 13.3987 31.236C12.6154 33.6405 12.1624 36.1402 12.052 38.6667H1.33334C0.979716 38.6667 0.640577 38.8072 0.390528 39.0572C0.14048 39.3073 4.12985e-06 39.6464 4.12985e-06 40C4.12985e-06 40.3536 0.14048 40.6928 0.390528 40.9428C0.640577 41.1929 0.979716 41.3334 1.33334 41.3334Z" fill="#FCD535"/>
</g>
</g>
<defs>
<clipPath id="clip0_596_952">
<rect width="80" height="80" fill="white"/>
</clipPath>
</defs>
</svg>
