<svg width="80" height="80" viewBox="0 0 80 80" fill="none" xmlns="http://www.w3.org/2000/svg">
<g id="Frame">
<g id="Group">
<path id="Vector" d="M65.0563 46.0422C65.6563 46.0462 66.2374 45.8316 66.6908 45.4386C67.1442 45.0455 67.4391 44.5008 67.5203 43.9063C67.8828 41.3189 67.8828 38.6936 67.5203 36.1063C67.4405 35.5106 67.1462 34.9644 66.6926 34.5701C66.2391 34.1757 65.6573 33.9603 65.0563 33.9641H62.3281C61.8106 32.0508 61.0475 30.2126 60.0578 28.4953L61.9875 26.5625C62.4151 26.1401 62.6742 25.5763 62.7162 24.9767C62.7582 24.377 62.5802 23.7826 62.2156 23.3047C60.6439 21.2174 58.7873 19.3608 56.7 17.7891C56.2224 17.4223 55.6273 17.2425 55.0265 17.2837C54.4257 17.3248 53.8606 17.584 53.4375 18.0125L51.5078 19.9422C49.7908 18.9524 47.9525 18.1897 46.0391 17.6735V14.9438C46.0432 14.3442 45.829 13.7635 45.4366 13.3102C45.0442 12.8568 44.5003 12.5616 43.9063 12.4797C41.3188 12.1188 38.6937 12.1188 36.1063 12.4797C35.5106 12.5595 34.9644 12.8538 34.57 13.3074C34.1757 13.761 33.9603 14.3427 33.9641 14.9438V17.6735C32.0507 18.19 30.2124 18.9526 28.4953 19.9422L26.5625 18.0125C26.1401 17.5849 25.5763 17.3258 24.9766 17.2838C24.377 17.2419 23.7826 17.4198 23.3047 17.7844C21.2174 19.3561 19.3608 21.2127 17.7891 23.3C17.4223 23.7776 17.2425 24.3727 17.2837 24.9735C17.3248 25.5743 17.584 26.1394 18.0125 26.5625L19.9422 28.4922C18.9525 30.2095 18.1894 32.0477 17.6719 33.961H14.9438C14.3442 33.9569 13.7635 34.171 13.3101 34.5634C12.8568 34.9558 12.5616 35.4998 12.4797 36.0938C12.1172 38.6811 12.1172 41.3064 12.4797 43.8938C12.5595 44.4895 12.8538 45.0356 13.3074 45.43C13.761 45.8243 14.3427 46.0398 14.9438 46.036H17.6719C18.1894 47.9492 18.9525 49.7875 19.9422 51.5047L18.0125 53.4375C17.5849 53.86 17.3258 54.4238 17.2838 55.0234C17.2418 55.623 17.4198 56.2174 17.7844 56.6953C19.3561 58.7826 21.2127 60.6393 23.3 62.211C23.7777 62.5774 24.3728 62.757 24.9735 62.7158C25.5742 62.6747 26.1392 62.4157 26.5625 61.9875L28.4906 60.0578C30.2079 61.047 32.0462 61.8096 33.9594 62.3266V65.0563C33.9553 65.6561 34.1697 66.2369 34.5624 66.6903C34.9552 67.1438 35.4995 67.4388 36.0938 67.5203C38.6811 67.8828 41.3064 67.8828 43.8938 67.5203C44.4895 67.4405 45.0356 67.1462 45.43 66.6927C45.8243 66.2391 46.0398 65.6573 46.0359 65.0563V62.3266C47.9494 61.8103 49.7877 61.0477 51.5047 60.0578L53.4375 61.9875C53.8599 62.4152 54.4237 62.6742 55.0234 62.7162C55.623 62.7582 56.2174 62.5802 56.6953 62.2156C58.783 60.6444 60.6397 58.7877 62.2109 56.7C62.5778 56.2224 62.7575 55.6273 62.7163 55.0265C62.6752 54.4257 62.416 53.8606 61.9875 53.4375L60.0578 51.5078C61.047 49.7905 61.8096 47.9523 62.3266 46.0391L65.0563 46.0422ZM60.1281 44.5188C59.6114 46.8311 58.6973 49.0362 57.4266 51.036C57.2743 51.2757 57.2082 51.5601 57.2392 51.8424C57.2701 52.1247 57.3963 52.3881 57.5969 52.5891L60.2125 55.2047C58.7849 57.0998 57.0987 58.7855 55.2031 60.2125L52.5891 57.5985C52.3882 57.3976 52.125 57.2712 51.8427 57.2399C51.5604 57.2087 51.2758 57.2745 51.0359 57.4266C49.0364 58.6978 46.8312 59.6119 44.5188 60.1281C44.2415 60.1903 43.9937 60.345 43.8162 60.5668C43.6387 60.7887 43.5421 61.0644 43.5422 61.3485V65.0469C41.1921 65.3742 38.8079 65.3742 36.4578 65.0469V61.3485C36.458 61.0644 36.3613 60.7887 36.1838 60.5668C36.0063 60.345 35.7585 60.1903 35.4813 60.1281C33.169 59.6114 30.9639 58.6973 28.9641 57.4266C28.7243 57.2743 28.4399 57.2082 28.1576 57.2392C27.8753 57.2701 27.612 57.3963 27.4109 57.5969L24.7953 60.2125C22.903 58.7843 21.22 57.0982 19.7953 55.2031L22.4094 52.5891C22.6102 52.3882 22.7367 52.125 22.7679 51.8427C22.7992 51.5604 22.7333 51.2759 22.5813 51.036C21.31 49.0365 20.3959 46.8313 19.8797 44.5188C19.8175 44.2415 19.6628 43.9938 19.441 43.8162C19.2192 43.6387 18.9435 43.5421 18.6594 43.5422H14.9531C14.625 41.1922 14.625 38.8079 14.9531 36.4578H18.65C18.9341 36.458 19.2098 36.3613 19.4316 36.1838C19.6534 36.0063 19.8082 35.7585 19.8703 35.4813C20.3869 33.1689 21.301 30.9637 22.5719 28.9641C22.724 28.7242 22.7898 28.4397 22.7585 28.1574C22.7273 27.875 22.6008 27.6118 22.4 27.411L19.7859 24.7953C21.2141 22.903 22.9003 21.22 24.7953 19.7953L27.4094 22.411C27.6104 22.6116 27.8738 22.7377 28.1561 22.7687C28.4384 22.7996 28.7228 22.7335 28.9625 22.5813C30.9623 21.3106 33.1674 20.3965 35.4797 19.8797C35.7569 19.8176 36.0047 19.6628 36.1822 19.441C36.3597 19.2192 36.4564 18.9435 36.4563 18.6594V14.9531C38.8064 14.6258 41.1905 14.6258 43.5406 14.9531V18.65C43.5405 18.9341 43.6372 19.2098 43.8147 19.4316C43.9922 19.6535 44.24 19.8082 44.5172 19.8703C46.8295 20.3871 49.0346 21.3012 51.0344 22.5719C51.2741 22.7242 51.5585 22.7903 51.8408 22.7593C52.1231 22.7283 52.3865 22.6022 52.5875 22.4016L55.2031 19.786C57.0982 21.2136 58.7839 22.8998 60.2109 24.7953L57.5969 27.4094C57.396 27.6102 57.2696 27.8735 57.2383 28.1558C57.2071 28.4381 57.2729 28.7226 57.425 28.9625C58.6963 30.962 59.6104 33.1672 60.1266 35.4797C60.1887 35.7569 60.3435 36.0047 60.5653 36.1822C60.7871 36.3597 61.0628 36.4564 61.3469 36.4563H65.0469C65.375 38.8063 65.375 41.1906 65.0469 43.5406H61.3484C61.0641 43.5406 60.7883 43.6375 60.5664 43.8153C60.3446 43.9931 60.19 44.2413 60.1281 44.5188ZM40 25.2328C37.0793 25.2328 34.2243 26.0989 31.7958 27.7216C29.3673 29.3442 27.4746 31.6505 26.3569 34.3489C25.2392 37.0472 24.9468 40.0164 25.5166 42.881C26.0864 45.7455 27.4928 48.3768 29.558 50.442C31.6233 52.5072 34.2545 53.9137 37.1191 54.4835C39.9836 55.0533 42.9528 54.7608 45.6512 53.6431C48.3495 52.5254 50.6558 50.6327 52.2785 48.2042C53.9011 45.7758 54.7672 42.9207 54.7672 40C54.7626 36.0849 53.2054 32.3315 50.437 29.5631C47.6686 26.7947 43.9151 25.2374 40 25.2328ZM40 52.2641C37.5737 52.2641 35.2018 51.5445 33.1844 50.1965C31.167 48.8484 29.5947 46.9323 28.6663 44.6906C27.7379 42.4489 27.4952 39.9822 27.9688 37.6025C28.4423 35.2228 29.611 33.0371 31.3269 31.3216C33.0428 29.6061 35.2289 28.438 37.6087 27.965C39.9885 27.4921 42.4551 27.7354 44.6966 28.6644C46.9381 29.5933 48.8538 31.1661 50.2013 33.1839C51.5489 35.2016 52.2678 37.5737 52.2672 40C52.2635 43.2523 50.9698 46.3704 48.6701 48.6701C46.3704 50.9699 43.2523 52.2635 40 52.2672V52.2641ZM13.3156 15.4563C12.0645 16.8149 10.9194 18.2676 9.89063 19.8016C9.79912 19.938 9.68162 20.0551 9.54486 20.1462C9.40809 20.2372 9.25473 20.3004 9.09353 20.3322C8.93234 20.364 8.76646 20.3637 8.60538 20.3314C8.44429 20.299 8.29115 20.2353 8.1547 20.1438C8.01825 20.0523 7.90116 19.9348 7.81011 19.798C7.71907 19.6612 7.65585 19.5079 7.62408 19.3467C7.5923 19.1855 7.59259 19.0196 7.62492 18.8585C7.65725 18.6974 7.72099 18.5443 7.81251 18.4078C8.91396 16.7681 10.1394 15.2151 11.4781 13.7625C11.7053 13.5294 12.0145 13.3941 12.3399 13.3853C12.6653 13.3766 12.9812 13.4951 13.2206 13.7158C13.4599 13.9364 13.6038 14.2417 13.6215 14.5667C13.6393 14.8918 13.5295 15.2109 13.3156 15.4563ZM17.5891 9.90939C17.4001 9.63729 17.3268 9.30128 17.3854 8.97519C17.444 8.6491 17.6296 8.35961 17.9016 8.17033C24.5912 3.52678 32.5734 1.10825 40.7153 1.25802C48.8572 1.4078 56.7451 4.11827 63.2594 9.00471L62.8391 7.83908C62.7293 7.52789 62.747 7.18589 62.8883 6.8877C63.0297 6.5895 63.2832 6.3593 63.5936 6.2473C63.904 6.1353 64.2461 6.1506 64.5453 6.28986C64.8445 6.42911 65.0765 6.68102 65.1906 6.99064L67.2078 12.5797C67.2761 12.7686 67.2979 12.9711 67.2713 13.1701C67.2447 13.3692 67.1706 13.5589 67.0552 13.7232C66.9397 13.8875 66.7864 14.0216 66.6082 14.1141C66.43 14.2067 66.2321 14.2549 66.0313 14.2547C65.9573 14.2549 65.8836 14.2481 65.8109 14.2344L59.9625 13.186C59.8009 13.157 59.6466 13.0965 59.5084 13.008C59.3702 12.9194 59.2508 12.8045 59.157 12.6698C59.0632 12.5351 58.9968 12.3832 58.9617 12.2228C58.9266 12.0625 58.9234 11.8968 58.9524 11.7352C58.9813 11.5736 59.0418 11.4193 59.1303 11.2811C59.2189 11.1428 59.3338 11.0234 59.4685 10.9296C59.6032 10.8358 59.7551 10.7695 59.9155 10.7344C60.0758 10.6993 60.2415 10.6961 60.4031 10.725L61.6969 10.9578C55.6033 6.40833 48.2336 3.88959 40.6302 3.75781C33.0267 3.62602 25.5742 5.88786 19.3266 10.2235C19.0544 10.4118 18.7186 10.4845 18.3929 10.4257C18.0672 10.3668 17.7781 10.1811 17.5891 9.90939ZM4.8172 48.75C4.89608 49.0711 4.84452 49.4104 4.67379 49.6936C4.50305 49.9768 4.22707 50.1808 3.90626 50.261C3.80731 50.2869 3.70543 50.3 3.60313 50.3C3.32418 50.2999 3.05329 50.2065 2.83357 50.0346C2.61385 49.8627 2.45793 49.6223 2.39063 49.3516C1.99085 47.7477 1.69389 46.1199 1.50157 44.4781C1.46786 44.1513 1.56417 43.8244 1.76967 43.568C1.97517 43.3117 2.27333 43.1466 2.59965 43.1084C2.92597 43.0702 3.2542 43.162 3.51335 43.3639C3.77249 43.5659 3.94171 43.8618 3.98438 44.1875C4.16417 45.7246 4.44234 47.2486 4.8172 48.75ZM1.25938 38.8844C1.30529 37.3284 1.44512 35.7766 1.67813 34.2375C1.70276 34.0752 1.75911 33.9193 1.84397 33.7788C1.92883 33.6383 2.04054 33.5159 2.17271 33.4185C2.30489 33.3211 2.45495 33.2508 2.61433 33.2114C2.7737 33.172 2.93927 33.1645 3.10157 33.1891C3.26388 33.2137 3.41974 33.2701 3.56027 33.3549C3.7008 33.4398 3.82324 33.5515 3.92059 33.6837C4.01795 33.8158 4.08832 33.9659 4.12768 34.1253C4.16705 34.2846 4.17463 34.4502 4.15001 34.6125C3.93205 36.0518 3.80108 37.5028 3.75782 38.9578C3.74807 39.2828 3.61208 39.5912 3.37871 39.8176C3.14534 40.0439 2.83295 40.1705 2.50782 40.1703H2.47032C2.13931 40.1601 1.82587 40.019 1.59883 39.7779C1.37179 39.5368 1.24971 39.2154 1.25938 38.8844ZM6.98282 25.0328C6.3445 26.4438 5.79703 27.8942 5.34376 29.375C5.24541 29.6904 5.02623 29.954 4.73412 30.1082C4.442 30.2625 4.1007 30.2948 3.78481 30.1982C3.46892 30.1016 3.20411 29.8838 3.04828 29.5926C2.89244 29.3013 2.85823 28.9602 2.95313 28.6438C3.4375 27.0601 4.02254 25.5091 4.7047 24C4.77231 23.8504 4.86872 23.7156 4.98843 23.6033C5.10813 23.491 5.24879 23.4033 5.40237 23.3454C5.55595 23.2874 5.71944 23.2603 5.88351 23.2655C6.04758 23.2707 6.20902 23.3082 6.3586 23.3758C6.50819 23.4434 6.64299 23.5398 6.75531 23.6595C6.86764 23.7792 6.95528 23.9199 7.01325 24.0735C7.07121 24.2271 7.09836 24.3905 7.09314 24.5546C7.08792 24.7187 7.05043 24.8801 6.98282 25.0297V25.0328ZM75.1828 31.25C75.1026 30.9282 75.1536 30.5878 75.3244 30.3035C75.4952 30.0193 75.772 29.8146 76.0938 29.7344C76.4155 29.6542 76.756 29.7051 77.0402 29.876C77.3245 30.0468 77.5292 30.3236 77.6094 30.6453C78.009 32.2493 78.306 33.877 78.4985 35.5188C78.5368 35.8475 78.4431 36.178 78.2381 36.4379C78.0331 36.6977 77.7334 36.8656 77.4047 36.9047C77.356 36.9109 77.3069 36.9141 77.2578 36.9141C76.9519 36.9135 76.6568 36.8007 76.4284 36.5971C76.2001 36.3935 76.0543 36.1133 76.0188 35.8094C75.8384 34.2732 75.5592 32.7503 75.1828 31.25ZM78.7406 41.1125C78.6947 42.6685 78.5549 44.2203 78.3219 45.7594C78.2771 46.0548 78.1279 46.3244 77.9015 46.5193C77.675 46.7142 77.3863 46.8215 77.0875 46.8219C77.0242 46.8218 76.961 46.8171 76.8984 46.8078C76.7361 46.7832 76.5803 46.7269 76.4397 46.642C76.2992 46.5572 76.1768 46.4455 76.0794 46.3133C75.982 46.1811 75.9117 46.031 75.8723 45.8717C75.833 45.7123 75.8254 45.5467 75.85 45.3844C76.0705 43.9464 76.204 42.4963 76.25 41.0422C76.2598 40.7107 76.4008 40.3966 76.6421 40.1691C76.8834 39.9415 77.2052 39.8192 77.5367 39.8289C77.8682 39.8387 78.1823 39.9797 78.4099 40.221C78.6374 40.4623 78.7598 40.7841 78.75 41.1156L78.7406 41.1125ZM72.1875 61.5922C71.0866 63.2319 69.8616 64.7849 68.5234 66.2375C68.4137 66.3635 68.2797 66.4661 68.1296 66.5394C67.9795 66.6127 67.8162 66.6552 67.6494 66.6643C67.4825 66.6734 67.3156 66.6489 67.1584 66.5924C67.0011 66.5359 66.8568 66.4485 66.734 66.3352C66.6112 66.222 66.5123 66.0853 66.4432 65.9332C66.374 65.7811 66.3361 65.6167 66.3317 65.4496C66.3272 65.2826 66.3562 65.1164 66.4171 64.9608C66.4779 64.8052 66.5694 64.6634 66.686 64.5438C67.9371 63.1851 69.0821 61.7324 70.1109 60.1985C70.2025 60.0621 70.3199 59.9451 70.4567 59.8542C70.5934 59.7632 70.7467 59.7001 70.9078 59.6684C71.0689 59.6367 71.2347 59.637 71.3957 59.6694C71.5567 59.7018 71.7098 59.7655 71.8461 59.857C71.9825 59.9486 72.0994 60.066 72.1904 60.2028C72.2813 60.3395 72.3445 60.4928 72.3762 60.6539C72.4079 60.815 72.4075 60.9808 72.3752 61.1418C72.3428 61.3028 72.279 61.4559 72.1875 61.5922ZM77.0484 51.3531C76.5641 52.9368 75.979 54.4879 75.2969 55.9969C75.1603 56.299 74.9094 56.5345 74.5992 56.6515C74.289 56.7686 73.9451 56.7577 73.643 56.6211C73.3409 56.4846 73.1054 56.2336 72.9883 55.9234C72.8713 55.6133 72.8822 55.2693 73.0188 54.9672C73.6565 53.5562 74.2035 52.1058 74.6563 50.625C74.7546 50.3097 74.9738 50.046 75.2659 49.8918C75.558 49.7375 75.8993 49.7052 76.2152 49.8018C76.5311 49.8985 76.7959 50.1162 76.9517 50.4075C77.1076 50.6987 77.1418 51.0399 77.0469 51.3563L77.0484 51.3531ZM62.4109 70.0906C62.6 70.3627 62.6732 70.6988 62.6146 71.0249C62.556 71.3509 62.3704 71.6404 62.0984 71.8297C55.4087 76.4726 47.4267 78.8908 39.285 78.7413C31.1433 78.5918 23.2555 75.8822 16.7406 70.9969L17.1609 72.161C17.245 72.4644 17.2115 72.7884 17.0671 73.0682C16.9226 73.348 16.6779 73.5629 16.3818 73.6701C16.0857 73.7773 15.7601 73.7688 15.4701 73.6463C15.18 73.5238 14.9468 73.2963 14.8172 73.0094L12.7891 67.4203C12.7146 67.2139 12.6957 66.9914 12.7344 66.7754C12.7732 66.5593 12.8681 66.3573 13.0097 66.1896C13.1512 66.0219 13.3345 65.8944 13.541 65.82C13.7475 65.7456 13.9699 65.7268 14.1859 65.7656L20.0344 66.8141C20.196 66.843 20.3503 66.9035 20.4885 66.9921C20.6267 67.0806 20.7461 67.1955 20.8399 67.3303C20.9337 67.465 21.0001 67.6169 21.0352 67.7772C21.0703 67.9376 21.0735 68.1033 21.0445 68.2649C21.0156 68.4265 20.9551 68.5808 20.8666 68.719C20.778 68.8572 20.6631 68.9766 20.5284 69.0704C20.3936 69.1642 20.2418 69.2306 20.0814 69.2657C19.9211 69.3008 19.7553 69.3039 19.5938 69.275L18.3 69.0438C24.3941 73.5924 31.7637 76.1104 39.367 76.2419C46.9703 76.3734 54.4226 74.1117 60.6703 69.7766C60.8052 69.6828 60.9572 69.6166 61.1177 69.5816C61.2783 69.5467 61.4441 69.5437 61.6057 69.5728C61.7674 69.602 61.9217 69.6628 62.0599 69.7516C62.198 69.8405 62.3173 69.9557 62.4109 70.0906Z" fill="#FCD535"/>
</g>
</g>
</svg>
