<svg width="80" height="80" viewBox="0 0 80 80" fill="none" xmlns="http://www.w3.org/2000/svg">
<g id="Group">
<path id="Vector" d="M16.0034 37.3271H34.667V39.9934H16.0034V37.3271ZM16.0034 42.6596H39.9994V45.3258H16.0034V42.6596ZM16.0034 47.992H32.0008V50.6583H16.0034V47.992ZM16.0034 53.3245H45.3319V55.9907H16.0034V53.3245Z" fill="#FCD535"/>
<path id="Vector_2" d="M78.9267 9.35856L74.3033 8.43338C68.8814 7.35432 63.902 4.68964 59.9963 0.777162L59.6097 0.39056C59.0896 -0.130187 58.2453 -0.130187 57.7245 0.39056L57.3386 0.777162C53.432 4.69007 48.4515 7.35477 43.0285 8.43338L38.4001 9.35856C38.0989 9.41996 37.8282 9.58355 37.6338 9.82162C37.4394 10.0597 37.3332 10.3576 37.3333 10.665V20.5644C37.3333 21.2687 37.3651 21.9671 37.4121 22.663H9.33811C7.12948 22.663 5.33878 24.4537 5.33878 26.6623V66.789C1.98317 67.4705 -0.310616 70.584 0.0336599 73.9911C0.378102 77.3981 3.24729 79.9901 6.67189 79.9868H73.3274C76.7519 79.9901 79.622 77.3981 79.9663 73.9911C80.3099 70.584 78.0166 67.4705 74.6605 66.789V37.85C78.1443 32.7596 80.0034 26.7329 79.993 20.5645V10.6647C79.993 10.0315 79.5477 9.48454 78.9268 9.35823L78.9267 9.35856ZM48.8415 44.5067L57.8302 51.6988C58.0666 51.8881 58.3605 51.9913 58.6634 51.9913C58.9663 51.9913 59.2601 51.8881 59.4966 51.6988L66.662 45.9668V61.3229H13.4989V30.6613H39.0292C40.9271 36.1103 44.329 40.9106 48.8414 44.5067H48.8415ZM77.3269 73.3209C77.3269 75.5295 75.5369 77.3202 73.3276 77.3202H6.67205C4.46342 77.3202 2.67272 75.5295 2.67272 73.3209C2.67272 71.1123 4.46342 69.3216 6.67205 69.3216H32.1345C32.7725 72.4227 35.5006 74.6502 38.6667 74.654H41.3329C44.4991 74.6502 47.2278 72.4227 47.8652 69.3216H73.3276C75.5369 69.3216 77.3269 71.1123 77.3269 73.3209ZM34.8952 69.3216H45.1045C44.8278 70.1008 44.3167 70.7754 43.6415 71.2527C42.9662 71.7301 42.1599 71.9868 41.3329 71.9878H38.6667C37.8398 71.9868 37.0335 71.73 36.3582 71.2526C35.683 70.7753 35.172 70.1008 34.8952 69.3216ZM71.9945 66.6553H8.00516V26.662C8.00516 26.3084 8.14562 25.9694 8.39562 25.7194C8.64563 25.4694 8.98471 25.3289 9.33827 25.3289H37.7099C37.8497 26.2248 38.0276 27.1144 38.2431 27.9951H12.1655C11.8119 27.9951 11.4728 28.1356 11.2228 28.3856C10.9728 28.6356 10.8324 28.9747 10.8324 29.3282V62.656C10.8324 63.0096 10.9728 63.3487 11.2228 63.5987C11.4728 63.8487 11.8119 63.9891 12.1655 63.9891H67.9952C68.3487 63.9891 68.6878 63.8487 68.9378 63.5987C69.1878 63.3487 69.3283 63.0096 69.3283 62.656V43.7942C70.2679 42.988 71.1583 42.1261 71.9945 41.2131V66.6553ZM77.3269 20.564C77.3369 24.7647 76.397 28.9132 74.5774 32.6993C72.7579 36.4854 70.1058 39.8111 66.8195 42.4276L58.6634 48.9503L50.5079 42.4261C47.2217 39.8099 44.5695 36.4846 42.7498 32.6988C40.9302 28.913 39.99 24.7648 39.9998 20.5644V11.7578L43.5526 11.0476C49.2314 9.91611 54.4718 7.1943 58.6634 3.19926C62.8556 7.19223 68.096 9.91199 73.7742 11.0418L77.3269 11.7578V20.564Z" fill="#FCD535"/>
<path id="Vector_3" d="M70.0724 12.8273C66.1858 12.0539 62.6164 10.1435 59.817 7.33858L59.5357 7.05746C59.2859 6.80709 58.9469 6.66612 58.5932 6.66553C58.2404 6.66553 57.902 6.8055 57.652 7.0548L57.3682 7.33725C54.5694 10.1429 51.0001 12.0538 47.1133 12.8273L43.7395 13.5004C43.4382 13.5618 43.1674 13.7256 42.973 13.9639C42.7787 14.2022 42.6728 14.5005 42.6733 14.808V22.0321C42.6733 22.2111 42.698 22.3842 42.7027 22.5654C42.7027 22.6004 42.6825 22.631 42.6825 22.6667C42.6897 22.7273 42.7013 22.7872 42.7183 22.845C42.8218 26.114 43.6335 29.3217 45.0975 32.2464C46.5615 35.1711 48.6429 37.7432 51.1979 39.785L57.7587 45.0335C57.995 45.2229 58.289 45.326 58.5919 45.3257C58.6049 45.3257 58.6185 45.3192 58.6317 45.3192C58.6453 45.3192 58.6517 45.3259 58.6635 45.3259C58.7846 45.3188 58.9041 45.2944 59.0183 45.2534H59.0286C59.2814 45.1821 59.5069 45.0363 59.6757 44.835L65.9853 39.7863C68.6769 37.5176 70.8458 34.6935 72.3433 31.5077C73.8408 28.3219 74.6314 24.8498 74.6608 21.3297V14.6642C74.6609 14.3449 74.5465 14.0363 74.3382 13.7942C74.13 13.5522 73.8419 13.393 73.5262 13.3454L70.0724 12.8273ZM71.9946 15.8105V21.3297H59.9966V11.0433C62.8102 13.2483 66.1041 14.7588 69.6109 15.4521L71.9946 15.8105ZM47.636 15.4414C51.1809 14.7325 54.5048 13.1861 57.3304 10.9311V21.3297H45.3324V15.901L47.636 15.4414ZM45.4417 23.996H57.3304V41.2756L52.8645 37.704C50.7705 36.0343 49.0341 33.9601 47.7589 31.605C46.4836 29.2499 45.6956 26.6621 45.4417 23.996ZM64.3189 37.704L59.9966 41.1611V23.996H71.7987C71.1062 29.3395 68.4377 34.2301 64.3189 37.704Z" fill="#FCD535"/>
</g>
</svg>
