<svg width="80" height="80" viewBox="0 0 80 80" fill="none" xmlns="http://www.w3.org/2000/svg">
<g id="Frame">
<g id="Group">
<path id="Vector" d="M29.7582 66.0241H25.2733C25.1065 66.0241 24.9465 65.9579 24.8286 65.8399C24.7107 65.722 24.6444 65.562 24.6444 65.3952C24.6444 65.2284 24.7107 65.0685 24.8286 64.9506C24.9465 64.8326 25.1065 64.7664 25.2733 64.7664H29.7582C29.925 64.7664 30.085 64.8326 30.2029 64.9506C30.3209 65.0685 30.3871 65.2284 30.3871 65.3952C30.3871 65.562 30.3209 65.722 30.2029 65.8399C30.085 65.9579 29.925 66.0241 29.7582 66.0241ZM33.7578 72.8772H21.2725C21.1057 72.8772 20.9458 72.811 20.8278 72.6931C20.7099 72.5751 20.6437 72.4152 20.6437 72.2484V68.0896C20.6437 67.9228 20.7099 67.7628 20.8278 67.6449C20.9458 67.527 21.1057 67.4608 21.2725 67.4608H33.7578C33.8403 67.4608 33.9221 67.477 33.9984 67.5086C34.0747 67.5402 34.144 67.5865 34.2024 67.6449C34.2608 67.7033 34.3071 67.7726 34.3387 67.8489C34.3703 67.9252 34.3866 68.007 34.3866 68.0896V72.2484C34.3866 72.331 34.3703 72.4128 34.3387 72.4891C34.3071 72.5654 34.2608 72.6347 34.2024 72.6931C34.144 72.7515 34.0747 72.7978 33.9984 72.8294C33.9221 72.861 33.8403 72.8773 33.7578 72.8772ZM21.9013 71.6196H33.129V68.7184H21.9013V71.6196Z" fill="#FCD535"/>
<path id="Vector_2" d="M39.9982 76H15.0325C14.9499 76 14.8681 75.9837 14.7918 75.9521C14.7156 75.9205 14.6462 75.8742 14.5879 75.8158C14.5295 75.7574 14.4831 75.6881 14.4515 75.6118C14.4199 75.5355 14.4037 75.4537 14.4037 75.3712C14.4037 73.3025 16.0856 71.6196 18.153 71.6196H36.8797C38.9462 71.6196 40.6274 73.3027 40.6274 75.3712C40.6273 75.538 40.561 75.6979 40.443 75.8158C40.325 75.9337 40.165 76 39.9982 76ZM15.7414 74.7424H39.2893C39.0102 73.6707 38.0357 72.8774 36.8794 72.8774H18.153C16.996 72.8772 16.0206 73.6705 15.7414 74.7424ZM55.3834 73.7926H52.7338C52.567 73.7926 52.407 73.7263 52.2891 73.6084C52.1711 73.4905 52.1049 73.3305 52.1049 73.1637C52.1049 72.9969 52.1711 72.837 52.2891 72.719C52.407 72.6011 52.567 72.5348 52.7338 72.5348H55.3834C55.5501 72.5348 55.7101 72.6011 55.828 72.719C55.946 72.837 56.0122 72.9969 56.0122 73.1637C56.0122 73.3305 55.946 73.4905 55.828 73.6084C55.7101 73.7263 55.5501 73.7926 55.3834 73.7926Z" fill="#FCD535"/>
<path id="Vector_3" d="M60.2366 76H47.8792C46.0715 76 44.6011 74.5295 44.6011 72.7218V48.8869C44.6011 47.0797 46.0715 45.6096 47.8792 45.6096H60.2366C62.0453 45.6096 63.5165 47.0797 63.5165 48.8869V72.7218C63.5165 74.5295 62.0451 76 60.2366 76ZM47.879 46.8672C46.7648 46.8672 45.8584 47.7733 45.8584 48.8869V72.7218C45.8584 73.836 46.7648 74.7424 47.879 74.7424H60.2365C61.3517 74.7424 62.2587 73.836 62.2587 72.7218V48.8869C62.2587 47.7733 61.3517 46.8672 60.2365 46.8672H47.879Z" fill="#FCD535"/>
<path id="Vector_4" d="M62.8877 71.5854H45.2298C45.063 71.5854 44.9031 71.5192 44.7851 71.4013C44.6672 71.2833 44.601 71.1234 44.601 70.9566V49.7694C44.601 49.6027 44.6672 49.4427 44.7851 49.3248C44.9031 49.2069 45.063 49.1406 45.2298 49.1406H62.8877C63.0545 49.1406 63.2144 49.2069 63.3323 49.3248C63.4502 49.4427 63.5165 49.6027 63.5165 49.7694V70.9568C63.5164 71.1235 63.4502 71.2834 63.3323 71.4013C63.2143 71.5192 63.0544 71.5854 62.8877 71.5854ZM45.8584 70.3278H62.2587V50.3982H45.8584V70.3278Z" fill="#FCD535"/>
<path id="Vector_5" d="M45.2298 68.7168H5.97648C4.88656 68.7168 4 67.8305 4 66.7414V62.7C4 62.5332 4.06625 62.3733 4.18417 62.2553C4.30209 62.1374 4.46203 62.0712 4.6288 62.0712H45.2296C45.3964 62.0712 45.5563 62.1374 45.6742 62.2553C45.7922 62.3733 45.8584 62.5332 45.8584 62.7V68.0878C45.8584 68.1704 45.8422 68.2522 45.8106 68.3284C45.779 68.4047 45.7327 68.4741 45.6743 68.5325C45.616 68.5909 45.5467 68.6372 45.4704 68.6688C45.3941 68.7005 45.3123 68.7167 45.2298 68.7168ZM5.2576 63.3291V66.7416C5.25798 66.932 5.33386 67.1144 5.4686 67.249C5.60333 67.3835 5.78592 67.4591 5.97632 67.4592H44.6008V63.3291H5.2576Z" fill="#FCD535"/>
<path id="Vector_6" d="M45.2298 63.3291H4.6288C4.54621 63.3291 4.46443 63.3129 4.38813 63.2813C4.31183 63.2496 4.2425 63.2033 4.18411 63.1449C4.12572 63.0865 4.07941 63.0172 4.04782 62.9409C4.01623 62.8645 3.99998 62.7828 4 62.7002V35.1011C4 34.0131 4.88672 33.1282 5.97648 33.1282H49.0579C50.1462 33.1282 51.0314 34.0131 51.0314 35.1011V46.2383C51.0314 46.4051 50.9651 46.565 50.8471 46.683C50.7292 46.801 50.5692 46.8672 50.4024 46.8672H47.879C46.7648 46.8672 45.8584 47.7733 45.8584 48.8869V62.7002C45.8584 62.7828 45.8422 62.8645 45.8106 62.9408C45.779 63.0171 45.7327 63.0864 45.6743 63.1448C45.616 63.2033 45.5467 63.2496 45.4704 63.2812C45.3941 63.3128 45.3123 63.3291 45.2298 63.3291ZM5.2576 62.0714H44.601V48.8869C44.601 47.0797 46.0714 45.6096 47.879 45.6096H49.7736V35.1011C49.7733 34.9114 49.6978 34.7296 49.5636 34.5955C49.4294 34.4614 49.2475 34.3859 49.0578 34.3858H5.97648C5.58016 34.3858 5.25776 34.7066 5.25776 35.1011L5.2576 62.0714Z" fill="#FCD535"/>
<path id="Vector_7" d="M45.2298 63.3291H7.22944C7.14685 63.3291 7.06507 63.3129 6.98877 63.2812C6.91247 63.2496 6.84314 63.2033 6.78475 63.1449C6.72636 63.0865 6.68005 63.0171 6.64846 62.9408C6.61687 62.8645 6.60062 62.7828 6.60064 62.7002V36.36C6.60064 36.1932 6.66689 36.0333 6.78481 35.9154C6.90273 35.7974 7.06267 35.7312 7.22944 35.7312H47.8022C47.8848 35.7312 47.9666 35.7474 48.0429 35.779C48.1192 35.8106 48.1886 35.8569 48.247 35.9153C48.3054 35.9737 48.3517 36.043 48.3833 36.1193C48.4149 36.1956 48.4312 36.2774 48.4312 36.36V46.2467C48.4312 46.4105 48.3674 46.5678 48.2532 46.6852C48.139 46.8026 47.9835 46.8708 47.8198 46.8754C46.7202 46.9059 45.8586 47.7896 45.8586 48.8867V62.7C45.8586 62.8668 45.7923 63.0268 45.6744 63.1447C45.5565 63.2627 45.3966 63.329 45.2298 63.3291ZM7.85824 62.0714H44.601V48.8869C44.601 47.3133 45.6904 46.0102 47.1734 45.6914V36.9888H7.85824V62.0714Z" fill="#FCD535"/>
<path id="Vector_8" d="M22.5203 49.5337C22.3536 49.5337 22.1936 49.4675 22.0757 49.3495C21.9578 49.2316 21.8915 49.0717 21.8915 48.9049C21.8915 48.3772 21.9642 47.8369 22.1075 47.2993C22.1287 47.2195 22.1654 47.1446 22.2156 47.079C22.2658 47.0134 22.3283 46.9583 22.3998 46.9169C22.4713 46.8755 22.5502 46.8485 22.6321 46.8376C22.7139 46.8267 22.7972 46.8321 22.877 46.8534C23.0381 46.8964 23.1756 47.0016 23.2591 47.1459C23.3427 47.2902 23.3656 47.4618 23.3227 47.623C23.2075 48.0553 23.1493 48.4865 23.1493 48.9051C23.1493 48.9877 23.133 49.0694 23.1014 49.1457C23.0697 49.222 23.0234 49.2913 22.965 49.3497C22.9066 49.408 22.8373 49.4543 22.761 49.4859C22.6847 49.5175 22.6029 49.5337 22.5203 49.5337ZM31.6464 50.5398C31.564 50.5399 31.4824 50.5238 31.4062 50.4923C31.3301 50.4608 31.2609 50.4147 31.2026 50.3564C31.1439 50.2981 31.0973 50.2287 31.0656 50.1523C31.0338 50.0759 31.0175 49.9939 31.0176 49.9112C31.0176 49.7507 31.0787 49.5899 31.201 49.4673C31.9664 48.6992 32.9859 48.2763 34.0717 48.2763C34.2385 48.2763 34.3984 48.3425 34.5164 48.4605C34.6343 48.5784 34.7006 48.7384 34.7006 48.9052C34.7006 49.0719 34.6343 49.2319 34.5164 49.3498C34.3984 49.4678 34.2385 49.534 34.0717 49.534C33.7037 49.5328 33.3391 49.6048 32.9992 49.7458C32.6593 49.8867 32.3508 50.0939 32.0917 50.3552C32.0333 50.4138 31.9639 50.4602 31.8875 50.4919C31.8111 50.5236 31.7291 50.5399 31.6464 50.5398Z" fill="#FCD535"/>
<path id="Vector_9" d="M34.0699 56.4008H21.7397C19.0696 56.4008 16.8971 54.2294 16.8971 51.5605C16.8971 48.8896 19.0694 46.7166 21.7397 46.7166C21.9173 46.7166 22.0981 46.7274 22.281 46.7485C23.1739 44.3133 25.5054 42.6581 28.1381 42.6581C31.375 42.6581 34.0451 45.1309 34.357 48.2862C36.4646 48.4339 38.1344 50.1958 38.1344 52.3403C38.1344 54.5792 36.311 56.4008 34.0699 56.4008ZM21.7397 47.9742C19.763 47.9742 18.1549 49.583 18.1549 51.5605C18.1549 53.536 19.763 55.1432 21.7397 55.1432H34.0699C35.6176 55.1432 36.8768 53.8858 36.8768 52.3402C36.8768 50.7926 35.6176 49.5338 34.0699 49.5338C33.9802 49.5338 33.8989 49.5376 33.8216 49.5453C33.7341 49.5541 33.6458 49.5445 33.5623 49.517C33.4788 49.4896 33.402 49.445 33.3368 49.386C33.2716 49.3271 33.2195 49.2551 33.1839 49.1748C33.1482 49.0945 33.1298 49.0076 33.1298 48.9197C33.1298 46.1538 30.8906 43.9157 28.1382 43.9157C25.8813 43.9157 23.9011 45.4397 23.323 47.6222C23.2813 47.7801 23.1797 47.9155 23.0399 47.9998C22.9 48.084 22.7328 48.1106 22.5738 48.0738C22.2832 48.0067 22.0104 47.9742 21.7397 47.9742ZM23.3541 21.9018H6.7088C5.2152 21.9018 4 20.6858 4 19.191V6.7088C4 5.21504 5.2152 4 6.7088 4H23.3542C24.8477 4 26.0629 5.21504 26.0629 6.7088V19.191C26.0629 20.6858 24.8477 21.9018 23.3541 21.9018ZM6.7088 5.2576C5.90864 5.2576 5.25776 5.90848 5.25776 6.70864V19.1909C5.25776 19.9922 5.90864 20.6442 6.7088 20.6442H23.3542C24.1542 20.6442 24.8053 19.9923 24.8053 19.1909V6.7088C24.8053 5.90864 24.1544 5.25776 23.3542 5.25776L6.7088 5.2576ZM48.3237 21.9018H31.6762C30.1821 21.9018 28.9666 20.6858 28.9666 19.191V6.7088C28.9666 5.2152 30.1821 4 31.6762 4H48.3237C49.8176 4 51.033 5.21504 51.033 6.7088V19.191C51.033 20.6858 49.8176 21.9018 48.3237 21.9018ZM31.6762 5.2576C30.8755 5.2576 30.2243 5.90848 30.2243 6.70864V19.1909C30.2243 19.9922 30.8755 20.6442 31.6762 20.6442H48.3237C49.124 20.6442 49.7752 19.9923 49.7752 19.1909V6.7088C49.7752 5.90864 49.124 5.25776 48.3237 5.25776L31.6762 5.2576ZM73.2901 42.7101H56.644C55.1498 42.7101 53.9341 41.4939 53.9341 39.9992V27.5149C53.9341 26.0213 55.1498 24.8061 56.644 24.8061H73.2899C74.7842 24.8061 76 26.0213 76 27.5149V39.9992C76 41.4939 74.7842 42.7101 73.2901 42.7101ZM56.644 26.0637C55.8432 26.0637 55.1918 26.7146 55.1918 27.5147V39.999C55.1918 40.8005 55.8432 41.4523 56.644 41.4523H73.2899C74.0907 41.4523 74.7422 40.8005 74.7422 39.999V27.5147C74.7422 26.7146 74.0907 26.0637 73.2899 26.0637H56.644ZM73.2901 21.9018H56.644C55.1498 21.9018 53.9341 20.6858 53.9341 19.191V6.7088C53.9341 5.2152 55.1498 4 56.644 4H73.2899C74.7842 4 76 5.21504 76 6.7088V19.191C76 20.6858 74.7842 21.9018 73.2901 21.9018ZM56.644 5.2576C55.8432 5.2576 55.1918 5.90848 55.1918 6.70864V19.1909C55.1918 19.9922 55.8432 20.6442 56.644 20.6442H73.2899C74.0907 20.6442 74.7422 19.9923 74.7422 19.1909V6.7088C74.7422 5.90864 74.0907 5.25776 73.2899 5.25776L56.644 5.2576Z" fill="#FCD535"/>
<path id="Vector_10" d="M45.2051 13.5796H39.9982C39.9157 13.5796 39.8339 13.5634 39.7576 13.5318C39.6813 13.5002 39.612 13.4538 39.5536 13.3955C39.4952 13.3371 39.4489 13.2677 39.4173 13.1915C39.3857 13.1152 39.3694 13.0334 39.3694 12.9508V7.7505C39.3694 7.58374 39.4357 7.4238 39.5536 7.30588C39.6715 7.18795 39.8315 7.1217 39.9982 7.1217C43.1928 7.1217 45.7946 9.70042 45.8306 12.8838C45.84 12.9715 45.8308 13.0603 45.8037 13.1442C45.7765 13.2282 45.732 13.3055 45.673 13.3712C45.614 13.4368 45.5419 13.4893 45.4612 13.5252C45.3806 13.5611 45.2934 13.5797 45.2051 13.5796ZM40.6272 12.322H44.5302C44.2512 10.3027 42.6475 8.70042 40.6272 8.42218V12.322Z" fill="#FCD535"/>
<path id="Vector_11" d="M36.3213 17.2563C36.2388 17.2564 36.1571 17.2403 36.0809 17.2087C36.0047 17.1772 35.9354 17.131 35.8771 17.0727C34.7758 15.9733 34.1693 14.5096 34.1693 12.9511C34.1693 9.73875 36.784 7.12387 39.9981 7.12195H39.9984C40.1651 7.12203 40.325 7.18831 40.4429 7.30621C40.5608 7.42412 40.6271 7.58401 40.6272 7.75075V12.9509C40.6271 13.1177 40.5609 13.2776 40.443 13.3955L36.7659 17.0722C36.7076 17.1307 36.6383 17.177 36.562 17.2086C36.4857 17.2402 36.4039 17.2565 36.3213 17.2563ZM39.3694 8.42291C37.1451 8.73139 35.4267 10.645 35.4267 12.9509C35.4267 13.9608 35.7512 14.9197 36.3509 15.7085L39.3693 12.6904V8.42291H39.3694Z" fill="#FCD535"/>
<path id="Vector_12" d="M40 18.7817C38.4414 18.7817 36.9768 18.1745 35.8762 17.0717C35.7584 16.9537 35.6924 16.7938 35.6925 16.6272C35.6925 16.4605 35.7588 16.3007 35.8766 16.1829L39.5538 12.5062C39.6121 12.4478 39.6814 12.4015 39.7577 12.3699C39.8339 12.3383 39.9157 12.3221 39.9982 12.3221H45.2019C45.2845 12.322 45.3663 12.3383 45.4426 12.3699C45.5189 12.4015 45.5882 12.4478 45.6467 12.5062C45.7051 12.5646 45.7514 12.6339 45.783 12.7102C45.8146 12.7865 45.8309 12.8683 45.8309 12.9509C45.8309 16.1661 43.2152 18.7817 40 18.7817ZM37.2402 16.5977C38.0301 17.1987 38.9898 17.5241 40 17.5241C42.3083 17.5241 44.2229 15.8049 44.5301 13.5797H40.2587L37.2402 16.5977ZM68.0898 39.5883H61.847C61.6803 39.5883 61.5203 39.5221 61.4024 39.4041C61.2845 39.2862 61.2182 39.1263 61.2182 38.9595V36.8795C61.2182 36.7127 61.2845 36.5528 61.4024 36.4349C61.5203 36.317 61.6803 36.2507 61.847 36.2507H63.2986V31.2662H62.4758V32.7155C62.4758 32.7981 62.4596 32.8799 62.428 32.9562C62.3963 33.0325 62.35 33.1018 62.2916 33.1602C62.2332 33.2186 62.1639 33.2649 62.0876 33.2965C62.0112 33.3281 61.9295 33.3443 61.8469 33.3443H59.7666C59.684 33.3443 59.6022 33.3281 59.5259 33.2965C59.4496 33.2649 59.3802 33.2186 59.3218 33.1602C59.2634 33.1018 59.2171 33.0325 59.1855 32.9562C59.1539 32.8799 59.1376 32.7981 59.1376 32.7155V28.5558C59.1376 28.4732 59.1539 28.3915 59.1855 28.3152C59.2171 28.2389 59.2634 28.1695 59.3218 28.1111C59.3802 28.0528 59.4496 28.0064 59.5259 27.9748C59.6022 27.9433 59.684 27.927 59.7666 27.927H70.168C70.2506 27.927 70.3324 27.9433 70.4087 27.9748C70.485 28.0064 70.5543 28.0528 70.6127 28.1111C70.6711 28.1695 70.7175 28.2389 70.7491 28.3152C70.7807 28.3915 70.797 28.4732 70.797 28.5558V32.7155C70.797 32.7981 70.7807 32.8799 70.7491 32.9562C70.7175 33.0325 70.6711 33.1018 70.6127 33.1602C70.5543 33.2186 70.485 33.2649 70.4087 33.2965C70.3324 33.3281 70.2506 33.3443 70.168 33.3443H68.0896C68.007 33.3443 67.9253 33.328 67.849 33.2964C67.7727 33.2648 67.7034 33.2185 67.645 33.1601C67.5866 33.1017 67.5403 33.0324 67.5087 32.9561C67.4771 32.8799 67.4608 32.7981 67.4608 32.7155V31.2662H66.6373V36.2507H68.0896C68.2564 36.2507 68.4163 36.317 68.5342 36.4349C68.6521 36.5528 68.7184 36.7127 68.7184 36.8795V38.9595C68.7184 39.1263 68.6522 39.2862 68.5343 39.4041C68.4164 39.522 68.2565 39.5883 68.0898 39.5883ZM62.476 38.3305H67.461V37.5083H66.0086C65.926 37.5083 65.8443 37.4921 65.768 37.4605C65.6916 37.4289 65.6223 37.3826 65.5639 37.3242C65.5055 37.2658 65.4592 37.1965 65.4276 37.1202C65.3959 37.0439 65.3797 36.9621 65.3797 36.8795V30.6373C65.3797 30.5547 65.3959 30.4729 65.4276 30.3966C65.4592 30.3203 65.5055 30.251 65.5639 30.1926C65.6223 30.1342 65.6916 30.0879 65.768 30.0563C65.8443 30.0247 65.926 30.0084 66.0086 30.0085H68.0898C68.2565 30.0085 68.4165 30.0747 68.5344 30.1926C68.6523 30.3106 68.7186 30.4705 68.7186 30.6373V32.0865H69.5395V29.1845H60.3957V32.0865H61.2186V30.6373C61.2186 30.4705 61.2848 30.3106 61.4027 30.1926C61.5207 30.0747 61.6806 30.0085 61.8474 30.0085H63.9278C64.0946 30.0085 64.2545 30.0747 64.3725 30.1926C64.4904 30.3106 64.5566 30.4705 64.5566 30.6373V36.8795C64.5566 37.0463 64.4904 37.2062 64.3725 37.3241C64.2545 37.4421 64.0946 37.5083 63.9278 37.5083H62.4763V38.3305H62.476ZM9.83008 12.5397C8.336 12.5397 7.12048 11.3241 7.12048 9.83007C7.12048 8.33599 8.336 7.12047 9.83008 7.12047C11.3242 7.12047 12.5397 8.33599 12.5397 9.83007C12.5397 11.3241 11.324 12.5397 9.83008 12.5397ZM9.83008 8.37807C9.0296 8.37807 8.37824 9.02943 8.37824 9.82991C8.37824 10.6305 9.0296 11.2819 9.83008 11.2819C10.6307 11.2819 11.2821 10.6305 11.2821 9.82991C11.2819 9.02943 10.6306 8.37807 9.83008 8.37807ZM23.355 21.9017H8.78944C8.67266 21.9017 8.55819 21.8692 8.45886 21.8078C8.35952 21.7464 8.27925 21.6586 8.22702 21.5542C8.1748 21.4497 8.15269 21.3328 8.16318 21.2165C8.17367 21.1002 8.21633 20.9891 8.2864 20.8957L17.6482 8.41215C17.7067 8.33399 17.7827 8.27055 17.87 8.22686C17.9573 8.18316 18.0536 8.16041 18.1513 8.16041C18.2489 8.16041 18.3452 8.18316 18.4326 8.22686C18.5199 8.27055 18.5958 8.33399 18.6544 8.41215L25.9371 18.1232C26.0187 18.232 26.0629 18.3645 26.0629 18.5005V19.1909C26.0629 20.6857 24.848 21.9017 23.355 21.9017ZM10.0469 20.6441H23.3549C24.1546 20.6441 24.805 19.9923 24.805 19.1909V18.7101L18.151 9.83743L10.0469 20.6441ZM72.2502 18.7827H69.1293C69.0467 18.7827 68.9649 18.7665 68.8886 18.7349C68.8123 18.7033 68.7429 18.657 68.6845 18.5986C68.6261 18.5402 68.5798 18.4709 68.5482 18.3946C68.5166 18.3183 68.5003 18.2365 68.5003 18.1539V9.83007C68.5003 9.74748 68.5166 9.6657 68.5482 9.5894C68.5798 9.5131 68.6261 9.44377 68.6845 9.38538C68.7429 9.32699 68.8123 9.28068 68.8886 9.24909C68.9649 9.21749 69.0467 9.20125 69.1293 9.20127H72.2502C72.417 9.20127 72.5769 9.26751 72.6949 9.38544C72.8128 9.50336 72.879 9.6633 72.879 9.83007V18.1539C72.879 18.3207 72.8128 18.4806 72.6949 18.5985C72.5769 18.7165 72.417 18.7827 72.2502 18.7827ZM69.7581 17.5249H71.6214V10.4589H69.7581V17.5249ZM66.5285 18.7817H63.4075C63.3249 18.7818 63.2431 18.7655 63.1668 18.7339C63.0905 18.7023 63.0212 18.656 62.9628 18.5976C62.9044 18.5392 62.858 18.4699 62.8264 18.3936C62.7948 18.3173 62.7786 18.2355 62.7786 18.1529V11.9107C62.7786 11.8281 62.7948 11.7463 62.8264 11.67C62.858 11.5937 62.9044 11.5244 62.9628 11.466C63.0212 11.4076 63.0905 11.3613 63.1668 11.3297C63.2431 11.2981 63.3249 11.2819 63.4075 11.2819H66.5285C66.6111 11.2819 66.6928 11.2982 66.7691 11.3298C66.8454 11.3614 66.9147 11.4077 66.9731 11.4661C67.0315 11.5245 67.0778 11.5938 67.1094 11.6701C67.141 11.7464 67.1573 11.8281 67.1573 11.9107V18.1528C67.1573 18.3196 67.091 18.4795 66.9731 18.5975C66.8552 18.7154 66.6953 18.7817 66.5285 18.7817ZM64.0363 17.5241H65.8997V12.5397H64.0363V17.5241ZM60.8048 18.7827H57.6846C57.602 18.7827 57.5203 18.7665 57.444 18.7349C57.3677 18.7033 57.2983 18.657 57.2399 18.5986C57.1815 18.5402 57.1352 18.4709 57.1036 18.3946C57.0719 18.3183 57.0557 18.2365 57.0557 18.1539V7.74831C57.0557 7.66572 57.0719 7.58394 57.1036 7.50764C57.1352 7.43134 57.1815 7.36201 57.2399 7.30362C57.2983 7.24523 57.3677 7.19892 57.444 7.16733C57.5203 7.13573 57.602 7.11949 57.6846 7.11951H60.8048C60.9716 7.11951 61.1315 7.18576 61.2494 7.30368C61.3673 7.4216 61.4336 7.58154 61.4336 7.74831V18.1537C61.4336 18.2363 61.4174 18.3181 61.3858 18.3944C61.3542 18.4707 61.3079 18.5401 61.2495 18.5985C61.1911 18.6569 61.1218 18.7032 61.0455 18.7348C60.9692 18.7664 60.8874 18.7827 60.8048 18.7827ZM58.3134 17.5249H60.176V8.37711H58.3134V17.5249ZM39.9982 28.1435C39.8315 28.1435 39.6715 28.0773 39.5536 27.9593C39.4357 27.8414 39.3694 27.6815 39.3694 27.5147V21.2728C39.3694 21.106 39.4357 20.946 39.5536 20.8281C39.6716 20.7102 39.8315 20.6439 39.9983 20.6439C40.1651 20.6439 40.3251 20.7102 40.443 20.8281C40.5609 20.946 40.6272 21.106 40.6272 21.2728V27.5147C40.6272 27.5973 40.6109 27.6791 40.5793 27.7554C40.5477 27.8317 40.5014 27.901 40.443 27.9594C40.3846 28.0178 40.3152 28.0641 40.2389 28.0957C40.1626 28.1273 40.0808 28.1435 39.9982 28.1435ZM64.967 26.0621C64.8003 26.0621 64.6403 25.9958 64.5224 25.8779C64.4045 25.76 64.3382 25.6 64.3382 25.4333V21.2729C64.3382 21.1062 64.4045 20.9462 64.5224 20.8283C64.6404 20.7103 64.8003 20.6441 64.9671 20.6441C65.1339 20.6441 65.2939 20.7103 65.4118 20.8283C65.5297 20.9462 65.596 21.1062 65.596 21.2729V25.4333C65.596 25.5159 65.5797 25.5976 65.5481 25.6739C65.5165 25.7502 65.4702 25.8196 65.4118 25.878C65.3534 25.9363 65.284 25.9827 65.2077 26.0142C65.1314 26.0458 65.0496 26.0621 64.967 26.0621ZM27.5147 34.3857C27.3479 34.3857 27.188 34.3195 27.0701 34.2016C26.9522 34.0837 26.8859 33.9237 26.8859 33.757V27.5147C26.8859 27.3479 26.9522 27.188 27.0701 27.0701C27.188 26.9522 27.3479 26.8859 27.5147 26.8859C27.6815 26.8859 27.8414 26.9522 27.9593 27.0701C28.0773 27.188 28.1435 27.3479 28.1435 27.5147V33.757C28.1435 33.9237 28.0773 34.0837 27.9593 34.2016C27.8414 34.3195 27.6815 34.3857 27.5147 34.3857Z" fill="#FCD535"/>
<path id="Vector_13" d="M46.2419 28.1435H17.1133C15.6187 28.1435 14.4029 26.9276 14.4029 25.4331V21.2727C14.4029 21.106 14.4691 20.946 14.587 20.8281C14.705 20.7102 14.8649 20.6439 15.0317 20.6439C15.1984 20.6439 15.3584 20.7102 15.4763 20.8281C15.5942 20.946 15.6605 21.106 15.6605 21.2727V25.4331C15.6605 26.234 16.3122 26.8859 17.1133 26.8859H46.2419C47.212 26.8859 48.6638 26.2844 49.3486 25.5988L54.7307 20.2179C54.8486 20.0999 55.0086 20.0337 55.1754 20.0337C55.3421 20.0337 55.5021 20.0999 55.62 20.2179C55.7379 20.3358 55.8042 20.4957 55.8042 20.6625C55.8042 20.8293 55.7379 20.9892 55.62 21.1071L50.2382 26.4879C49.3109 27.4163 47.5554 28.1435 46.2419 28.1435Z" fill="#FCD535"/>
</g>
</g>
</svg>
