<svg width="80" height="80" viewBox="0 0 80 80" fill="none" xmlns="http://www.w3.org/2000/svg">
<g id="Frame">
<g id="Group">
<path id="Vector" d="M18.75 66.25H31.25V68.75H18.75V66.25Z" fill="#FCD535"/>
<path id="Vector_2" d="M7.5 8.75C8.19036 8.75 8.75 8.19036 8.75 7.5C8.75 6.80964 8.19036 6.25 7.5 6.25C6.80964 6.25 6.25 6.80964 6.25 7.5C6.25 8.19036 6.80964 8.75 7.5 8.75Z" fill="#FCD535"/>
<path id="Vector_3" d="M16.25 6.25H31.25V8.75H16.25V6.25ZM33.75 26.25C33.5412 26.25 33.33 26.2612 33.1125 26.2825C32.3493 24.0775 30.9162 22.1661 29.0134 20.8155C27.1106 19.465 24.8333 18.7428 22.5 18.75C20.1239 18.7473 17.8082 19.499 15.8866 20.8967C13.965 22.2944 12.5367 24.266 11.8075 26.5275C10.211 26.9439 8.79838 27.8796 7.79221 29.1873C6.78603 30.4949 6.24347 32.1001 6.25 33.75C6.25 37.8862 9.61375 41.25 13.75 41.25H33.75C37.8862 41.25 41.25 37.8862 41.25 33.75C41.25 29.6138 37.8862 26.25 33.75 26.25ZM33.75 38.75H13.75C10.9925 38.75 8.75 36.5075 8.75 33.75C8.74681 32.5567 9.17406 31.4022 9.95335 30.4985C10.7326 29.5948 11.8117 29.0024 12.9925 28.83L13.8163 28.7037L14.0163 27.895C14.4821 25.9974 15.5714 24.3111 17.1096 23.1062C18.6479 21.9013 20.5461 21.2477 22.5 21.25C24.4727 21.2442 26.389 21.9084 27.935 23.1337C29.481 24.3591 30.5652 26.0731 31.01 27.995L31.3 29.2313L32.5312 28.9212C32.995 28.8037 33.3812 28.75 33.75 28.75C36.5075 28.75 38.75 30.9925 38.75 33.75C38.75 36.5075 36.5075 38.75 33.75 38.75ZM19.9113 57.5C19.9113 59.5675 21.5938 61.25 23.6613 61.25C25.7288 61.25 27.4113 59.5675 27.4113 57.5C27.4113 55.4325 25.7288 53.75 23.6613 53.75C21.5938 53.75 19.9113 55.4325 19.9113 57.5ZM24.9113 57.5C24.9113 57.8315 24.7796 58.1495 24.5451 58.3839C24.3107 58.6183 23.9928 58.75 23.6613 58.75C23.3297 58.75 23.0118 58.6183 22.7774 58.3839C22.5429 58.1495 22.4113 57.8315 22.4113 57.5C22.4113 57.1685 22.5429 56.8505 22.7774 56.6161C23.0118 56.3817 23.3297 56.25 23.6613 56.25C23.9928 56.25 24.3107 56.3817 24.5451 56.6161C24.7796 56.8505 24.9113 57.1685 24.9113 57.5ZM29.8487 51.3137C28.1962 49.6612 25.9988 48.75 23.6613 48.75C21.3238 48.75 19.1262 49.6612 17.475 51.3137L19.2425 53.0812C19.8214 52.4991 20.51 52.0375 21.2685 51.7231C22.027 51.4088 22.8402 51.248 23.6613 51.25C25.3313 51.25 26.9012 51.9012 28.0812 53.0812L29.8487 51.3137Z" fill="#FCD535"/>
<path id="Vector_4" d="M13.9375 47.7775L15.705 49.545C20.0925 45.1575 27.2287 45.1575 31.6162 49.545L33.3838 47.7775C28.0225 42.4163 19.2987 42.4163 13.9375 47.7775Z" fill="#FCD535"/>
<path id="Vector_5" d="M71.48 47.5C71.737 48.229 72.2133 48.8607 72.8435 49.3083C73.4737 49.7559 74.227 49.9975 75 50C77.0675 50 78.75 48.3175 78.75 46.25C78.75 44.1825 77.0675 42.5 75 42.5C74.227 42.5025 73.4737 42.7441 72.8435 43.1917C72.2133 43.6393 71.737 44.271 71.48 45H46.25V42.5H58.0175L65.5175 35H71.48C71.737 35.729 72.2133 36.3607 72.8435 36.8083C73.4737 37.2559 74.227 37.4975 75 37.5C77.0675 37.5 78.75 35.8175 78.75 33.75C78.75 31.6825 77.0675 30 75 30C74.227 30.0025 73.4737 30.2441 72.8435 30.6917C72.2133 31.1393 71.737 31.771 71.48 32.5H64.4825L56.9825 40H46.25V31.1712C48.8578 32.8548 51.896 33.7502 55 33.75C63.96 33.75 71.25 26.46 71.25 17.5C71.25 8.54 63.96 1.25 55 1.25C51.4113 1.25 48.1012 2.43375 45.4087 4.4125C44.3175 2.51125 42.2725 1.25 40 1.25H7.5C4.05375 1.25 1.25 4.05375 1.25 7.5V72.5C1.25 75.9463 4.05375 78.75 7.5 78.75H40C43.4463 78.75 46.25 75.9463 46.25 72.5V52.5H56.9825L64.4825 60H71.48C71.737 60.729 72.2133 61.3607 72.8435 61.8083C73.4737 62.2559 74.227 62.4975 75 62.5C77.0675 62.5 78.75 60.8175 78.75 58.75C78.75 56.6825 77.0675 55 75 55C74.227 55.0025 73.4737 55.2441 72.8435 55.6917C72.2133 56.1393 71.737 56.771 71.48 57.5H65.5175L58.0175 50H46.25V47.5H71.48ZM75 45C75.3315 45 75.6495 45.1317 75.8839 45.3661C76.1183 45.6005 76.25 45.9185 76.25 46.25C76.25 46.5815 76.1183 46.8995 75.8839 47.1339C75.6495 47.3683 75.3315 47.5 75 47.5C74.6685 47.5 74.3505 47.3683 74.1161 47.1339C73.8817 46.8995 73.75 46.5815 73.75 46.25C73.75 45.9185 73.8817 45.6005 74.1161 45.3661C74.3505 45.1317 74.6685 45 75 45ZM75 32.5C75.3315 32.5 75.6495 32.6317 75.8839 32.8661C76.1183 33.1005 76.25 33.4185 76.25 33.75C76.25 34.0815 76.1183 34.3995 75.8839 34.6339C75.6495 34.8683 75.3315 35 75 35C74.6685 35 74.3505 34.8683 74.1161 34.6339C73.8817 34.3995 73.75 34.0815 73.75 33.75C73.75 33.4185 73.8817 33.1005 74.1161 32.8661C74.3505 32.6317 74.6685 32.5 75 32.5ZM75 57.5C75.3315 57.5 75.6495 57.6317 75.8839 57.8661C76.1183 58.1005 76.25 58.4185 76.25 58.75C76.25 59.0815 76.1183 59.3995 75.8839 59.6339C75.6495 59.8683 75.3315 60 75 60C74.6685 60 74.3505 59.8683 74.1161 59.6339C73.8817 59.3995 73.75 59.0815 73.75 58.75C73.75 58.4185 73.8817 58.1005 74.1161 57.8661C74.3505 57.6317 74.6685 57.5 75 57.5ZM50.3575 4.57375C49.665 5.7225 49.0788 7.13125 48.6188 8.75H44.4025C45.9782 6.85031 48.0347 5.4081 50.3575 4.57375ZM58.7612 8.75H51.2375C52.225 5.65875 53.6562 3.75 55 3.75C56.3438 3.75 57.775 5.65875 58.7612 8.75ZM68.6862 16.25H62.4725C62.4247 14.5731 62.2538 12.9019 61.9613 11.25H67.2312C68.0338 12.8074 68.5278 14.5052 68.6862 16.25ZM55 31.25C53.6562 31.25 52.225 29.3412 51.2388 26.25H58.7625C57.775 29.3412 56.3438 31.25 55 31.25ZM50.6012 23.75C50.2744 22.1017 50.0821 20.4295 50.0262 18.75H59.9738C59.9173 20.4295 59.725 22.1016 59.3988 23.75H50.6012ZM62.4725 18.75H68.6862C68.5272 20.4947 68.0332 22.1924 67.2312 23.75H61.9613C62.2425 22.2038 62.4163 20.5238 62.4725 18.75ZM59.9738 16.25H50.0262C50.0827 14.5705 50.275 12.8984 50.6012 11.25H59.3988C59.7038 12.7612 59.9087 14.4412 59.9738 16.25ZM42.7675 11.25H48.0375C47.745 12.9019 47.5741 14.5731 47.5262 16.25H41.3125C41.4721 14.5054 41.9661 12.8079 42.7675 11.25ZM47.5275 18.75C47.585 20.5238 47.7575 22.2038 48.0387 23.75H42.7687C41.9674 22.1921 41.4734 20.4946 41.3137 18.75H47.5275ZM48.6188 26.25C49.0788 27.8687 49.665 29.2775 50.3575 30.4263C48.0344 29.5923 45.9779 28.1501 44.4025 26.25H48.6188ZM59.6425 30.4263C60.3338 29.2775 60.9212 27.8687 61.3812 26.25H65.5975C64.0218 28.1497 61.9653 29.5919 59.6425 30.4263ZM65.5987 8.75H61.3825C60.9225 7.13125 60.3363 5.7225 59.6437 4.57375C61.9662 5.40876 64.0225 6.85085 65.5987 8.75ZM7.5 3.75H40C41.5275 3.75 42.8925 4.69625 43.4625 6.0725C41.9877 7.56017 40.8134 9.31804 40.0037 11.25H3.75V7.5C3.75 5.4325 5.4325 3.75 7.5 3.75ZM40 76.25H7.5C5.4325 76.25 3.75 74.5675 3.75 72.5V72.4675C4.82549 73.2948 6.14316 73.7454 7.5 73.75H40C41.4125 73.75 42.7025 73.2612 43.75 72.4675V72.5C43.75 74.5675 42.0675 76.25 40 76.25ZM40 71.25H7.5C5.4325 71.25 3.75 69.5675 3.75 67.5V13.75H39.2038C38.9068 14.978 38.7545 16.2366 38.75 17.5C38.75 22.0938 40.675 26.24 43.75 29.1987V67.5C43.75 69.5675 42.0675 71.25 40 71.25Z" fill="#FCD535"/>
</g>
</g>
</svg>
