<svg width="80" height="80" viewBox="0 0 80 80" fill="none" xmlns="http://www.w3.org/2000/svg">
<g id="Frame">
<g id="Group">
<path id="Vector" d="M78.75 35.2667C78.75 35.0762 78.7064 34.8882 78.6227 34.717C78.5389 34.5459 78.4171 34.3962 78.2666 34.2794L73.4414 30.5334L78.2664 26.7878C78.4169 26.6709 78.5386 26.5212 78.6224 26.3501C78.7061 26.179 78.7497 25.991 78.7497 25.8005C78.7497 25.61 78.7062 25.422 78.6225 25.2509C78.5387 25.0798 78.417 24.93 78.2666 24.8131L48.6109 1.79094C48.3917 1.62079 48.122 1.52844 47.8445 1.52844C47.5669 1.52844 47.2972 1.62079 47.078 1.79094L28.9258 15.8828C27.1239 11.4728 22.7897 8.35625 17.7392 8.35625C11.0778 8.35625 5.65844 13.7756 5.65844 20.4369V22.1195H4.47922C2.69859 22.1195 1.25 23.5681 1.25 25.3487V46.4262C1.25 48.2069 2.69859 49.6553 4.47906 49.6553H22.0045L17.4225 53.2125C17.272 53.3293 17.1502 53.479 17.0664 53.6502C16.9826 53.8213 16.9391 54.0093 16.9391 54.1998C16.9391 54.3904 16.9826 54.5784 17.0664 54.7495C17.1502 54.9206 17.272 55.0703 17.4225 55.1872L47.0781 78.2089C47.3034 78.3839 47.5741 78.4716 47.8445 78.4716C48.115 78.4716 48.3856 78.3839 48.6109 78.2089L78.2664 55.187C78.4169 55.0702 78.5386 54.9205 78.6224 54.7493C78.7061 54.5782 78.7497 54.3902 78.7497 54.1997C78.7497 54.0092 78.7062 53.8212 78.6225 53.6501C78.5387 53.479 78.417 53.3292 78.2666 53.2123L73.4414 49.4664L78.2664 45.7206C78.4169 45.6038 78.5387 45.4541 78.6225 45.2829C78.7063 45.1118 78.7498 44.9238 78.7498 44.7333C78.7498 44.5427 78.7063 44.3547 78.6225 44.1836C78.5387 44.0125 78.4169 43.8628 78.2664 43.7459L73.4412 40L78.2664 36.2542C78.4169 36.1374 78.5388 35.9876 78.6226 35.8165C78.7064 35.6453 78.75 35.4573 78.75 35.2667ZM47.8445 4.36078L75.4616 25.8003L47.8445 47.2397L34.228 36.6694V25.3487C34.228 23.5681 32.7794 22.1195 30.9989 22.1195H29.8197V20.4369C29.8197 19.77 29.763 19.1164 29.6586 18.4786L47.8445 4.36078ZM8.15828 20.4369C8.15828 15.1541 12.4562 10.8563 17.7391 10.8563C23.0219 10.8563 27.3197 15.1542 27.3197 20.4369V22.1195H24.8614V20.4369C24.8614 16.5095 21.6664 13.3144 17.7391 13.3144C13.8117 13.3144 10.6166 16.5095 10.6166 20.4369V22.1195H8.15828V20.4369ZM22.3614 22.1195H13.1166V20.4369C13.1166 17.8881 15.1902 15.8144 17.7391 15.8144C20.288 15.8144 22.3614 17.888 22.3614 20.4369V22.1195ZM3.75 46.4261V25.3487C3.75021 25.1554 3.82708 24.9701 3.96376 24.8334C4.10043 24.6967 4.28575 24.6198 4.47906 24.6195H30.9991C31.1924 24.6198 31.3777 24.6967 31.5144 24.8334C31.651 24.9701 31.7279 25.1554 31.7281 25.3487V46.4262C31.7279 46.6195 31.651 46.8049 31.5144 46.9415C31.3777 47.0782 31.1924 47.1551 30.9991 47.1553H4.47906C4.28576 47.155 4.10047 47.0781 3.9638 46.9414C3.82713 46.8047 3.75025 46.6194 3.75 46.4261ZM75.4616 54.1997L47.8445 75.6391L20.2273 54.1997L24.2861 51.0487L47.0781 68.7425C47.3036 68.9175 47.5741 69.0052 47.8445 69.0052C48.115 69.0052 48.3856 68.9175 48.6109 68.7425L71.4028 51.0487L75.4616 54.1997ZM75.4616 44.7331L47.8445 66.1727L26.5675 49.6552H30.9989C31.9298 49.6552 32.7675 49.2569 33.3573 48.6245L47.078 59.2759C47.3033 59.4509 47.5739 59.5386 47.8444 59.5386C48.1148 59.5386 48.3855 59.4509 48.6108 59.2759L71.4027 41.5823L75.4616 44.7331ZM47.8445 56.7061L34.228 46.1356V39.8341L47.078 49.8095C47.3034 49.9845 47.5739 50.0722 47.8444 50.0722C48.1148 50.0722 48.3855 49.9845 48.6108 49.8095L71.4028 32.1158L75.4614 35.2666L47.8445 56.7061ZM17.7391 27.1167C14.9241 27.1167 12.6339 29.4069 12.6339 32.2219C12.6339 33.7592 13.3077 35.1784 14.4666 36.1417V41.3858C14.4666 43.1902 15.9347 44.6581 17.7389 44.6581C19.5431 44.6581 21.0112 43.19 21.0112 41.3858V36.1417C22.1702 35.1784 22.8439 33.7592 22.8439 32.222C22.8442 29.4069 20.5541 27.1167 17.7391 27.1167ZM19.1047 34.4408C18.9234 34.5528 18.7737 34.7093 18.6699 34.8955C18.5661 35.0816 18.5116 35.2912 18.5116 35.5044V41.3858C18.5116 41.8045 18.1578 42.1581 17.7392 42.1581C17.3206 42.1581 16.9669 41.8044 16.9669 41.3858V35.5044C16.9669 35.2912 16.9123 35.0816 16.8085 34.8955C16.7047 34.7093 16.555 34.5528 16.3736 34.4408C15.5975 33.9616 15.1341 33.132 15.1341 32.2219C15.1341 30.7855 16.3027 29.6167 17.7392 29.6167C19.1758 29.6167 20.3444 30.7853 20.3444 32.2219C20.3442 33.1319 19.8808 33.9616 19.1047 34.4408Z" fill="#FCD535"/>
</g>
</g>
</svg>
