<svg width="80" height="80" viewBox="0 0 80 80" fill="none" xmlns="http://www.w3.org/2000/svg">
<g id="Frame">
<g id="Group">
<path id="Vector" d="M67.1324 3.59375H12.8675C7.99111 3.59375 4.02393 7.56094 4.02393 12.4373V67.5625C4.02393 72.4389 7.99111 76.4062 12.8675 76.4062H67.1325C72.0089 76.4062 75.9763 72.4389 75.9763 67.5625V12.4373C75.9761 7.56094 72.0088 3.59375 67.1324 3.59375ZM73.4761 67.5625C73.4761 71.0605 70.6303 73.9062 67.1324 73.9062H12.8675C9.36971 73.9062 6.52393 71.0605 6.52393 67.5625V12.4373C6.52393 8.93953 9.36971 6.09375 12.8675 6.09375H67.1325C70.6305 6.09375 73.4763 8.93953 73.4763 12.4373L73.4761 67.5625ZM26.1988 18.1217H17.6386C15.2263 18.1217 13.2636 20.0844 13.2636 22.4966V31.0567C13.2636 33.4691 15.2263 35.4317 17.6386 35.4317H26.1988C28.6111 35.4317 30.5738 33.4691 30.5738 31.0567V22.4966C30.5738 20.0844 28.6111 18.1217 26.1988 18.1217ZM28.0738 31.0569C28.0738 32.0908 27.2327 32.9319 26.1988 32.9319H17.6386C16.6047 32.9319 15.7636 32.0908 15.7636 31.0569V22.4967C15.7636 21.463 16.6047 20.6219 17.6386 20.6219H26.1988C27.2327 20.6219 28.0738 21.463 28.0738 22.4967V31.0569ZM26.1346 23.6714C26.2506 23.7875 26.3427 23.9252 26.4056 24.0769C26.4684 24.2285 26.5007 24.3911 26.5008 24.5552C26.5008 24.7193 26.4685 24.8819 26.4056 25.0335C26.3428 25.1852 26.2508 25.323 26.1347 25.4391L21.6919 29.882C21.5758 29.9981 21.438 30.0902 21.2864 30.1531C21.1347 30.2159 20.9722 30.2482 20.808 30.2482C20.6438 30.2482 20.4813 30.2159 20.3296 30.1531C20.1779 30.0902 20.0401 29.9981 19.9241 29.882L17.7027 27.6605C17.5866 27.5444 17.4945 27.4066 17.4317 27.2549C17.3689 27.1033 17.3366 26.9408 17.3366 26.7766C17.3366 26.6125 17.369 26.4499 17.4318 26.2983C17.4947 26.1466 17.5867 26.0089 17.7028 25.8928C17.9373 25.6585 18.2552 25.5269 18.5867 25.5269C18.9182 25.5269 19.2361 25.6586 19.4705 25.893L20.808 27.2306L24.3667 23.6717C24.4828 23.5556 24.6206 23.4635 24.7722 23.4007C24.9239 23.3378 25.0864 23.3055 25.2506 23.3054C25.4147 23.3054 25.5773 23.3377 25.729 23.4005C25.8806 23.4633 26.0185 23.5553 26.1346 23.6714ZM35.7802 19.3717C35.7802 19.0402 35.9119 18.7223 36.1463 18.4878C36.3807 18.2534 36.6987 18.1217 37.0302 18.1217H50.1802C50.5117 18.1217 50.8296 18.2534 51.0641 18.4878C51.2985 18.7223 51.4302 19.0402 51.4302 19.3717C51.4302 19.7032 51.2985 20.0212 51.0641 20.2556C50.8296 20.49 50.5117 20.6217 50.1802 20.6217H37.0302C36.6987 20.6217 36.3807 20.49 36.1463 20.2556C35.9119 20.0212 35.7802 19.7032 35.7802 19.3717ZM66.7363 26.7767C66.7363 27.1082 66.6046 27.4262 66.3702 27.6606C66.1357 27.895 65.8178 28.0267 65.4863 28.0267H37.0302C36.6987 28.0267 36.3807 27.895 36.1463 27.6606C35.9119 27.4262 35.7802 27.1082 35.7802 26.7767C35.7802 26.4452 35.9119 26.1273 36.1463 25.8928C36.3807 25.6584 36.6987 25.5267 37.0302 25.5267H65.4863C65.8178 25.5267 66.1357 25.6584 66.3702 25.8928C66.6046 26.1273 66.7363 26.4452 66.7363 26.7767ZM66.7363 34.1819C66.7363 34.5134 66.6046 34.8313 66.3702 35.0658C66.1357 35.3002 65.8178 35.4319 65.4863 35.4319H37.0302C36.6987 35.4319 36.3807 35.3002 36.1463 35.0658C35.9119 34.8313 35.7802 34.5134 35.7802 34.1819C35.7802 33.8504 35.9119 33.5324 36.1463 33.298C36.3807 33.0636 36.6987 32.9319 37.0302 32.9319H65.4863C65.8178 32.9319 66.1357 33.0636 66.3702 33.298C66.6046 33.5324 66.7363 33.8504 66.7363 34.1819ZM26.1988 44.5681H17.6386C15.2263 44.5681 13.2636 46.5308 13.2636 48.943V57.5031C13.2636 59.9155 15.2263 61.8781 17.6386 61.8781H26.1988C28.6111 61.8781 30.5738 59.9155 30.5738 57.5031V48.943C30.5738 46.5308 28.6111 44.5681 26.1988 44.5681ZM28.0738 57.5033C28.0738 58.5372 27.2327 59.3783 26.1988 59.3783H17.6386C16.6047 59.3783 15.7636 58.5372 15.7636 57.5033V48.9431C15.7636 47.9094 16.6047 47.0683 17.6386 47.0683H26.1988C27.2327 47.0683 28.0738 47.9094 28.0738 48.9431V57.5033ZM35.7802 45.8181C35.7802 45.4866 35.9119 45.1687 36.1463 44.9342C36.3807 44.6998 36.6987 44.5681 37.0302 44.5681H50.1802C50.5117 44.5681 50.8296 44.6998 51.0641 44.9342C51.2985 45.1687 51.4302 45.4866 51.4302 45.8181C51.4302 46.1496 51.2985 46.4676 51.0641 46.702C50.8296 46.9364 50.5117 47.0681 50.1802 47.0681H37.0302C36.6987 47.0681 36.3807 46.9364 36.1463 46.702C35.9119 46.4676 35.7802 46.1496 35.7802 45.8181ZM66.7363 53.2231C66.7363 53.5546 66.6046 53.8726 66.3702 54.107C66.1357 54.3414 65.8178 54.4731 65.4863 54.4731H37.0302C36.6987 54.4731 36.3807 54.3414 36.1463 54.107C35.9119 53.8726 35.7802 53.5546 35.7802 53.2231C35.7802 52.8916 35.9119 52.5737 36.1463 52.3392C36.3807 52.1048 36.6987 51.9731 37.0302 51.9731H65.4863C65.8178 51.9731 66.1357 52.1048 66.3702 52.3392C66.6046 52.5737 66.7363 52.8916 66.7363 53.2231ZM66.7363 60.6283C66.7363 60.9598 66.6046 61.2777 66.3702 61.5122C66.1357 61.7466 65.8178 61.8783 65.4863 61.8783H37.0302C36.6987 61.8783 36.3807 61.7466 36.1463 61.5122C35.9119 61.2777 35.7802 60.9598 35.7802 60.6283C35.7802 60.2968 35.9119 59.9788 36.1463 59.7444C36.3807 59.51 36.6987 59.3783 37.0302 59.3783H65.4863C65.8178 59.3783 66.1357 59.51 66.3702 59.7444C66.6046 59.9788 66.7363 60.2968 66.7363 60.6283ZM26.1347 50.1178C26.2508 50.2339 26.3429 50.3717 26.4057 50.5233C26.4685 50.675 26.5008 50.8376 26.5008 51.0017C26.5008 51.1659 26.4685 51.3284 26.4057 51.4801C26.3429 51.6317 26.2508 51.7696 26.1347 51.8856L21.6919 56.3284C21.4477 56.5725 21.128 56.6945 20.808 56.6945C20.488 56.6945 20.1681 56.5725 19.9241 56.3284L17.7027 54.107C17.4683 53.8726 17.3366 53.5547 17.3366 53.2231C17.3366 52.8916 17.4683 52.5736 17.7027 52.3392C17.9371 52.1048 18.2551 51.9731 18.5866 51.9731C18.9181 51.9731 19.2361 52.1048 19.4705 52.3392L20.808 53.6769L24.3667 50.118C24.6012 49.8837 24.9192 49.752 25.2507 49.752C25.5822 49.752 25.9002 49.8835 26.1347 50.1178Z" fill="#FCD535"/>
</g>
</g>
</svg>
