<svg width="80" height="80" viewBox="0 0 80 80" fill="none" xmlns="http://www.w3.org/2000/svg">
<g id="Frame">
<g id="Group">
<path id="Vector" d="M27.5 25H42.5V27.5H27.5V25ZM45 25H47.5V27.5H45V25ZM50 25H52.5V27.5H50V25ZM27.5 35H42.5V37.5H27.5V35ZM45 35H47.5V37.5H45V35ZM50 35H52.5V37.5H50V35ZM27.5 45H42.5V47.5H27.5V45ZM45 45H47.5V47.5H45V45ZM50 45H52.5V47.5H50V45Z" fill="#fcd535"/>
<path id="Vector_2" d="M72.5 53.75C71.3918 53.7514 70.3154 54.1202 69.4393 54.7988C68.5632 55.4774 67.9368 56.4274 67.6583 57.5H53.75V52.5C54.7442 52.4988 55.6974 52.1033 56.4004 51.4003C57.1034 50.6973 57.4988 49.7442 57.5 48.75V45H65C66.7269 44.9987 68.4349 44.6396 70.0161 43.9454C71.5973 43.2511 73.0175 42.2368 74.1872 40.9663C75.3568 39.6957 76.2506 38.1967 76.812 36.5635C77.3734 34.9304 77.5903 33.1987 77.449 31.4775C77.3078 29.7564 76.8114 28.0832 75.9913 26.5634C75.1711 25.0437 74.0449 23.7104 72.6838 22.6476C71.3227 21.5848 69.7561 20.8155 68.0828 20.3884C66.4095 19.9612 64.6659 19.8854 62.9619 20.1657C61.7391 15.5529 59.1553 11.4153 55.5471 8.29197C51.939 5.16868 47.4738 3.20454 42.7333 2.65546C37.9928 2.10638 33.1969 2.99782 28.9703 5.21363C24.7437 7.42943 21.2825 10.8669 19.0377 15.0781C18.5268 15.0261 18.0135 15 17.5 15C13.5218 15 9.70644 16.5803 6.8934 19.3934C4.08035 22.2064 2.5 26.0217 2.5 30C2.5 33.9782 4.08035 37.7935 6.8934 40.6066C9.70644 43.4196 13.5218 45 17.5 45H22.5V48.75C22.5012 49.7442 22.8966 50.6973 23.5996 51.4003C24.3026 52.1033 25.2558 52.4988 26.25 52.5V57.5H12.3417C12.0375 56.3216 11.3139 55.2947 10.3067 54.6117C9.29949 53.9287 8.07774 53.6365 6.87047 53.7898C5.6632 53.9431 4.5533 54.5315 3.74882 55.4447C2.94433 56.3578 2.50049 57.533 2.50049 58.75C2.50049 59.9669 2.94433 61.1421 3.74882 62.0552C4.5533 62.9684 5.6632 63.5568 6.87047 63.7101C8.07774 63.8634 9.29949 63.5712 10.3067 62.8882C11.3139 62.2052 12.0375 61.1783 12.3417 60H27.5C27.8315 60 28.1495 59.8683 28.3839 59.6338C28.6183 59.3994 28.75 59.0815 28.75 58.75V52.5H31.25V62.5H21.25C20.9185 62.5 20.6005 62.6317 20.3661 62.8661C20.1317 63.1005 20 63.4184 20 63.75V67.6582C18.8217 67.9625 17.7948 68.686 17.1117 69.6932C16.4287 70.7005 16.1365 71.9222 16.2899 73.1295C16.4432 74.3368 17.0316 75.4467 17.9447 76.2511C18.8578 77.0556 20.033 77.4995 21.25 77.4995C22.467 77.4995 23.6422 77.0556 24.5553 76.2511C25.4684 75.4467 26.0568 74.3368 26.2101 73.1295C26.3635 71.9222 26.0713 70.7005 25.3883 69.6932C24.7052 68.686 23.6783 67.9625 22.5 67.6582V65H32.5C32.8315 65 33.1495 64.8683 33.3839 64.6338C33.6183 64.3994 33.75 64.0815 33.75 63.75V52.5H38.75V65.1582C37.5717 65.4625 36.5448 66.186 35.8617 67.1932C35.1787 68.2005 34.8865 69.4222 35.0399 70.6295C35.1932 71.8368 35.7816 72.9467 36.6947 73.7511C37.6078 74.5556 38.783 74.9995 40 74.9995C41.217 74.9995 42.3922 74.5556 43.3053 73.7511C44.2184 72.9467 44.8068 71.8368 44.9602 70.6295C45.1135 69.4222 44.8213 68.2005 44.1383 67.1932C43.4552 66.186 42.4283 65.4625 41.25 65.1582V52.5H46.25V63.75C46.25 64.0815 46.3817 64.3994 46.6161 64.6338C46.8505 64.8683 47.1685 65 47.5 65H57.5V67.6582C56.3217 67.9625 55.2948 68.686 54.6117 69.6932C53.9287 70.7005 53.6365 71.9222 53.7898 73.1295C53.9432 74.3368 54.5316 75.4467 55.4447 76.2511C56.3578 77.0556 57.533 77.4995 58.75 77.4995C59.967 77.4995 61.1422 77.0556 62.0553 76.2511C62.9684 75.4467 63.5568 74.3368 63.7102 73.1295C63.8635 71.9222 63.5713 70.7005 62.8883 69.6932C62.2052 68.686 61.1783 67.9625 60 67.6582V63.75C60 63.4184 59.8683 63.1005 59.6339 62.8661C59.3995 62.6317 59.0815 62.5 58.75 62.5H48.75V52.5H51.25V58.75C51.25 59.0815 51.3817 59.3994 51.6161 59.6338C51.8505 59.8683 52.1685 60 52.5 60H67.6583C67.8921 60.9054 68.3751 61.7271 69.0525 62.3718C69.7299 63.0165 70.5745 63.4583 71.4904 63.6471C72.4063 63.8358 73.3568 63.7639 74.2339 63.4395C75.111 63.1151 75.8795 62.5513 76.4522 61.812C77.0249 61.0727 77.3788 60.1877 77.4737 59.2574C77.5686 58.327 77.4007 57.3888 76.9891 56.5491C76.5774 55.7094 75.9386 55.002 75.1451 54.5072C74.3515 54.0124 73.4352 53.75 72.5 53.75ZM7.5 61.25C7.00555 61.25 6.5222 61.1033 6.11107 60.8286C5.69995 60.5539 5.37952 60.1635 5.1903 59.7067C5.00108 59.2498 4.95157 58.7472 5.04804 58.2622C5.1445 57.7773 5.3826 57.3318 5.73223 56.9822C6.08186 56.6326 6.52732 56.3945 7.01227 56.298C7.49723 56.2015 7.99989 56.251 8.45671 56.4403C8.91352 56.6295 9.30397 56.9499 9.57867 57.361C9.85338 57.7722 10 58.2555 10 58.75C9.99921 59.4128 9.73557 60.0482 9.2669 60.5169C8.79823 60.9855 8.1628 61.2492 7.5 61.25ZM23.75 72.5C23.75 72.9944 23.6034 73.4778 23.3287 73.8889C23.054 74.3 22.6635 74.6204 22.2067 74.8097C21.7499 74.9989 21.2472 75.0484 20.7623 74.9519C20.2773 74.8555 19.8319 74.6174 19.4822 74.2677C19.1326 73.9181 18.8945 73.4726 18.798 72.9877C18.7016 72.5027 18.7511 72.0001 18.9403 71.5433C19.1295 71.0864 19.45 70.696 19.8611 70.4213C20.2722 70.1466 20.7555 70 21.25 70C21.9128 70.0007 22.5482 70.2644 23.0169 70.7331C23.4856 71.2017 23.7492 71.8372 23.75 72.5ZM42.5 70C42.5 70.4944 42.3534 70.9778 42.0787 71.3889C41.804 71.8 41.4135 72.1204 40.9567 72.3097C40.4999 72.4989 39.9972 72.5484 39.5123 72.4519C39.0273 72.3555 38.5819 72.1174 38.2322 71.7677C37.8826 71.4181 37.6445 70.9726 37.548 70.4877C37.4516 70.0027 37.5011 69.5001 37.6903 69.0433C37.8795 68.5864 38.2 68.196 38.6111 67.9213C39.0222 67.6466 39.5055 67.5 40 67.5C40.6628 67.5007 41.2982 67.7644 41.7669 68.2331C42.2356 68.7017 42.4992 69.3372 42.5 70ZM61.25 72.5C61.25 72.9944 61.1034 73.4778 60.8287 73.8889C60.554 74.3 60.1635 74.6204 59.7067 74.8097C59.2499 74.9989 58.7472 75.0484 58.2623 74.9519C57.7773 74.8555 57.3319 74.6174 56.9822 74.2677C56.6326 73.9181 56.3945 73.4726 56.298 72.9877C56.2016 72.5027 56.2511 72.0001 56.4403 71.5433C56.6295 71.0864 56.95 70.696 57.3611 70.4213C57.7722 70.1466 58.2555 70 58.75 70C59.4128 70.0007 60.0482 70.2644 60.5169 70.7331C60.9856 71.2017 61.2492 71.8372 61.25 72.5ZM25 28.75V23.75C25.0004 23.4185 25.1322 23.1008 25.3665 22.8665C25.6009 22.6321 25.9186 22.5003 26.25 22.5H53.75C54.0814 22.5003 54.3991 22.6321 54.6335 22.8665C54.8678 23.1008 54.9996 23.4185 55 23.75V28.75C54.9996 29.0814 54.8678 29.3991 54.6335 29.6334C54.3991 29.8678 54.0814 29.9996 53.75 30H26.25C25.9186 29.9996 25.6009 29.8678 25.3665 29.6334C25.1322 29.3991 25.0004 29.0814 25 28.75ZM25 38.75V33.75C25.0004 33.4185 25.1322 33.1008 25.3665 32.8665C25.6009 32.6321 25.9186 32.5003 26.25 32.5H53.75C54.0814 32.5003 54.3991 32.6321 54.6335 32.8665C54.8678 33.1008 54.9996 33.4185 55 33.75V38.75C54.9996 39.0814 54.8678 39.3991 54.6335 39.6334C54.3991 39.8678 54.0814 39.9996 53.75 40H26.25C25.9186 39.9996 25.6009 39.8678 25.3665 39.6334C25.1322 39.3991 25.0004 39.0814 25 38.75ZM5 30C5.00376 26.6859 6.32193 23.5087 8.66532 21.1653C11.0087 18.8219 14.1859 17.5037 17.5 17.5C18.1857 17.4998 18.8702 17.5554 19.5469 17.6662C19.8128 17.7103 20.0858 17.6671 20.3252 17.5432C20.5646 17.4193 20.7574 17.2213 20.875 16.9787C22.8106 12.9883 25.946 9.70324 29.8419 7.5838C33.7379 5.46437 38.1992 4.61669 42.601 5.15951C47.0028 5.70233 51.1245 7.60846 54.3888 10.6109C57.6531 13.6133 59.8965 17.5616 60.8047 21.9028C60.8395 22.0701 60.9082 22.2285 61.0066 22.3683C61.105 22.508 61.231 22.626 61.3768 22.7152C61.5227 22.8043 61.6852 22.8625 61.8545 22.8863C62.0237 22.9101 62.196 22.899 62.3608 22.8535C63.7358 22.4779 65.1752 22.4005 66.5825 22.6265C67.9898 22.8526 69.3326 23.3769 70.5207 24.1643C71.7089 24.9517 72.7149 25.984 73.4715 27.1921C74.2281 28.4001 74.7177 29.7559 74.9074 31.1686C75.0972 32.5812 74.9828 34.0182 74.5718 35.383C74.1609 36.7479 73.4629 38.0091 72.5247 39.0822C71.5865 40.1552 70.4297 41.0153 69.132 41.6048C67.8342 42.1942 66.4254 42.4995 65 42.5H57.285C57.1212 42.0388 56.8688 41.6142 56.542 41.25C57.1594 40.5637 57.5006 39.673 57.5 38.75V33.75C57.5006 32.8269 57.1594 31.9362 56.542 31.25C57.1594 30.5637 57.5006 29.673 57.5 28.75V23.75C57.4988 22.7557 57.1034 21.8026 56.4004 21.0996C55.6974 20.3966 54.7442 20.0011 53.75 20H26.25C25.2558 20.0011 24.3026 20.3966 23.5996 21.0996C22.8966 21.8026 22.5012 22.7557 22.5 23.75V28.75C22.4994 29.673 22.8406 30.5637 23.458 31.25C22.8406 31.9362 22.4994 32.8269 22.5 33.75V38.75C22.4994 39.673 22.8406 40.5637 23.458 41.25C23.1312 41.6142 22.8788 42.0388 22.715 42.5H17.5C14.1859 42.4962 11.0087 41.178 8.66532 38.8346C6.32193 36.4912 5.00376 33.314 5 30ZM25 48.75V43.75C25.0004 43.4185 25.1322 43.1008 25.3665 42.8665C25.6009 42.6321 25.9186 42.5003 26.25 42.5H53.75C54.0814 42.5003 54.3991 42.6321 54.6335 42.8665C54.8678 43.1008 54.9996 43.4185 55 43.75V48.75C54.9996 49.0814 54.8678 49.3991 54.6335 49.6334C54.3991 49.8678 54.0814 49.9996 53.75 50H26.25C25.9186 49.9996 25.6009 49.8678 25.3665 49.6334C25.1322 49.3991 25.0004 49.0814 25 48.75ZM72.5 61.25C72.0055 61.25 71.5222 61.1033 71.1111 60.8286C70.7 60.5539 70.3795 60.1635 70.1903 59.7067C70.0011 59.2498 69.9516 58.7472 70.048 58.2622C70.1445 57.7773 70.3826 57.3318 70.7322 56.9822C71.0819 56.6326 71.5273 56.3945 72.0123 56.298C72.4972 56.2015 72.9999 56.251 73.4567 56.4403C73.9135 56.6295 74.304 56.9499 74.5787 57.361C74.8534 57.7722 75 58.2555 75 58.75C74.9992 59.4128 74.7356 60.0482 74.2669 60.5169C73.7982 60.9855 73.1628 61.2492 72.5 61.25Z" fill="#fcd535"/>
</g>
</g>
</svg>
