<svg width="80" height="80" viewBox="0 0 80 80" fill="none" xmlns="http://www.w3.org/2000/svg">
<g id="Frame" clip-path="url(#clip0_596_898)">
<g id="Group">
<g id="Group_2">
<path id="Vector" d="M1.96049 49.8547C2.40049 50.1587 2.86182 50.4267 3.34449 50.6547C3.92182 50.9493 4.88716 51.4427 4.95516 51.7893C5.04049 52.244 4.98582 52.7147 4.79916 53.1387C4.60049 53.5653 4.39115 53.932 4.21249 54.2493C3.72316 55.1107 2.90716 56.5547 4.13916 57.5627C4.80859 58.1825 4.98021 59.1671 4.93839 60.0785C4.93217 60.2141 4.93415 60.3504 4.94449 60.4867C5.01516 61.012 5.29782 61.484 5.72716 61.7933C6.02716 62.0067 6.34849 62.1933 6.66049 62.3733C7.44449 62.82 7.75116 63.028 7.86049 63.44C7.93249 63.9827 7.88182 64.5333 7.71382 65.0547C7.63097 65.4005 7.56291 65.7497 7.50982 66.1013C7.37649 67.3173 7.53249 68.548 7.96049 69.6933C8.25191 70.7273 8.86885 71.6398 9.7198 72.2955C10.5707 72.9512 11.6104 73.3151 12.6845 73.3333C13.0512 73.332 13.4152 73.2934 13.7738 73.2187C14.0689 73.1488 14.3636 73.0775 14.658 73.0049C21.3184 71.363 28.7734 72.328 30.4112 78.9893C30.4832 79.2781 30.6498 79.5345 30.8844 79.7177C31.119 79.9008 31.4082 80.0002 31.7058 80L65.1725 79.9067C65.3816 79.9063 65.5877 79.8567 65.7741 79.7619C65.9606 79.6671 66.1221 79.5298 66.2456 79.3611C66.3692 79.1924 66.4513 78.997 66.4854 78.7906C66.5195 78.5843 66.5046 78.3728 66.4418 78.1733C66.1121 77.27 65.6574 76.4173 65.0912 75.64C64.7709 75.1801 64.4822 74.699 64.2272 74.2C63.6245 72.9773 63.1205 71.7067 62.7218 70.404C61.9613 67.8271 61.4334 65.1872 61.1445 62.516C60.6764 58.527 61.2812 54.4853 62.8965 50.808C63.8832 48.768 65.0965 46.848 66.5178 45.084C67.3178 44.004 68.1485 42.8853 68.8938 41.7107C70.1753 39.72 71.1045 37.5234 71.6405 35.2173C71.7142 34.8752 71.6505 34.5178 71.463 34.2223C71.2755 33.9267 70.9794 33.7167 70.6385 33.6376C70.2975 33.5585 69.9392 33.6166 69.6407 33.7994C69.3422 33.9822 69.1276 34.275 69.0432 34.6147C68.5744 36.6273 67.7625 38.5442 66.6432 40.2813C65.9512 41.376 65.1512 42.4533 64.3765 43.496C62.8337 45.4211 61.517 47.5171 60.4525 49.7427C58.6468 53.8553 57.972 58.3754 58.4978 62.836C58.8045 65.6693 59.3685 68.468 60.1792 71.2C60.6172 72.6344 61.1706 74.0309 61.8338 75.376C62.1378 75.976 62.4832 76.556 62.8672 77.1093C62.9054 77.1664 62.8646 77.243 62.796 77.2432L36.0025 77.3235C34.0592 77.3293 32.3919 76.0158 31.5856 74.2477C30.8595 72.6555 29.9385 71.1567 28.8421 69.7864C28.4654 69.3157 28.6497 68.5994 29.2192 68.4013C30.1152 68.088 30.7912 67.852 31.1405 67.7347C36.8498 65.9147 39.7058 63.3147 39.6272 60.0013C39.6253 59.8262 39.5884 59.6531 39.5185 59.4925C39.4486 59.3319 39.3472 59.1869 39.2202 59.0662C39.0933 58.9455 38.9434 58.8514 38.7795 58.7897C38.6155 58.7279 38.4409 58.6997 38.2658 58.7067C37.9124 58.7151 37.5768 58.8635 37.3328 59.1192C37.0887 59.375 36.9563 59.7173 36.9645 60.0707C36.9965 61.4347 35.8725 63.432 30.3298 65.1973C29.9672 65.3133 29.2632 65.5573 28.3418 65.8813C27.3522 66.2263 26.0977 66.6658 24.7128 67.1359C24.7099 67.1369 24.707 67.1373 24.704 67.1373C24.7008 67.1373 24.6976 67.1379 24.6946 67.139C20.9464 68.5132 17.122 69.6702 13.2405 70.604C12.6425 70.7164 12.0241 70.595 11.513 70.2648C11.0019 69.9346 10.6371 69.4207 10.4938 68.8293C10.2071 68.0768 10.0945 67.269 10.1645 66.4667C10.2032 66.2 10.2658 65.92 10.3272 65.648C10.6109 64.7173 10.6568 63.7303 10.4605 62.7773C10.2691 62.1739 9.9503 61.6186 9.52565 61.1491C9.101 60.6796 8.58042 60.3068 7.99916 60.056C7.83803 59.9638 7.77521 59.7615 7.86822 59.6008C7.97593 59.4148 8.09583 59.2359 8.22716 59.0653C8.33772 58.9249 8.41893 58.7637 8.46593 58.5912C8.51294 58.4188 8.52479 58.2386 8.50079 58.0615C8.47678 57.8844 8.41741 57.7139 8.32619 57.5602C8.23498 57.4064 8.11379 57.2726 7.96982 57.1667C7.70959 56.975 7.16306 56.5629 6.6664 56.1757C6.4791 56.0296 6.42334 55.767 6.54449 55.5627C6.75382 55.1947 6.99382 54.7627 7.22582 54.2733C7.64849 53.34 7.77249 52.2973 7.58049 51.2907C7.26182 49.664 5.70316 48.8667 4.56582 48.2853C4.18265 48.1031 3.81518 47.8894 3.46716 47.6467C2.9195 47.2799 2.74676 46.6272 3.12166 46.0851C3.30479 45.8203 3.55651 45.4881 3.89916 45.0707C6.28505 41.9966 8.33036 38.6727 9.99916 35.1573C10.6223 34.0621 10.561 32.6628 9.9467 31.5626C9.93049 31.5336 9.91396 31.5047 9.89711 31.476C9.55971 30.901 9.10303 30.405 8.55782 30.0213C8.35272 29.833 8.15185 29.6488 7.97844 29.4713C7.52388 29.0059 7.40606 28.3137 7.66582 27.7173C7.88316 27.1467 8.13516 26.5867 8.38582 26.0253C8.94849 24.8667 9.39515 23.656 9.71916 22.4107C10.0258 20.9173 10.4258 19.4427 10.9192 18C11.9701 15.099 13.5974 12.4407 15.7032 10.1853C18.2525 7.48534 22.2658 5.57601 27.6525 4.50668C31.7728 3.60207 35.9537 2.99957 40.1618 2.70401C41.5777 2.63105 42.997 2.66135 44.4085 2.79468C44.5832 2.81096 44.7595 2.79267 44.9272 2.74084C45.0948 2.68901 45.2507 2.60466 45.3857 2.49261C45.5208 2.38056 45.6325 2.24301 45.7144 2.08779C45.7963 1.93258 45.8469 1.76276 45.8632 1.58801C45.8794 1.41326 45.8611 1.23702 45.8093 1.06935C45.7575 0.901671 45.6731 0.745846 45.5611 0.610767C45.449 0.475689 45.3115 0.364003 45.1563 0.282087C45.0011 0.20017 44.8312 0.149627 44.6565 0.133343C43.1158 -0.00782843 41.5669 -0.0385736 40.0218 0.041343C35.6832 0.342676 31.3738 0.961343 27.1258 1.89201C21.1138 3.09201 16.7445 5.20001 13.7632 8.35201C11.4089 10.8687 9.58918 13.8365 8.41382 17.076C7.87348 18.6525 7.43481 20.262 7.10049 21.8947C6.81552 22.9417 6.43249 23.9595 5.95649 24.9347C5.68982 25.5413 5.41516 26.148 5.17516 26.7787C4.57209 28.1797 4.8504 29.8707 5.80303 31.0619C6.07955 31.4077 6.40165 31.7186 6.76315 31.9853C7.11527 32.308 7.40271 32.5791 7.59374 32.8182C7.8522 33.1416 7.82842 33.591 7.62582 33.952C6.02948 37.3141 4.07315 40.4932 1.79116 43.4333C0.825822 44.6107 -0.187512 45.9827 0.0244885 47.356C0.308488 48.4147 1.00582 49.316 1.96049 49.8547Z" fill="#FCD535"/>
<path id="Vector_2" d="M15.9157 19.852C16.7184 17.6253 17.9637 15.5853 19.5744 13.852C21.3517 11.9707 24.425 10.5853 28.7104 9.73335C29.0573 9.66457 29.3626 9.4608 29.5593 9.16687C29.756 8.87294 29.8278 8.51292 29.759 8.16602C29.6902 7.81911 29.4865 7.51374 29.1925 7.31708C28.8986 7.12041 28.5386 7.04857 28.1917 7.11735C23.353 8.08002 19.8024 9.72802 17.637 12.016C15.7764 14.013 14.3396 16.366 13.413 18.9333C12.9637 20.2653 12.5997 21.624 12.3184 23.0013L14.9224 23.5787C15.1779 22.3175 15.5096 21.073 15.9157 19.852ZM43.8104 7.46668L43.0104 11.456C42.2397 11.7093 41.489 12.0213 40.765 12.3893L37.3797 10.1227C36.8666 9.78663 36.2533 9.63776 35.6432 9.70115C35.0331 9.76454 34.4635 10.0363 34.0304 10.4707L31.817 12.6827C31.3744 13.1172 31.0971 13.6924 31.0329 14.3094C30.9687 14.9263 31.1215 15.5463 31.465 16.0627L33.721 19.432C33.353 20.156 33.041 20.9067 32.7877 21.6773L28.8037 22.4773C28.1999 22.5993 27.657 22.9265 27.2672 23.4034C26.8773 23.8803 26.6645 24.4774 26.665 25.0933V28.24C26.6646 28.855 26.8767 29.4512 27.2655 29.9277C27.6543 30.4042 28.1958 30.7317 28.7984 30.8547L32.7877 31.6547C33.041 32.4254 33.353 33.176 33.721 33.9L31.4544 37.2854C31.1183 37.7985 30.9694 38.4118 31.0328 39.0219C31.0962 39.632 31.368 40.2016 31.8024 40.6347L34.0157 42.848C34.4511 43.2887 35.026 43.5646 35.6422 43.6285C36.2584 43.6925 36.8777 43.5406 37.3944 43.1987L40.7637 40.9427C41.4877 41.3107 42.2384 41.6227 43.009 41.876L43.809 45.86C43.9307 46.464 44.2578 47.0073 44.7347 47.3974C45.2116 47.7875 45.8089 48.0004 46.425 48H49.5717C50.1867 48.0005 50.7829 47.7883 51.2594 47.3995C51.7359 47.0108 52.0634 46.4692 52.1864 45.8667L52.9864 41.8773C53.757 41.624 54.5077 41.312 55.2317 40.944L58.617 43.2107C59.1302 43.5467 59.7435 43.6956 60.3536 43.6322C60.9637 43.5688 61.5333 43.297 61.9664 42.8627L64.1784 40.6507C64.621 40.2162 64.8983 39.6409 64.9625 39.024C65.0267 38.4071 64.8739 37.7871 64.5304 37.2707L62.2744 33.9014C62.6424 33.1773 62.9544 32.4267 63.2077 31.656L67.1917 30.856C67.9837 30.696 68.6584 30.1854 69.0277 29.4667L71.037 30.8134C71.4237 31.0574 71.873 31.1867 72.3317 31.188C72.6482 31.1881 72.9615 31.1256 73.2537 31.0041C73.546 30.8826 73.8113 30.7045 74.0344 30.48L75.8077 28.7067C76.199 28.3134 76.4434 27.7976 76.4999 27.2457C76.5565 26.6938 76.4218 26.1392 76.1184 25.6747L74.3984 23.1013C74.6479 22.5999 74.8634 22.0823 75.0437 21.552L78.061 20.9507C78.6083 20.8432 79.1011 20.5484 79.4547 20.1169C79.8082 19.6855 80.0005 19.1445 79.9984 18.5867V16.08C80.0003 15.5242 79.8093 14.9849 79.4579 14.5543C79.1066 14.1236 78.6166 13.8283 78.0717 13.7187L75.041 13.1147C74.8622 12.5843 74.6475 12.0666 74.3984 11.5653L76.145 8.96135C76.7504 8.00802 76.6117 6.76135 75.8117 5.96402L74.0384 4.19068C73.6452 3.79915 73.1294 3.55462 72.5774 3.49806C72.0254 3.4415 71.4708 3.57635 71.0064 3.88002L68.433 5.60002C67.9316 5.35053 67.414 5.13493 66.8837 4.95468L66.281 1.93735C66.1736 1.39026 65.8789 0.897662 65.4478 0.544139C65.0167 0.190617 64.4759 -0.00176975 63.9184 1.49556e-05H61.4117C60.8559 -0.00194641 60.3166 0.189067 59.886 0.540446C59.4553 0.891825 59.16 1.38178 59.0504 1.92668L58.4464 4.95735C57.9158 5.13749 57.3982 5.35354 56.897 5.60402L54.293 3.85735C53.8299 3.56402 53.2807 3.43721 52.7358 3.4978C52.191 3.55839 51.6831 3.80277 51.2957 4.19068L50.0957 5.39068C49.9233 5.35473 49.7478 5.33553 49.5717 5.33335H46.425C45.8101 5.33292 45.2138 5.54505 44.7373 5.93383C44.2608 6.32261 43.9334 6.86413 43.8104 7.46668ZM64.1944 12.6933L63.5717 12.0707C64.6974 12.2214 65.7451 12.7294 66.5606 13.5199C67.3761 14.3105 67.9163 15.3419 68.1019 16.4625C68.2874 17.583 68.1084 18.7335 67.5913 19.7447C67.0741 20.7559 66.2461 21.5745 65.229 22.08L63.205 21.68C62.9518 20.9088 62.6398 20.1582 62.2717 19.4347L64.5384 16.0493C64.8756 15.5364 65.0256 14.9228 64.9629 14.3121C64.9002 13.7015 64.6288 13.1311 64.1944 12.6973V12.6933ZM53.0344 6.21868L56.0824 8.26668C56.2918 8.40711 56.5367 8.48528 56.7888 8.49213C57.0408 8.49897 57.2896 8.43421 57.5064 8.30535C58.2696 7.85615 59.0905 7.51299 59.9464 7.28535C60.1861 7.2206 60.403 7.09018 60.5726 6.90879C60.7423 6.72739 60.8578 6.50223 60.9064 6.25868L61.6224 2.66668H63.7077L64.4237 6.26668C64.4722 6.51023 64.5878 6.73539 64.7574 6.91679C64.927 7.09818 65.144 7.2286 65.3837 7.29335C66.2397 7.52002 67.061 7.86402 67.8237 8.31335C68.0412 8.44104 68.2904 8.50443 68.5425 8.49617C68.7945 8.48791 69.0391 8.40833 69.2477 8.26668L72.2957 6.22135L73.7757 7.70135L71.7317 10.7507C71.5913 10.9601 71.5131 11.205 71.5063 11.4571C71.4994 11.7091 71.5642 11.958 71.693 12.1747C72.1424 12.9373 72.485 13.7587 72.713 14.6147C72.7778 14.8544 72.9082 15.0713 73.0896 15.241C73.271 15.4106 73.4962 15.5262 73.7397 15.5747L77.3397 16.2907V18.376L73.7464 19.092C73.5028 19.1405 73.2777 19.2561 73.0963 19.4257C72.9149 19.5954 72.7845 19.8123 72.7197 20.052C72.4921 20.9079 72.1489 21.7288 71.6997 22.492C71.5708 22.7087 71.5061 22.9576 71.5129 23.2096C71.5198 23.4617 71.5979 23.7066 71.7384 23.916L73.7837 26.964L72.3037 28.444L69.3317 26.456V25.0933C69.3317 24.3133 68.9904 23.5707 68.3984 23.0627C69.5457 21.9574 70.3361 20.5339 70.6676 18.9756C70.9992 17.4173 70.8568 15.7955 70.2588 14.3188C69.6608 12.8421 68.6345 11.5782 67.3121 10.6897C65.9896 9.8012 64.4315 9.32882 62.8384 9.33335C62.0322 9.33842 61.2318 9.46979 60.4664 9.72268C59.8149 9.62777 59.1512 9.77379 58.5997 10.1333L55.233 12.3893C54.5095 12.0213 53.7589 11.7093 52.9877 11.456L52.1877 7.47202C52.1641 7.36519 52.1334 7.26006 52.0957 7.15735L53.0344 6.21868ZM45.465 12.7693L46.425 8.00002H49.5717L50.5304 12.7733C50.5792 13.0163 50.6948 13.2407 50.8642 13.4216C51.0335 13.6025 51.2499 13.7326 51.489 13.7973C52.5904 14.0947 53.649 14.5333 54.637 15.104C54.8529 15.2292 55.0995 15.2913 55.3489 15.2833C55.5982 15.2753 55.8404 15.1975 56.0477 15.0587L60.0824 12.36L62.317 14.5827L59.6104 18.6213C59.4716 18.8287 59.3938 19.0708 59.3857 19.3202C59.3777 19.5696 59.4398 19.8162 59.565 20.032C60.1357 21.02 60.5744 22.0787 60.8717 23.18C60.9365 23.4192 61.0666 23.6356 61.2474 23.8049C61.4283 23.9742 61.6528 24.0898 61.8957 24.1387L66.665 25.092V28.24L61.8917 29.1987C61.6488 29.2476 61.4243 29.3631 61.2434 29.5325C61.0626 29.7018 60.9325 29.9182 60.8677 30.1573C60.5707 31.259 60.1315 32.3172 59.561 33.3054C59.4358 33.5212 59.3737 33.7678 59.3817 34.0172C59.3898 34.2665 59.4676 34.5087 59.6064 34.716L62.305 38.7507L60.0824 40.9854L56.0437 38.2787C55.8364 38.1399 55.5942 38.0621 55.3449 38.0541C55.0955 38.046 54.8489 38.1082 54.633 38.2333C53.6449 38.8038 52.5867 39.243 51.485 39.54C51.2459 39.6048 51.0295 39.7349 50.8602 39.9158C50.6908 40.0966 50.5752 40.3211 50.5264 40.564L49.5717 45.3334H46.425L45.4664 40.56C45.4175 40.3171 45.3019 40.0926 45.1326 39.9118C44.9632 39.7309 44.7469 39.6008 44.5077 39.536C43.4061 39.239 42.3478 38.7998 41.3597 38.2294C41.1439 38.1042 40.8973 38.042 40.6479 38.0501C40.3985 38.0581 40.1564 38.1359 39.949 38.2747L35.9144 40.9734L33.6797 38.7507L36.3864 34.712C36.5252 34.5047 36.603 34.2625 36.611 34.0132C36.619 33.7638 36.5569 33.5172 36.4317 33.3013C35.8613 32.3132 35.422 31.255 35.125 30.1533C35.0603 29.9142 34.9302 29.6978 34.7493 29.5285C34.5684 29.3591 34.3439 29.2436 34.101 29.1947L29.3317 28.24V25.0933L34.105 24.1347C34.3479 24.0858 34.5724 23.9702 34.7533 23.8009C34.9342 23.6316 35.0643 23.4152 35.129 23.176C35.4264 22.0747 35.865 21.016 36.4357 20.028C36.5609 19.8122 36.623 19.5656 36.615 19.3162C36.607 19.0668 36.5292 18.8247 36.3904 18.6173L33.6917 14.5827L35.9144 12.348L39.953 15.0547C40.1604 15.1935 40.4025 15.2713 40.6519 15.2793C40.9013 15.2873 41.1479 15.2252 41.3637 15.1C42.3518 14.5296 43.4101 14.0903 44.5117 13.7933C44.7499 13.7277 44.9651 13.5972 45.1335 13.4164C45.3018 13.2356 45.4166 13.0116 45.465 12.7693Z" fill="#FCD535"/>
<path id="Vector_3" d="M47.9991 36C49.8451 36 51.6496 35.4527 53.1844 34.4271C54.7193 33.4015 55.9156 31.9439 56.622 30.2384C57.3284 28.533 57.5132 26.6564 57.1531 24.8459C56.793 23.0354 55.9041 21.3723 54.5988 20.067C53.2935 18.7618 51.6304 17.8728 49.8199 17.5127C48.0095 17.1526 46.1328 17.3374 44.4274 18.0438C42.722 18.7503 41.2643 19.9465 40.2387 21.4814C39.2132 23.0162 38.6658 24.8208 38.6658 26.6667C38.6686 29.1412 39.6528 31.5135 41.4026 33.2633C43.1523 35.013 45.5246 35.9972 47.9991 36ZM47.9991 20C49.7672 20 51.4629 20.7024 52.7132 21.9527C53.9634 23.2029 54.6658 24.8986 54.6658 26.6667C54.6658 28.4348 53.9634 30.1305 52.7132 31.3808C51.4629 32.631 49.7672 33.3334 47.9991 33.3334C46.231 33.3334 44.5353 32.631 43.2851 31.3808C42.0348 30.1305 41.3324 28.4348 41.3324 26.6667C41.3324 24.8986 42.0348 23.2029 43.2851 21.9527C44.5353 20.7024 46.231 20 47.9991 20Z" fill="#FCD535"/>
<path id="Vector_4" d="M47.9991 28C48.7355 28 49.3324 27.4031 49.3324 26.6667C49.3324 25.9303 48.7355 25.3334 47.9991 25.3334C47.2627 25.3334 46.6658 25.9303 46.6658 26.6667C46.6658 27.4031 47.2627 28 47.9991 28Z" fill="#FCD535"/>
<path id="Vector_5" d="M11.9991 29.3333C12.7355 29.3333 13.3324 28.7363 13.3324 28C13.3324 27.2636 12.7355 26.6666 11.9991 26.6666C11.2627 26.6666 10.6658 27.2636 10.6658 28C10.6658 28.7363 11.2627 29.3333 11.9991 29.3333Z" fill="#FCD535"/>
</g>
</g>
</g>
<defs>
<clipPath id="clip0_596_898">
<rect width="80" height="80" fill="white"/>
</clipPath>
</defs>
</svg>
