<svg width="80" height="80" viewBox="0 0 80 80" fill="none" xmlns="http://www.w3.org/2000/svg">
<g id="Frame" clip-path="url(#clip0_596_887)">
<g id="Group">
<path id="Vector" d="M23.7846 62.4976C22.1279 62.4999 20.5398 63.1592 19.3686 64.3308C18.1974 65.5025 17.5388 67.0909 17.5371 68.7476C17.5371 72.1926 20.3396 74.9951 23.7846 74.9951C27.2296 74.9951 30.0321 72.1926 30.0321 68.7476C30.0321 65.3013 27.2296 62.4976 23.7846 62.4976ZM23.7846 72.4951C22.7911 72.4937 21.8387 72.0985 21.1362 71.396C20.4337 70.6935 20.0384 69.7411 20.0371 68.7476C20.0371 66.6801 21.7184 64.9976 23.7846 64.9976C25.8509 64.9976 27.5321 66.6801 27.5321 68.7476C27.5314 69.7413 27.1364 70.6941 26.4338 71.3967C25.7311 72.0994 24.7783 72.4944 23.7846 72.4951Z" fill="#FCD535"/>
<path id="Vector_2" d="M57.5375 77.4949H65.0375C65.369 77.4949 65.687 77.3632 65.9214 77.1288C66.1558 76.8944 66.2875 76.5765 66.2875 76.2449V72.4974C66.619 72.4974 66.937 72.3657 67.1714 72.1313C67.4058 71.8969 67.5375 71.579 67.5375 71.2474V66.2424C67.5375 65.9109 67.4058 65.593 67.1714 65.3586C66.937 65.1241 66.619 64.9924 66.2875 64.9924H34.38C32.83 60.6324 28.6737 57.4974 23.7875 57.4974C17.5838 57.4974 12.5375 62.5437 12.5375 68.7474C12.5375 74.9512 17.5838 79.9974 23.7875 79.9974C28.675 79.9974 32.8312 76.8599 34.3812 72.4974H46.2875V74.9924C46.2875 75.324 46.4192 75.6419 46.6536 75.8763C46.888 76.1107 47.206 76.2424 47.5375 76.2424H53.785C54.1165 76.2424 54.4345 76.1107 54.6689 75.8763C54.9033 75.6419 55.035 75.324 55.035 74.9924V72.4974H56.2875V76.2449C56.2875 76.5765 56.4192 76.8944 56.6536 77.1288C56.888 77.3632 57.206 77.4949 57.5375 77.4949ZM23.7875 77.4974C18.9638 77.4974 15.0375 73.5712 15.0375 68.7474C15.0375 63.9237 18.9638 59.9974 23.7875 59.9974C28.6112 59.9974 32.5375 63.9237 32.5375 68.7474C32.5375 73.5712 28.6125 77.4974 23.7875 77.4974ZM34.9638 67.4924H65.0387V69.9974H34.965C35.01 69.5862 35.0387 69.1699 35.0387 68.7474C35.0366 68.3281 35.0115 67.9091 34.9638 67.4924ZM52.535 73.7424H48.7875V72.4974H52.535V73.7424ZM63.7875 72.4974V74.9949H58.7875V72.4974H63.7875ZM62.3488 13.8187C58.1813 5.54994 49.57 0.00244141 40 0.00244141C27.4925 0.00244141 17.1313 9.24494 15.3125 21.2524H15C6.72875 21.2524 0 27.9812 0 36.2524V41.2524C0 49.5237 6.72875 56.2524 15 56.2524H61.25C71.5888 56.2524 80 47.8412 80 37.5024V32.5024C80 22.6024 72.1513 14.3974 62.3488 13.8187ZM61.25 53.7524H15C9.64625 53.7524 5.07875 50.3612 3.30375 45.6187C6.055 49.0474 10.2712 51.2524 15 51.2524H61.25C67.4025 51.2524 72.8562 48.2599 76.2763 43.6699C73.8425 49.5787 68.0275 53.7524 61.25 53.7524ZM61.25 48.7524H15C8.1075 48.7524 2.5 43.1449 2.5 36.2524C2.5 29.3599 8.1075 23.7524 15 23.7524H15.0637C15.0425 24.1699 15 24.5799 15 25.0024C15 25.334 15.1317 25.6519 15.3661 25.8863C15.6005 26.1207 15.9185 26.2524 16.25 26.2524C16.5815 26.2524 16.8995 26.1207 17.1339 25.8863C17.3683 25.6519 17.5 25.334 17.5 25.0024C17.5 12.5962 27.5938 2.50244 40 2.50244C50.5337 2.50244 59.7837 9.96369 61.9963 20.2437C62.33 21.7949 62.5 23.3962 62.5 25.0024C62.5 25.334 62.6317 25.6519 62.8661 25.8863C63.1005 26.1207 63.4185 26.2524 63.75 26.2524C64.0815 26.2524 64.3995 26.1207 64.6339 25.8863C64.8683 25.6519 65 25.334 65 25.0024C65 23.2187 64.8125 21.4399 64.44 19.7174C64.1916 18.5995 63.8659 17.5002 63.465 16.4274C71.3613 17.5224 77.5 24.3512 77.5 32.5024C77.5 41.4624 70.21 48.7524 61.25 48.7524Z" fill="#FCD535"/>
<path id="Vector_3" d="M55.0371 14.99H25.0371C24.7056 14.99 24.3876 15.1217 24.1532 15.3561C23.9188 15.5905 23.7871 15.9085 23.7871 16.24V23.74C23.7871 24.0715 23.9188 24.3895 24.1532 24.6239C24.3876 24.8583 24.7056 24.99 25.0371 24.99H55.0371C55.3686 24.99 55.6866 24.8583 55.921 24.6239C56.1554 24.3895 56.2871 24.0715 56.2871 23.74V16.24C56.2871 15.9085 56.1554 15.5905 55.921 15.3561C55.6866 15.1217 55.3686 14.99 55.0371 14.99ZM53.7871 19.99C53.7871 21.3707 52.6678 22.49 51.2871 22.49H28.7871C27.4064 22.49 26.2871 21.3707 26.2871 19.99C26.2871 18.6093 27.4064 17.49 28.7871 17.49H51.2871C52.6678 17.49 53.7871 18.6093 53.7871 19.99ZM55.0371 26.24H25.0371C24.7056 26.24 24.3876 26.3717 24.1532 26.6061C23.9188 26.8405 23.7871 27.1585 23.7871 27.49V34.99C23.7871 35.3215 23.9188 35.6395 24.1532 35.8739C24.3876 36.1083 24.7056 36.24 25.0371 36.24H55.0371C55.3686 36.24 55.6866 36.1083 55.921 35.8739C56.1554 35.6395 56.2871 35.3215 56.2871 34.99V27.49C56.2871 27.1585 56.1554 26.8405 55.921 26.6061C55.6866 26.3717 55.3686 26.24 55.0371 26.24ZM53.7871 31.24C53.7871 32.6207 52.6678 33.74 51.2871 33.74H28.7871C27.4064 33.74 26.2871 32.6207 26.2871 31.24C26.2871 29.8593 27.4064 28.74 28.7871 28.74H51.2871C52.6678 28.74 53.7871 29.8593 53.7871 31.24Z" fill="#FCD535"/>
<path id="Vector_4" d="M32.5784 32.5011C32.9099 32.5011 33.2278 32.3694 33.4622 32.135C33.6967 31.9005 33.8284 31.5826 33.8284 31.2511C33.8284 30.9196 33.6967 30.6016 33.4622 30.3672C33.2278 30.1328 32.9099 30.0011 32.5784 30.0011H32.5646C31.8746 30.0011 31.3221 30.5598 31.3221 31.2511C31.3221 31.9423 31.8871 32.5011 32.5784 32.5011ZM36.3284 32.5011C36.6599 32.5011 36.9778 32.3694 37.2122 32.135C37.4467 31.9005 37.5784 31.5826 37.5784 31.2511C37.5784 30.9196 37.4467 30.6016 37.2122 30.3672C36.9778 30.1328 36.6599 30.0011 36.3284 30.0011H36.3146C35.6246 30.0011 35.0721 30.5598 35.0721 31.2511C35.0721 31.9423 35.6371 32.5011 36.3284 32.5011ZM40.0784 32.5011C40.4099 32.5011 40.7278 32.3694 40.9622 32.135C41.1967 31.9005 41.3284 31.5826 41.3284 31.2511C41.3284 30.9196 41.1967 30.6016 40.9622 30.3672C40.7278 30.1328 40.4099 30.0011 40.0784 30.0011H40.0646C39.3746 30.0011 38.8221 30.5598 38.8221 31.2511C38.8221 31.9423 39.3871 32.5011 40.0784 32.5011ZM43.8284 32.5011C44.1599 32.5011 44.4778 32.3694 44.7122 32.135C44.9467 31.9005 45.0784 31.5826 45.0784 31.2511C45.0784 30.9196 44.9467 30.6016 44.7122 30.3672C44.4778 30.1328 44.1599 30.0011 43.8284 30.0011H43.8146C43.1246 30.0011 42.5721 30.5598 42.5721 31.2511C42.5721 31.9423 43.1371 32.5011 43.8284 32.5011ZM47.5784 32.5011C47.9099 32.5011 48.2278 32.3694 48.4622 32.135C48.6967 31.9005 48.8284 31.5826 48.8284 31.2511C48.8284 30.9196 48.6967 30.6016 48.4622 30.3672C48.2278 30.1328 47.9099 30.0011 47.5784 30.0011H47.5646C46.8746 30.0011 46.3221 30.5598 46.3221 31.2511C46.3221 31.9423 46.8871 32.5011 47.5784 32.5011ZM32.5371 21.2361H47.5384C47.8699 21.2361 48.1878 21.1044 48.4222 20.87C48.6567 20.6355 48.7884 20.3176 48.7884 19.9861C48.7884 19.6546 48.6567 19.3366 48.4222 19.1022C48.1878 18.8678 47.8699 18.7361 47.5384 18.7361H32.5371C32.2056 18.7361 31.8876 18.8678 31.6532 19.1022C31.4188 19.3366 31.2871 19.6546 31.2871 19.9861C31.2871 20.3176 31.4188 20.6355 31.6532 20.87C31.8876 21.1044 32.2056 21.2361 32.5371 21.2361ZM47.5384 37.4948H32.5384C32.2068 37.4948 31.8889 37.6265 31.6545 37.861C31.4201 38.0954 31.2884 38.4133 31.2884 38.7448V42.4948C31.2884 42.8264 31.4201 43.1443 31.6545 43.3787C31.8889 43.6131 32.2068 43.7448 32.5384 43.7448H47.5384C47.8699 43.7448 48.1878 43.6131 48.4222 43.3787C48.6567 43.1443 48.7884 42.8264 48.7884 42.4948V38.7448C48.7884 38.4133 48.6567 38.0954 48.4222 37.861C48.1878 37.6265 47.8699 37.4948 47.5384 37.4948ZM46.2884 40.6198C46.2884 40.965 46.0085 41.2448 45.6634 41.2448H34.4134C34.0682 41.2448 33.7884 40.965 33.7884 40.6198C33.7884 40.2747 34.0682 39.9948 34.4134 39.9948H45.6634C46.0085 39.9948 46.2884 40.2747 46.2884 40.6198Z" fill="#FCD535"/>
</g>
</g>
<defs>
<clipPath id="clip0_596_887">
<rect width="80" height="80" fill="white"/>
</clipPath>
</defs>
</svg>
