<svg width="80" height="80" viewBox="0 0 80 80" fill="none" xmlns="http://www.w3.org/2000/svg">
<g id="Frame">
<g id="Group">
<path id="Vector" d="M37.6205 43.2358C37.6205 42.9043 37.7522 42.5863 37.9866 42.3519C38.221 42.1175 38.5389 41.9858 38.8705 41.9858H41.1297C41.4612 41.9858 41.7791 42.1175 42.0136 42.3519C42.248 42.5863 42.3797 42.9043 42.3797 43.2358C42.3797 43.5673 42.248 43.8852 42.0136 44.1197C41.7791 44.3541 41.4612 44.4858 41.1297 44.4858H38.8705C38.5389 44.4858 38.221 44.3541 37.9866 44.1197C37.7522 43.8852 37.6205 43.5673 37.6205 43.2358ZM38.8705 51.7823H41.1297C41.4612 51.7823 41.7791 51.6506 42.0136 51.4162C42.248 51.1818 42.3797 50.8639 42.3797 50.5323C42.3797 50.2008 42.248 49.8829 42.0136 49.6485C41.7791 49.414 41.4612 49.2823 41.1297 49.2823H38.8705C38.5389 49.2823 38.221 49.414 37.9866 49.6485C37.7522 49.8829 37.6205 50.2008 37.6205 50.5323C37.6205 50.8639 37.7522 51.1818 37.9866 51.4162C38.221 51.6506 38.5389 51.7823 38.8705 51.7823ZM42.3795 57.8289C42.3795 57.4974 42.2478 57.1794 42.0134 56.945C41.779 56.7106 41.4611 56.5789 41.1295 56.5789H38.8703C38.5388 56.5789 38.2208 56.7106 37.9864 56.945C37.752 57.1794 37.6203 57.4974 37.6203 57.8289C37.6203 58.1604 37.752 58.4784 37.9864 58.7128C38.2208 58.9472 38.5388 59.0789 38.8703 59.0789H41.1295C41.4611 59.0789 41.779 58.9472 42.0134 58.7128C42.2478 58.4784 42.3795 58.1604 42.3795 57.8289ZM20.3055 18.6111C20.3055 15.8872 21.7816 13.4288 24.1313 12.1309C24.2436 6.11203 29.175 1.25 35.2203 1.25C37.8595 1.25 40.3698 2.17187 42.3688 3.86094C43.2458 3.62017 44.1513 3.49855 45.0608 3.49937C49.9728 3.49937 54.118 6.98313 55.0164 11.7269C57.808 12.8377 59.6945 15.5597 59.6945 18.6111C59.6945 22.6958 56.3714 26.0188 52.2869 26.0188H27.713C23.6286 26.0188 20.3055 22.6956 20.3055 18.6111ZM22.8055 18.6111C22.8055 21.3172 25.007 23.5188 27.713 23.5188H52.2869C54.993 23.5188 57.1945 21.3172 57.1945 18.6111C57.1945 16.4033 55.702 14.4553 53.5652 13.8741C53.3226 13.8081 53.1056 13.6705 52.9424 13.4794C52.7793 13.2882 52.6775 13.0522 52.6505 12.8023C52.2306 8.92422 48.9678 5.99953 45.0606 5.99953C44.1753 5.99953 43.3083 6.14937 42.4836 6.445C42.2639 6.5238 42.0265 6.53949 41.7984 6.49031C41.5702 6.44112 41.3604 6.32903 41.1927 6.16672C39.5823 4.60828 37.4613 3.75 35.2203 3.75C30.4833 3.75 26.6294 7.60391 26.6294 12.3409C26.6294 12.5006 26.6342 12.6675 26.6441 12.837C26.659 13.0969 26.5925 13.355 26.4537 13.5753C26.315 13.7955 26.1109 13.9669 25.87 14.0656C24.0083 14.8281 22.8055 16.6122 22.8055 18.6111ZM78.75 29.7469V51.6366C78.75 54.7334 73.1177 56.2597 67.4697 56.455V73.9844C67.4697 74.3159 67.338 74.6338 67.1036 74.8683C66.8691 75.1027 66.5512 75.2344 66.2197 75.2344H44.5981C44.0475 77.2575 42.1952 78.75 40 78.75C37.8048 78.75 35.9525 77.2575 35.4019 75.2344H13.7805C13.4489 75.2344 13.131 75.1027 12.8966 74.8683C12.6622 74.6338 12.5305 74.3159 12.5305 73.9844V56.455C6.88234 56.2597 1.25 54.7334 1.25 51.6366V29.7469C1.25 26.4213 7.74547 24.9064 13.7805 24.9064C19.8155 24.9064 26.3109 26.4211 26.3109 29.7469V51.6366C26.3109 54.7334 20.6786 56.2597 15.0305 56.455V72.7344H35.4017C35.8439 71.1098 37.1253 69.8284 38.7498 69.3862V62.7055C33.1017 62.5102 27.4694 60.9837 27.4694 57.887V35.997C27.4694 32.6716 33.9648 31.1567 39.9998 31.1567C46.0348 31.1567 52.5303 32.6714 52.5303 35.997V57.8869C52.5303 60.9838 46.898 62.51 41.2498 62.7053V69.3861C42.8744 69.8283 44.1558 71.1097 44.598 72.7342H64.9694V56.455C59.3212 56.2597 53.6889 54.7333 53.6889 51.6366V29.7469C53.6889 26.4213 60.1842 24.9064 66.2192 24.9064C72.2542 24.9064 78.75 26.4213 78.75 29.7469ZM3.75 44.3292C3.92453 44.9803 7.25656 46.6805 13.7805 46.6805C20.312 46.6805 23.6445 44.9762 23.8119 44.3269L23.8116 40.0997C21.3694 41.3119 17.4883 41.8839 13.7805 41.8839C10.073 41.8839 6.19234 41.312 3.75 40.1V44.3292ZM3.75 37.0327C3.92453 37.6839 7.25656 39.3841 13.7805 39.3841C20.3081 39.3841 23.6405 37.6819 23.8114 37.0316L23.8111 32.8034C21.3688 34.0155 17.488 34.5875 13.7805 34.5875C10.073 34.5875 6.19234 34.0156 3.75 32.8036V37.0327ZM3.75391 29.7463C3.95922 30.4047 7.28953 32.0872 13.7805 32.0872C20.2869 32.0872 23.6178 30.3964 23.8089 29.7414C23.6298 29.1031 20.2981 27.4064 13.7805 27.4064C7.29375 27.4066 3.96328 29.0873 3.75391 29.7463ZM13.7805 53.977C20.3161 53.977 23.6486 52.2708 23.8123 51.6223L23.812 47.3959C21.3698 48.6083 17.4884 49.1805 13.7805 49.1805C10.073 49.1805 6.19234 48.6086 3.75 47.3966V51.6367C3.91234 52.2708 7.24484 53.977 13.7805 53.977ZM29.9716 36.0025C30.1506 36.6408 33.482 38.3375 40 38.3375C46.4909 38.3375 49.8209 36.655 50.0264 35.9966C49.8169 35.3373 46.4864 33.6569 40 33.6569C33.4936 33.6569 30.1627 35.3477 29.9716 36.0025ZM29.9686 43.2937H29.9695C30.1319 43.928 33.4644 45.6342 40 45.6342C46.528 45.6342 49.86 43.932 50.0309 43.2817L50.0306 39.0536C47.5883 40.2656 43.7075 40.8377 40 40.8377C36.2919 40.8377 32.4106 40.2655 29.9683 39.0531L29.9686 43.2937ZM29.9691 50.5903H29.9695C30.1319 51.2245 33.4647 52.9308 40 52.9308C46.5316 52.9308 49.8641 51.2266 50.0314 50.577L50.0311 46.3498C47.5889 47.562 43.7078 48.1341 40 48.1341C36.2922 48.1341 32.4111 47.562 29.9688 46.3498L29.9691 50.5903ZM40 60.2273C46.5353 60.2273 49.8681 58.5211 50.0319 57.8725L50.0316 53.6462C47.5894 54.8586 43.708 55.4308 40 55.4308C36.2923 55.4308 32.4116 54.8587 29.9692 53.6467L29.9695 57.887C30.1319 58.5211 33.4647 60.2273 40 60.2273ZM42.2656 73.9844C42.2656 72.7352 41.2492 71.7188 40 71.7188C38.7508 71.7188 37.7344 72.7352 37.7344 73.9844C37.7344 75.2336 38.7508 76.25 40 76.25C41.2492 76.25 42.2656 75.2336 42.2656 73.9844ZM56.1912 29.7523C56.3703 30.3906 59.7019 32.0873 66.2195 32.0873C72.7105 32.0873 76.0406 30.4047 76.2461 29.7464C76.0367 29.0873 72.7062 27.4066 66.2195 27.4066C59.7131 27.4066 56.3823 29.0973 56.1912 29.7523ZM56.1881 37.0436H56.1891C56.3514 37.6778 59.6841 39.3841 66.2194 39.3841C72.747 39.3841 76.0794 37.6819 76.2503 37.0316L76.25 32.8034C73.8077 34.0155 69.9269 34.5875 66.2194 34.5875C62.5114 34.5875 58.63 34.0153 56.1878 32.803L56.1881 37.0436ZM56.1886 44.3402H56.1891C56.3514 44.9742 59.6842 46.6805 66.2194 46.6805C72.7509 46.6805 76.0834 44.9762 76.2508 44.3269L76.2505 40.0997C73.8083 41.3119 69.9272 41.8839 66.2194 41.8839C62.5116 41.8839 58.6306 41.3119 56.1883 40.0997L56.1886 44.3402ZM76.2514 51.6222L76.2511 47.3958C73.8089 48.6081 69.9275 49.1803 66.2195 49.1803C62.5119 49.1803 58.6313 48.6083 56.1889 47.3962L56.1892 51.6364C56.3514 52.2706 59.6839 53.9769 66.2195 53.9769C72.7552 53.9769 76.0877 52.2708 76.2514 51.6222ZM65.0898 38.2356H67.3492C67.6807 38.2356 67.9987 38.1039 68.2331 37.8695C68.4675 37.6351 68.5992 37.3171 68.5992 36.9856C68.5992 36.6541 68.4675 36.3362 68.2331 36.1017C67.9987 35.8673 67.6807 35.7356 67.3492 35.7356H65.0898C64.7583 35.7356 64.4404 35.8673 64.206 36.1017C63.9715 36.3362 63.8398 36.6541 63.8398 36.9856C63.8398 37.3171 63.9715 37.6351 64.206 37.8695C64.4404 38.1039 64.7583 38.2356 65.0898 38.2356ZM65.0898 45.5322H67.3492C67.6807 45.5322 67.9987 45.4005 68.2331 45.1661C68.4675 44.9317 68.5992 44.6137 68.5992 44.2822C68.5992 43.9507 68.4675 43.6327 68.2331 43.3983C67.9987 43.1639 67.6807 43.0322 67.3492 43.0322H65.0898C64.7583 43.0322 64.4404 43.1639 64.206 43.3983C63.9715 43.6327 63.8398 43.9507 63.8398 44.2822C63.8398 44.6137 63.9715 44.9317 64.206 45.1661C64.4404 45.4005 64.7583 45.5322 65.0898 45.5322ZM67.3492 50.3288H65.0898C64.7583 50.3288 64.4404 50.4604 64.206 50.6949C63.9715 50.9293 63.8398 51.2472 63.8398 51.5788C63.8398 51.9103 63.9715 52.2282 64.206 52.4626C64.4404 52.6971 64.7583 52.8288 65.0898 52.8288H67.3492C67.6807 52.8288 67.9987 52.6971 68.2331 52.4626C68.4675 52.2282 68.5992 51.9103 68.5992 51.5788C68.5992 51.2472 68.4675 50.9293 68.2331 50.6949C67.9987 50.4604 67.6807 50.3288 67.3492 50.3288ZM12.6508 38.2356H14.9102C15.2417 38.2356 15.5596 38.1039 15.794 37.8695C16.0285 37.6351 16.1602 37.3171 16.1602 36.9856C16.1602 36.6541 16.0285 36.3362 15.794 36.1017C15.5596 35.8673 15.2417 35.7356 14.9102 35.7356H12.6508C12.3193 35.7356 12.0013 35.8673 11.7669 36.1017C11.5325 36.3362 11.4008 36.6541 11.4008 36.9856C11.4008 37.3171 11.5325 37.6351 11.7669 37.8695C12.0013 38.1039 12.3193 38.2356 12.6508 38.2356ZM12.6508 45.5322H14.9102C15.2417 45.5322 15.5596 45.4005 15.794 45.1661C16.0285 44.9317 16.1602 44.6137 16.1602 44.2822C16.1602 43.9507 16.0285 43.6327 15.794 43.3983C15.5596 43.1639 15.2417 43.0322 14.9102 43.0322H12.6508C12.3193 43.0322 12.0013 43.1639 11.7669 43.3983C11.5325 43.6327 11.4008 43.9507 11.4008 44.2822C11.4008 44.6137 11.5325 44.9317 11.7669 45.1661C12.0013 45.4005 12.3193 45.5322 12.6508 45.5322ZM16.1602 51.5788C16.1602 51.2472 16.0285 50.9293 15.794 50.6949C15.5596 50.4604 15.2417 50.3288 14.9102 50.3288H12.6508C12.3193 50.3288 12.0013 50.4604 11.7669 50.6949C11.5325 50.9293 11.4008 51.2472 11.4008 51.5788C11.4008 51.9103 11.5325 52.2282 11.7669 52.4626C12.0013 52.6971 12.3193 52.8288 12.6508 52.8288H14.9102C15.2417 52.8288 15.5596 52.6971 15.794 52.4626C16.0285 52.2282 16.1602 51.9103 16.1602 51.5788Z" fill="#FCD535"/>
</g>
</g>
</svg>
