<svg width="80" height="80" viewBox="0 0 80 80" fill="none" xmlns="http://www.w3.org/2000/svg">
<g id="Frame" clip-path="url(#clip0_596_876)">
<g id="Group">
<path id="Vector" d="M53.2466 6.39099H32.8397C32.6835 6.39095 32.5288 6.42169 32.3845 6.48144C32.2402 6.5412 32.109 6.62881 31.9986 6.73926C31.8881 6.84971 31.8005 6.98084 31.7408 7.12516C31.681 7.26948 31.6503 7.42416 31.6503 7.58037C31.6503 7.73656 31.681 7.89123 31.7408 8.03554C31.8006 8.17986 31.8882 8.31098 31.9986 8.42143C32.1091 8.53187 32.2402 8.61948 32.3845 8.67925C32.5288 8.73901 32.6835 8.76976 32.8397 8.76974H53.2464C53.4026 8.76976 53.5573 8.73901 53.7016 8.67925C53.8459 8.61949 53.9771 8.53188 54.0875 8.42144C54.198 8.31099 54.2856 8.17987 54.3454 8.03556C54.4052 7.89124 54.4359 7.73657 54.4359 7.58037C54.4359 7.42417 54.4052 7.2695 54.3454 7.12519C54.2857 6.98088 54.1981 6.84975 54.0876 6.73931C53.9772 6.62886 53.846 6.54125 53.7017 6.48149C53.5574 6.42172 53.4028 6.39097 53.2466 6.39099ZM41.9272 11.4596H32.8395C32.6833 11.4596 32.5287 11.4903 32.3843 11.5501C32.24 11.6098 32.1089 11.6975 31.9985 11.8079C31.888 11.9183 31.8004 12.0495 31.7406 12.1938C31.6809 12.3381 31.6501 12.4928 31.6501 12.649C31.6501 12.8052 31.6809 12.9598 31.7406 13.1041C31.8004 13.2484 31.888 13.3796 31.9985 13.49C32.1089 13.6005 32.24 13.6881 32.3843 13.7478C32.5287 13.8076 32.6833 13.8384 32.8395 13.8383H41.9272C42.5842 13.8383 43.1166 13.306 43.1166 12.649C43.1166 11.9919 42.5841 11.4596 41.9272 11.4596Z" fill="#FCD535"/>
<path id="Vector_2" d="M74.8647 11.667C74.7085 11.667 74.5538 11.6978 74.4095 11.7575C74.2652 11.8173 74.1341 11.9049 74.0236 12.0153C73.9132 12.1258 73.8256 12.2569 73.7658 12.4012C73.706 12.5455 73.6753 12.7002 73.6753 12.8564C73.6753 13.0126 73.706 13.1673 73.7658 13.3116C73.8256 13.4559 73.9132 13.587 74.0236 13.6975C74.1341 13.8079 74.2652 13.8955 74.4095 13.9553C74.5538 14.0151 74.7085 14.0458 74.8647 14.0458C76.0348 14.0458 76.9867 14.9977 76.9867 16.1678V49.962H68.3064V14.0456H70.2886C70.4448 14.0456 70.5994 14.0149 70.7438 13.9551C70.8881 13.8954 71.0192 13.8078 71.1296 13.6973C71.2401 13.5869 71.3277 13.4557 71.3875 13.3114C71.4472 13.1671 71.478 13.0124 71.478 12.8562C71.478 12.7001 71.4472 12.5454 71.3875 12.4011C71.3277 12.2568 71.2401 12.1256 71.1296 12.0152C71.0192 11.9047 70.8881 11.8171 70.7438 11.7574C70.5994 11.6976 70.4448 11.6669 70.2886 11.6669H68.3064V3.57359C68.3064 1.60313 66.7033 0 64.7328 0H14.9501C12.9797 0 11.3766 1.60313 11.3766 3.57359V11.667H5.1353C2.65358 11.667 0.634521 13.6861 0.634521 16.1678V62.1112C0.634521 64.593 2.65358 66.612 5.1353 66.612H12.46C12.6162 66.6121 12.7709 66.5813 12.9152 66.5215C13.0595 66.4618 13.1906 66.3742 13.3011 66.2637C13.4115 66.1533 13.4991 66.0221 13.5589 65.8778C13.6186 65.7335 13.6494 65.5788 13.6494 65.4227C13.6494 65.2665 13.6186 65.1118 13.5589 64.9675C13.4991 64.8232 13.4115 64.692 13.3011 64.5816C13.1906 64.4711 13.0595 64.3835 12.9152 64.3238C12.7709 64.264 12.6162 64.2333 12.46 64.2333H5.1353C3.96515 64.2333 3.01327 63.2814 3.01327 62.1112V52.3406H76.9865V62.1112C76.9865 63.2814 76.0347 64.2333 74.8645 64.2333H18.0633C17.9071 64.2333 17.7524 64.264 17.6081 64.3238C17.4638 64.3835 17.3327 64.4711 17.2222 64.5816C17.1118 64.692 17.0242 64.8232 16.9644 64.9675C16.9046 65.1118 16.8739 65.2665 16.8739 65.4227C16.8739 65.5788 16.9046 65.7335 16.9644 65.8778C17.0242 66.0221 17.1118 66.1533 17.2222 66.2637C17.3327 66.3742 17.4638 66.4618 17.6081 66.5215C17.7524 66.5813 17.9071 66.6121 18.0633 66.612H30.2517V72.9145C27.0483 72.9717 24.4592 75.5938 24.4592 78.8106C24.4592 78.9668 24.4899 79.1215 24.5497 79.2658C24.6095 79.4101 24.6971 79.5412 24.8075 79.6517C24.918 79.7621 25.0491 79.8497 25.1934 79.9095C25.3377 79.9693 25.4924 80 25.6486 80H54.3514C54.5076 80 54.6623 79.9693 54.8066 79.9095C54.9509 79.8497 55.082 79.7621 55.1925 79.6517C55.3029 79.5412 55.3905 79.4101 55.4503 79.2658C55.51 79.1215 55.5408 78.9668 55.5408 78.8106C55.5408 75.5938 52.9517 72.9716 49.7483 72.9145V66.612H74.8647C77.3464 66.612 79.3655 64.593 79.3655 62.1112V16.1678C79.3653 13.6861 77.3462 11.667 74.8647 11.667ZM11.3766 49.962H3.01327V16.1678C3.01327 14.9977 3.96515 14.0458 5.1353 14.0458H11.3766V49.962ZM65.9277 17.3761H25.4108C25.2546 17.3761 25.0999 17.4068 24.9556 17.4666C24.8113 17.5264 24.6802 17.614 24.5697 17.7244C24.4593 17.8349 24.3717 17.966 24.3119 18.1103C24.2521 18.2546 24.2214 18.4093 24.2214 18.5655C24.2214 18.7217 24.2521 18.8764 24.3118 19.0207C24.3716 19.165 24.4592 19.2961 24.5697 19.4066C24.6801 19.517 24.8112 19.6046 24.9556 19.6644C25.0999 19.7241 25.2546 19.7549 25.4108 19.7548H65.9277V49.962H13.7551V19.7548H19.2261C19.3823 19.7549 19.537 19.7241 19.6813 19.6643C19.8256 19.6046 19.9567 19.517 20.0671 19.4065C20.1776 19.2961 20.2652 19.165 20.325 19.0206C20.3847 18.8763 20.4155 18.7217 20.4155 18.5655C20.4155 18.4093 20.3848 18.2546 20.325 18.1103C20.2653 17.9659 20.1776 17.8348 20.0672 17.7244C19.9567 17.6139 19.8256 17.5263 19.6813 17.4665C19.537 17.4068 19.3823 17.3761 19.2261 17.3761H13.7551V3.57359C13.7551 2.91469 14.2911 2.37875 14.95 2.37875H64.7328C65.3917 2.37875 65.9277 2.91469 65.9277 3.57359V17.3761ZM32.6303 66.6119H47.3695V72.9117H32.6303V66.6119ZM52.9553 77.6212H27.0447C27.5334 76.2636 28.8342 75.2905 30.3581 75.2905H49.6419C51.1658 75.2905 52.4666 76.2636 52.9553 77.6212Z" fill="#FCD535"/>
<path id="Vector_3" d="M40.6373 54.6924C38.6554 54.6924 37.0429 56.3049 37.0429 58.2869C37.0429 60.2688 38.6554 61.8813 40.6373 61.8813C42.6195 61.8813 44.2318 60.269 44.2318 58.2869C44.2318 56.3049 42.6193 54.6924 40.6373 54.6924ZM40.6373 59.5026C39.9671 59.5027 39.4217 58.9572 39.4217 58.2869C39.4217 57.6165 39.9671 57.0712 40.6373 57.0712C41.3078 57.0712 41.8531 57.6166 41.8531 58.2869C41.8531 58.9572 41.3076 59.5026 40.6373 59.5026ZM26.7753 12.3016L22.8606 5.52115C22.7562 5.34036 22.606 5.19023 22.4252 5.08584C22.2444 4.98146 22.0393 4.92651 21.8306 4.92651C21.6218 4.92651 21.4167 4.98146 21.2359 5.08584C21.0551 5.19023 20.905 5.34036 20.8006 5.52115L16.8859 12.3016C16.7814 12.4824 16.7264 12.6875 16.7263 12.8963C16.7263 13.1052 16.7812 13.3103 16.8856 13.4911C16.99 13.672 17.1402 13.8221 17.3211 13.9265C17.5019 14.0309 17.7071 14.0858 17.9159 14.0857H25.7454C25.9542 14.0857 26.1594 14.0308 26.3402 13.9264C26.521 13.8221 26.6712 13.6719 26.7756 13.4911C26.88 13.3102 26.9349 13.1051 26.9348 12.8963C26.9348 12.6875 26.8798 12.4824 26.7753 12.3016ZM19.9757 11.7071L21.8306 8.49459L23.6854 11.7071H19.9757ZM62.4223 24.1402H45.1975C45.0413 24.1402 44.8866 24.1709 44.7423 24.2307C44.598 24.2905 44.4668 24.3781 44.3564 24.4885C44.2459 24.599 44.1583 24.7301 44.0986 24.8744C44.0388 25.0187 44.0081 25.1734 44.0081 25.3296C44.0081 25.4858 44.0388 25.6405 44.0986 25.7848C44.1583 25.9291 44.2459 26.0602 44.3564 26.1706C44.4668 26.2811 44.598 26.3687 44.7423 26.4285C44.8866 26.4882 45.0413 26.519 45.1975 26.519H62.4223C62.5785 26.519 62.7332 26.4882 62.8775 26.4285C63.0218 26.3687 63.1529 26.2811 63.2634 26.1706C63.3738 26.0602 63.4614 25.9291 63.5212 25.7848C63.5809 25.6405 63.6117 25.4858 63.6117 25.3296C63.6117 25.1734 63.5809 25.0187 63.5212 24.8744C63.4614 24.7301 63.3738 24.599 63.2634 24.4885C63.1529 24.3781 63.0218 24.2905 62.8775 24.2307C62.7332 24.1709 62.5785 24.1402 62.4223 24.1402ZM62.4223 29.371H45.1975C45.0413 29.371 44.8866 29.4017 44.7423 29.4615C44.598 29.5213 44.4668 29.6089 44.3564 29.7193C44.2459 29.8298 44.1583 29.9609 44.0986 30.1052C44.0388 30.2495 44.0081 30.4042 44.0081 30.5604C44.008 30.7166 44.0388 30.8713 44.0985 31.0156C44.1583 31.1599 44.2459 31.291 44.3563 31.4015C44.4668 31.5119 44.5979 31.5995 44.7423 31.6593C44.8866 31.719 45.0413 31.7498 45.1975 31.7497H62.4223C62.5785 31.7498 62.7332 31.719 62.8775 31.6593C63.0218 31.5995 63.1529 31.5119 63.2634 31.4014C63.3738 31.291 63.4614 31.1599 63.5212 31.0155C63.5809 30.8712 63.6117 30.7166 63.6117 30.5604C63.6117 30.4042 63.5809 30.2495 63.5212 30.1052C63.4614 29.9609 63.3738 29.8298 63.2634 29.7193C63.1529 29.6089 63.0218 29.5213 62.8775 29.4615C62.7332 29.4017 62.5785 29.371 62.4223 29.371ZM62.4223 34.6018H45.1975C45.0413 34.6018 44.8866 34.6325 44.7423 34.6923C44.598 34.752 44.4668 34.8396 44.3564 34.9501C44.2459 35.0605 44.1583 35.1917 44.0986 35.336C44.0388 35.4803 44.0081 35.635 44.0081 35.7912C44.0081 35.9473 44.0388 36.102 44.0986 36.2463C44.1583 36.3906 44.2459 36.5218 44.3564 36.6322C44.4668 36.7427 44.598 36.8303 44.7423 36.89C44.8866 36.9498 45.0413 36.9805 45.1975 36.9805H62.4223C62.5785 36.9805 62.7332 36.9498 62.8775 36.89C63.0218 36.8303 63.1529 36.7427 63.2634 36.6322C63.3738 36.5218 63.4614 36.3906 63.5212 36.2463C63.5809 36.102 63.6117 35.9473 63.6117 35.7912C63.6117 35.635 63.5809 35.4803 63.5212 35.336C63.4614 35.1917 63.3738 35.0605 63.2634 34.9501C63.1529 34.8396 63.0218 34.752 62.8775 34.6923C62.7332 34.6325 62.5785 34.6018 62.4223 34.6018ZM62.4223 39.8326H45.1975C45.0413 39.8325 44.8866 39.8633 44.7423 39.923C44.598 39.9828 44.4668 40.0704 44.3564 40.1809C44.2459 40.2913 44.1583 40.4224 44.0986 40.5668C44.0388 40.7111 44.0081 40.8657 44.0081 41.0219C44.0081 41.1781 44.0388 41.3328 44.0986 41.4771C44.1583 41.6214 44.2459 41.7525 44.3564 41.863C44.4668 41.9734 44.598 42.0611 44.7423 42.1208C44.8866 42.1806 45.0413 42.2113 45.1975 42.2113H62.4223C62.5785 42.2113 62.7332 42.1806 62.8775 42.1208C63.0218 42.0611 63.1529 41.9734 63.2634 41.863C63.3738 41.7525 63.4614 41.6214 63.5212 41.4771C63.5809 41.3328 63.6117 41.1781 63.6117 41.0219C63.6117 40.8657 63.5809 40.7111 63.5212 40.5668C63.4614 40.4224 63.3738 40.2913 63.2634 40.1809C63.1529 40.0704 63.0218 39.9828 62.8775 39.923C62.7332 39.8633 62.5785 39.8325 62.4223 39.8326ZM53.2459 45.0633H45.1975C45.0413 45.0633 44.8866 45.0941 44.7423 45.1538C44.598 45.2136 44.4668 45.3012 44.3564 45.4117C44.2459 45.5221 44.1583 45.6532 44.0986 45.7975C44.0388 45.9418 44.0081 46.0965 44.0081 46.2527C44.0081 46.4089 44.0388 46.5636 44.0986 46.7079C44.1583 46.8522 44.2459 46.9833 44.3564 47.0938C44.4668 47.2042 44.598 47.2918 44.7423 47.3516C44.8866 47.4114 45.0413 47.4421 45.1975 47.4421H53.2459C53.4021 47.4421 53.5568 47.4114 53.7011 47.3516C53.8454 47.2918 53.9765 47.2042 54.087 47.0938C54.1974 46.9833 54.285 46.8522 54.3448 46.7079C54.4045 46.5636 54.4353 46.4089 54.4353 46.2527C54.4353 46.0965 54.4046 45.9418 54.3448 45.7975C54.2851 45.6532 54.1975 45.5221 54.087 45.4116C53.9766 45.3012 53.8454 45.2135 53.7011 45.1538C53.5568 45.094 53.4021 45.0633 53.2459 45.0633ZM39.8409 23.1382H17.9157C17.7595 23.1382 17.6049 23.1689 17.4606 23.2287C17.3162 23.2884 17.1851 23.376 17.0747 23.4865C16.9642 23.5969 16.8766 23.7281 16.8169 23.8724C16.7571 24.0167 16.7263 24.1714 16.7264 24.3276V46.2527C16.7263 46.4089 16.7571 46.5636 16.8169 46.7079C16.8766 46.8522 16.9642 46.9833 17.0747 47.0938C17.1851 47.2042 17.3162 47.2918 17.4606 47.3516C17.6049 47.4114 17.7595 47.4421 17.9157 47.4421H39.8409C39.9971 47.4421 40.1518 47.4114 40.2961 47.3516C40.4404 47.2918 40.5715 47.2042 40.682 47.0938C40.7924 46.9833 40.88 46.8522 40.9398 46.7079C40.9995 46.5636 41.0303 46.4089 41.0303 46.2527V24.3276C41.0303 24.1714 40.9995 24.0167 40.9398 23.8724C40.88 23.7281 40.7924 23.5969 40.682 23.4865C40.5715 23.376 40.4404 23.2884 40.2961 23.2287C40.1518 23.1689 39.9971 23.1382 39.8409 23.1382ZM19.1053 25.5169H38.6515V37.9529C38.519 37.9298 38.3859 37.9105 38.2523 37.8952C36.1793 37.6629 34.9875 38.4924 34.0293 39.1586C33.3101 39.6586 32.689 40.0905 31.6487 40.1749C29.9659 40.313 28.887 39.4183 27.5203 38.2877C25.9989 37.0294 24.2732 35.6047 21.5304 35.7699C20.7079 35.8199 19.8973 36.009 19.1053 36.3332V25.5169ZM38.6517 45.0633H19.1051V38.9904C19.9489 38.4808 20.8107 38.1968 21.6746 38.1443C23.4814 38.0341 24.6506 39.0012 26.0042 40.1207C27.5 41.3579 29.1942 42.759 31.841 42.5458C33.5204 42.4096 34.5554 41.6899 35.3873 41.1118C36.2404 40.5187 36.8048 40.1272 37.9879 40.2591C38.2078 40.2838 38.4296 40.3251 38.6517 40.3827V45.0633Z" fill="#FCD535"/>
<path id="Vector_4" d="M32.0176 28.1737C30.011 28.1737 28.3787 29.8061 28.3787 31.8126C28.3787 33.819 30.011 35.4515 32.0176 35.4515C34.0241 35.4515 35.6565 33.8192 35.6565 31.8126C35.6565 29.8061 34.0241 28.1737 32.0176 28.1737ZM32.0176 33.0729C31.3227 33.0729 30.7573 32.5075 30.7573 31.8126C30.7573 31.1176 31.3227 30.5523 32.0176 30.5523C32.7124 30.5523 33.2779 31.1178 33.2779 31.8126C33.2779 32.5075 32.7124 33.0729 32.0176 33.0729Z" fill="#FCD535"/>
</g>
</g>
<defs>
<clipPath id="clip0_596_876">
<rect width="80" height="80" fill="white"/>
</clipPath>
</defs>
</svg>
