<svg width="81" height="81" viewBox="0 0 81 81" fill="none" xmlns="http://www.w3.org/2000/svg">
<g id="Frame" clip-path="url(#clip0_596_924)">
<g id="Group">
<path id="Vector" d="M76.4832 45.3547H70.2707V39.5281C70.2707 39.0609 69.8926 38.6828 69.4254 38.6828H64.2457C64.6551 36.3484 64.8801 33.9453 64.8801 31.4953V30.2047H70.4316C70.8145 31.7906 72.2363 32.975 73.9379 32.975C75.9316 32.975 77.5535 31.3531 77.5535 29.3594C77.5535 27.3656 75.9316 25.7437 73.9379 25.7437C72.2363 25.7437 70.8145 26.9297 70.4316 28.5141H64.8801V22.4297H71.1676C71.6348 22.4297 72.0129 22.0516 72.0129 21.5844V12.5609C73.5988 12.1781 74.7832 10.7563 74.7832 9.05469C74.7832 7.06094 73.1613 5.43906 71.1676 5.43906C69.1738 5.43906 67.552 7.06094 67.552 9.05469C67.552 10.7563 68.7379 12.1781 70.3223 12.5609V20.7391H64.8801V19.2797C64.8801 18.8844 64.6066 18.5422 64.2207 18.4547L56.8816 16.8V10.8875C56.8816 10.6516 56.7832 10.4281 56.6113 10.2672L52.2191 6.19375C52.5723 5.63594 52.7832 4.97969 52.7832 4.27187C52.7832 2.27812 51.1613 0.65625 49.1676 0.65625C47.1738 0.65625 45.5519 2.27812 45.5519 4.27187C45.5519 6.26562 47.1738 7.8875 49.1676 7.8875C49.8395 7.8875 50.4629 7.69063 51.0019 7.37031L55.191 11.2547V16.4156L46.9379 14.5562L41.3832 13.3047C41.2613 13.2766 41.1332 13.2766 41.0113 13.3047L27.9207 16.2547V11.2547L32.1098 7.37031C32.6488 7.69063 33.2723 7.8875 33.9441 7.8875C35.9379 7.8875 37.5598 6.26562 37.5598 4.27187C37.5598 2.27812 35.9379 0.65625 33.9441 0.65625C31.9504 0.65625 30.3285 2.27812 30.3285 4.27187C30.3285 4.97969 30.541 5.63594 30.8926 6.19375L26.5004 10.2672C26.4152 10.3465 26.3473 10.4425 26.3008 10.5493C26.2543 10.656 26.2302 10.7711 26.2301 10.8875V16.6375L18.1676 18.4547C17.9803 18.4968 17.8129 18.6014 17.693 18.7514C17.5731 18.9014 17.5079 19.0877 17.5082 19.2797V20.7391H11.2941V12.5609C12.8801 12.1781 14.0645 10.7563 14.0645 9.05469C14.0645 7.06094 12.4426 5.43906 10.4488 5.43906C8.45508 5.43906 6.83164 7.05937 6.83164 9.05469C6.83164 10.7563 8.01758 12.1781 9.60195 12.5609V21.5844C9.60195 22.0516 9.98008 22.4297 10.4473 22.4297H17.5066V28.5141H10.5691C10.1863 26.9281 8.76445 25.7437 7.06289 25.7437C5.06914 25.7437 3.44727 27.3656 3.44727 29.3594C3.44727 31.3531 5.06914 32.975 7.06289 32.975C8.76445 32.975 10.1863 31.7906 10.5691 30.2047H17.5082V31.4953C17.5082 33.9484 17.7332 36.3547 18.1441 38.6922H12.9645C12.4973 38.6922 12.1191 39.0703 12.1191 39.5375V45.3516H5.90352C5.43633 45.3516 5.0582 45.7297 5.0582 46.1969V52.8562C5.0582 53.3234 5.43633 53.7016 5.90352 53.7016H12.1176V58.6719H5.90352C5.43633 58.6719 5.0582 59.05 5.0582 59.5172V66.1766C5.0582 66.6437 5.43633 67.0219 5.90352 67.0219H12.116V71.9922H5.90352C5.43633 71.9922 5.0582 72.3703 5.0582 72.8375V79.4969C5.0582 79.9641 5.43633 80.3422 5.90352 80.3422H62.3598C62.3613 80.3422 62.3629 80.3438 62.3645 80.3438H76.4848C76.952 80.3438 77.3301 79.9656 77.3301 79.4984V72.8406C77.3301 72.3734 76.952 71.9953 76.4848 71.9953H70.2707V67.0188H76.4848C76.952 67.0188 77.3301 66.6406 77.3301 66.1734V59.5156C77.3301 59.0484 76.952 58.6703 76.4848 58.6703H70.2723V53.7031H76.4848C76.952 53.7031 77.3301 53.325 77.3301 52.8578V46.2C77.3296 45.9757 77.2402 45.7607 77.0814 45.6023C76.9226 45.4438 76.7075 45.3548 76.4832 45.3547ZM73.9379 27.4344C75.0004 27.4344 75.8629 28.2984 75.8629 29.3594C75.8629 30.4203 74.9988 31.2844 73.9379 31.2844C72.8754 31.2844 72.0129 30.4203 72.0129 29.3594C72.0129 28.2969 72.877 27.4344 73.9379 27.4344ZM69.2426 9.05469C69.2426 7.99219 70.1066 7.12969 71.1676 7.12969C72.2285 7.12969 73.0926 7.99375 73.0926 9.05469C73.0926 10.1156 72.2285 10.9797 71.1676 10.9797C70.1066 10.9797 69.2426 10.1156 69.2426 9.05469ZM49.1676 6.19844C48.1051 6.19844 47.2426 5.33437 47.2426 4.27344C47.2426 3.2125 48.1066 2.34844 49.1676 2.34844C50.2301 2.34844 51.0926 3.2125 51.0926 4.27344C51.0926 5.33437 50.2285 6.19844 49.1676 6.19844ZM33.9441 2.34687C35.0066 2.34687 35.8691 3.21094 35.8691 4.27187C35.8691 5.33281 35.0051 6.19687 33.9441 6.19687C32.8816 6.19687 32.0191 5.33281 32.0191 4.27187C32.0191 3.21094 32.8832 2.34687 33.9441 2.34687ZM8.52383 9.05469C8.52383 7.99219 9.38789 7.12969 10.4488 7.12969C11.5098 7.12969 12.3738 7.99375 12.3738 9.05469C12.3738 10.1156 11.5098 10.9797 10.4488 10.9797C9.38633 10.9797 8.52383 10.1156 8.52383 9.05469ZM7.06289 31.2844C6.00039 31.2844 5.13789 30.4203 5.13789 29.3594C5.13789 28.2969 6.00195 27.4344 7.06289 27.4344C8.12383 27.4344 8.98789 28.2984 8.98789 29.3594C8.98789 30.4203 8.12383 31.2844 7.06289 31.2844ZM63.7895 40.9C63.8301 40.7234 63.8832 40.5516 63.9223 40.375H68.5785V45.3547H62.4879C62.5551 45.1688 62.6066 44.9766 62.6707 44.7891C62.8316 44.3219 62.9832 43.8531 63.127 43.3781C63.2285 43.0422 63.3238 42.7062 63.416 42.3687C63.552 41.8828 63.6754 41.3937 63.7895 40.9ZM54.4645 67.025V71.9938H42.0395V67.025H54.4645ZM42.9832 65.3313C43.3926 65.2047 43.8004 65.0625 44.2066 64.9141C44.302 64.8781 44.3988 64.8406 44.4941 64.8031C44.8363 64.6734 45.1754 64.5359 45.5145 64.3891C45.6363 64.3375 45.7582 64.2844 45.8785 64.2313C46.2629 64.0594 46.6441 63.8797 47.0223 63.6875C47.0613 63.6688 47.0988 63.6516 47.1379 63.6328C47.1473 63.6281 47.1566 63.6219 47.1676 63.6156C47.2488 63.5734 47.3301 63.5312 47.4098 63.4891V65.3297H42.9832V65.3313ZM49.1004 65.3313V62.525C49.2941 62.4047 49.4754 62.2672 49.666 62.1437C50.0363 61.9016 50.4066 61.6594 50.766 61.4C51.077 61.1766 51.3754 60.9359 51.6785 60.7C51.8238 60.5859 51.977 60.4797 52.1191 60.3609H61.5176V65.3266H55.3129C55.3051 65.3266 55.3004 65.3313 55.2926 65.3313H49.1004ZM54.0254 58.6703C54.0848 58.6125 54.1441 58.5547 54.202 58.4953C54.2863 58.4125 54.3769 58.3391 54.4598 58.2547V58.6688H54.0254V58.6703ZM56.1598 58.6703V56.3984C56.4363 56.0734 56.6973 55.7328 56.9629 55.3953C57.0582 55.2734 57.1613 55.1531 57.2535 55.0312C57.4832 54.7297 57.7035 54.4188 57.9254 54.1078C58.0223 53.9719 58.1301 53.8344 58.2238 53.6984H62.3488C62.3551 53.6984 62.3598 53.7016 62.3645 53.7016H68.5801V58.6688H62.3645C62.3629 58.6688 62.3613 58.6703 62.3598 58.6703H56.1598ZM59.3145 52.0094C59.3832 51.8969 59.4426 51.7766 59.5082 51.6641C59.7988 51.1734 60.0801 50.6781 60.3488 50.1703C60.4613 49.9563 60.5691 49.7391 60.6785 49.5219C60.9176 49.0484 61.1504 48.5703 61.3707 48.0828C61.4176 47.9797 61.4707 47.8828 61.516 47.7797V52.0094H59.3145ZM19.1988 19.9547L41.1973 14.9969L63.1879 19.9547V31.4953C63.1879 38.8687 61.1598 46.1578 57.0254 52.3C53.3879 57.7016 48.341 61.9672 42.041 63.8625C40.7988 64.2359 40.0754 63.7969 38.9254 63.3859C38.2482 63.1423 37.5824 62.8681 36.9301 62.5641C30.2738 59.4766 24.9926 53.4312 22.2473 46.6844C21.5035 44.8562 20.8504 43.0187 20.3691 41.1016C19.6051 38.0375 19.1973 34.8094 19.1973 31.4969V19.9547H19.1988ZM24.1676 53.7C24.2801 53.8625 24.4066 54.0266 24.5238 54.1891C24.7176 54.4594 24.9082 54.7297 25.1082 54.9938C25.466 55.4641 25.8395 55.9313 26.2316 56.3953V58.6719H13.8098V53.7031H20.0207C20.0254 53.7031 20.0285 53.7 20.0332 53.7H24.1676ZM20.8707 52.0094V47.7844C20.9316 47.9219 21.0035 48.0531 21.066 48.1906C21.2348 48.5625 21.4145 48.9266 21.5941 49.2922C21.7629 49.6344 21.9332 49.975 22.1129 50.3094C22.327 50.7094 22.5504 51.1 22.7785 51.4891C22.8785 51.6609 22.9691 51.8406 23.0723 52.0109H20.8707V52.0094ZM20.0238 67.025H26.2316V71.9938H13.8082V67.0234H20.016C20.0191 67.0219 20.0223 67.025 20.0238 67.025ZM20.8707 65.3313V60.3609H30.2707C30.4629 60.5187 30.666 60.6625 30.8629 60.8156C31.1004 61 31.3348 61.1891 31.5785 61.3641C32.0738 61.725 32.5801 62.0656 33.0957 62.3906C33.1613 62.4328 33.2238 62.4797 33.2895 62.5219V65.3313H20.8707ZM27.9207 58.6703V58.2422C27.9973 58.3187 28.0785 58.3875 28.1566 58.4641C28.227 58.5328 28.2957 58.6031 28.366 58.6719H27.9207V58.6703ZM27.9238 67.025H40.3488V71.9938H27.9238V67.025ZM34.9801 65.3313V63.4906C35.0707 63.5375 35.1613 63.5859 35.2535 63.6328C35.691 63.8562 36.1332 64.0625 36.577 64.2609C36.6504 64.2938 36.7223 64.325 36.7957 64.3562C37.1941 64.5297 37.5941 64.6922 37.9957 64.8438C38.0457 64.8625 38.0941 64.8828 38.1441 64.9C38.5629 65.0547 38.9832 65.2016 39.4051 65.3328H34.9801V65.3313ZM13.8098 40.3828H18.466C18.5082 40.5766 18.566 40.7641 18.6113 40.9578C18.9551 42.4203 19.5582 43.8453 19.866 45.3063C19.352 45.5219 13.8098 45.2437 13.8098 45.3516V40.3828ZM6.74883 52.0109V47.0422H12.9473C12.9535 47.0422 12.9582 47.0453 12.9629 47.0453H19.1738V52.0078H12.9645C12.9598 52.0078 12.9566 52.0109 12.952 52.0109H6.74883ZM6.74883 65.3313V60.3625H19.1738V65.3313H6.74883ZM19.1754 78.6516H6.74883V73.6828H19.1738V78.6516H19.1754ZM33.291 78.6516H20.866V73.6828H33.291V78.6516ZM47.4051 78.6516H34.9801V73.6828H47.4051V78.6516ZM61.5176 78.6516H49.0957V73.6828H55.2988C55.3035 73.6828 55.3066 73.6859 55.3113 73.6859H61.5176V78.6516ZM62.3676 71.9922H56.1582V67.0234H62.366C62.3754 67.0234 62.3848 67.0187 62.3941 67.0172H68.577V71.9938H62.3785C62.3754 71.9953 62.3723 71.9922 62.3676 71.9922ZM75.6379 73.6859V78.6531H63.2129V73.6859H75.6379ZM75.6379 60.3609V65.3266H63.2113V60.3609H69.4254C69.427 60.3609 69.4285 60.3594 69.4301 60.3594H75.6379V60.3609ZM75.6379 52.0125H69.4426C69.4363 52.0125 69.4316 52.0094 69.4254 52.0094H63.2113V47.0469H75.6379V52.0125ZM36.7973 60.6234C38.1582 61.3172 39.5629 61.8687 40.9691 62.2656C41.0441 62.2859 41.1207 62.2969 41.1973 62.2969C41.2738 62.2969 41.352 62.2859 41.4254 62.2656C42.8316 61.8687 44.2363 61.3172 45.5973 60.6234C55.2551 55.6859 61.4973 44.2516 61.4973 31.4969V21.9844C61.4973 21.5891 61.2238 21.2469 60.8379 21.1594L41.3832 16.7703C41.2613 16.7422 41.1332 16.7422 41.0113 16.7703L21.5488 21.1594C21.3615 21.2014 21.1941 21.3061 21.0742 21.4561C20.9544 21.606 20.8892 21.7924 20.8895 21.9844V31.4953C20.8895 44.2531 27.1332 55.6859 36.7973 60.6234ZM22.5801 22.6609L41.1973 18.4641L59.8066 22.6609V31.4969C59.8066 43.6234 53.927 54.4656 44.8285 59.1172C43.641 59.7219 42.4207 60.2109 41.1957 60.5719C39.9723 60.2125 38.752 59.7234 37.5645 59.1172C28.4613 54.4672 22.5785 43.625 22.5785 31.4969V22.6609H22.5801ZM41.191 54.0094H41.2004C45.8598 54.0062 50.3207 51.4281 52.0504 47.7391C53.6535 44.3187 52.6535 41.0031 51.7613 38.8047V38.8031C51.4535 38.0469 51.0832 37.2469 50.5926 36.2828C49.6582 34.4453 48.5488 32.6438 47.4738 30.9016L46.852 29.8922C46.6441 29.5547 46.2301 29.4047 45.8551 29.5344C45.4801 29.6641 45.2457 30.0359 45.291 30.4297C45.3223 30.7016 45.3316 30.975 45.3191 31.2437C45.3129 31.3937 45.291 31.85 45.1316 32.4047C44.9723 32.9594 44.702 33.4969 44.3379 33.9906C44.0129 33.7094 43.6457 33.3797 43.5504 33.2875C43.1323 32.8684 42.7657 32.4011 42.4582 31.8953C41.8738 30.9375 41.4926 29.8266 41.352 28.6828C41.1426 26.9641 41.4332 25.1047 42.2145 23.1594C42.3676 22.7797 42.2254 22.3453 41.8785 22.1266C41.5332 21.9109 41.0816 21.9703 40.8035 22.275C37.6113 25.7859 35.5957 30.0062 34.977 34.4813C34.8816 35.1688 34.8207 35.8594 34.791 36.5516C34.6832 36.3594 34.5832 36.1625 34.4957 35.9609C34.2457 35.3891 34.1285 34.8641 34.0801 34.6016C34.0035 34.1906 33.9707 33.7703 33.9801 33.35C33.9879 32.9531 33.7207 32.6031 33.3348 32.5109C32.9488 32.4156 32.5504 32.6047 32.3754 32.9609C31.177 35.4109 30.3551 37.85 29.9363 40.1984C29.9348 40.2047 29.9113 40.3391 29.9098 40.3453C29.452 42.6594 29.1051 45.1281 30.302 47.6547C32.1832 51.5156 36.4582 54.0094 41.191 54.0094ZM46.116 49.5516C45.2832 51.2312 43.3535 52.3172 41.202 52.3188H41.1941C38.7191 52.3188 36.9223 50.9172 36.3004 49.6156C35.7801 48.525 35.8395 47.3359 36.491 45.7563H36.4926C36.6473 45.3813 36.8395 44.9734 37.1004 44.4688C37.3816 43.9266 37.6973 43.3812 38.0238 42.8422C38.216 43.2016 38.466 43.5406 38.766 43.8422C39.427 44.5031 40.1566 43.7844 40.8035 43.1516C41.1117 42.8481 41.3824 42.5086 41.6098 42.1406C42.0254 41.4734 42.3004 40.7016 42.4082 39.9062C42.8941 40.9094 43.2191 41.9687 43.3738 43.0562C43.477 43.7875 43.502 44.5266 43.4488 45.2516C43.4363 45.4167 43.4728 45.5818 43.5537 45.7264C43.6346 45.8709 43.7562 45.9883 43.9035 46.0641C44.2035 46.2187 44.5676 46.1828 44.8285 45.9672C45.227 45.6406 45.5723 45.2453 45.8457 44.8063C46.0004 45.3 46.1223 45.7875 46.2098 46.2688L46.227 46.3609C46.491 47.6859 46.5582 48.6328 46.116 49.5516ZM31.5691 40.6703L31.5988 40.5031C31.8473 39.1141 32.2457 37.6906 32.791 36.2484C32.8379 36.3734 32.8895 36.5031 32.9457 36.6344C33.4379 37.7641 34.191 38.775 35.127 39.5578C35.2543 39.6639 35.4099 39.7304 35.5746 39.749C35.7392 39.7676 35.9057 39.7375 36.0535 39.6625C36.2013 39.5871 36.3235 39.4698 36.4049 39.3253C36.4864 39.1808 36.5234 39.0154 36.5113 38.85C36.4145 37.4781 36.4613 36.0859 36.6504 34.7125C37.0473 31.85 38.0645 29.0969 39.6348 26.5922C39.5676 27.3734 39.5801 28.1406 39.6707 28.8891C39.841 30.2906 40.2926 31.5984 41.0113 32.775C41.3891 33.3953 41.8391 33.9686 42.352 34.4828C43.8707 36.0031 44.3238 35.9984 44.4629 35.9953C44.6879 35.9922 44.9098 35.8984 45.066 35.7375C45.8551 34.925 46.4316 33.9578 46.7363 32.9359C47.5613 34.2859 48.3801 35.6656 49.0816 37.05C49.5488 37.9703 49.9019 38.7297 50.191 39.4406C51.4363 42.5078 51.5379 44.8453 50.5176 47.0203C49.977 48.1734 48.977 49.3625 47.6144 50.325C47.6191 50.3141 47.6269 50.3047 47.6332 50.2953C48.3535 48.8016 48.1395 47.3109 47.8691 45.9609C47.627 44.6281 47.1551 43.2516 46.4676 41.8703C46.382 41.6979 46.24 41.5599 46.0653 41.4792C45.8905 41.3985 45.6934 41.3799 45.5066 41.4266C45.2113 41.5 44.9848 41.7234 44.9004 42.0031C44.427 39.7687 43.3238 37.6719 41.6816 35.8969C41.4051 35.5969 40.9504 35.5406 40.6082 35.7594C40.4411 35.8658 40.3167 36.0275 40.2567 36.2162C40.1968 36.405 40.205 36.6089 40.2801 36.7922C40.6926 37.8016 40.8473 38.7594 40.7379 39.6375C40.666 40.2125 40.4707 40.7719 40.1723 41.2516C40.016 41.5062 39.8285 41.7391 39.6223 41.9437C39.602 41.9641 39.5629 41.9984 39.5145 42.0406C39.4441 41.9062 39.3863 41.7687 39.3457 41.6281C39.2691 41.3641 39.2598 41.1484 39.2551 41.0781C39.2473 40.925 39.2566 40.7938 39.2691 40.6906C39.2905 40.5 39.2465 40.3077 39.1443 40.1453C39.0421 39.9829 38.8878 39.8601 38.7066 39.7969C38.3316 39.6641 37.9191 39.8141 37.7113 40.1484L37.3566 40.7156C36.7535 41.6781 36.1285 42.6719 35.6004 43.6937C35.3176 44.2406 35.1051 44.6906 34.9316 45.1109C34.4051 46.3859 33.8176 48.3109 34.7707 50.3266C33.5129 49.4344 32.491 48.2797 31.8285 46.9219C30.8535 44.8672 31.1488 42.7938 31.5691 40.6703Z" fill="#FCD535"/>
</g>
</g>
<defs>
<clipPath id="clip0_596_924">
<rect width="80" height="80" fill="white" transform="translate(0.5 0.5)"/>
</clipPath>
</defs>
</svg>
