<svg width="80" height="80" viewBox="0 0 80 80" fill="none" xmlns="http://www.w3.org/2000/svg">
<g id="Frame">
<g id="Group">
<path id="Vector" d="M67.5 15H63.75V7.5C63.748 5.84301 63.0889 4.25445 61.9172 3.08277C60.7456 1.9111 59.157 1.25198 57.5 1.25H22.5C20.843 1.25198 19.2544 1.9111 18.0828 3.08277C16.9111 4.25445 16.252 5.84301 16.25 7.5V15H12.5C12.1685 15 11.8505 15.1317 11.6161 15.3661C11.3817 15.6005 11.25 15.9185 11.25 16.25V55C11.25 55.3315 11.3817 55.6495 11.6161 55.8839C11.8505 56.1183 12.1685 56.25 12.5 56.25H16.25V72.5C16.252 74.157 16.9111 75.7456 18.0828 76.9172C19.2544 78.0889 20.843 78.748 22.5 78.75H57.5C59.157 78.748 60.7456 78.0889 61.9172 76.9172C63.0889 75.7456 63.748 74.157 63.75 72.5V56.25H67.5C67.8315 56.25 68.1495 56.1183 68.3839 55.8839C68.6183 55.6495 68.75 55.3315 68.75 55V16.25C68.75 15.9185 68.6183 15.6005 68.3839 15.3661C68.1495 15.1317 67.8315 15 67.5 15ZM18.75 7.5C18.751 6.50574 19.1464 5.55249 19.8494 4.84945C20.5525 4.1464 21.5057 3.75099 22.5 3.75H57.5C58.4943 3.75099 59.4475 4.1464 60.1506 4.84945C60.8536 5.55249 61.249 6.50574 61.25 7.5V15H18.75V7.5ZM13.75 17.5H66.25V25H13.75V17.5ZM61.25 72.5C61.249 73.4943 60.8536 74.4475 60.1506 75.1506C59.4475 75.8536 58.4943 76.249 57.5 76.25H22.5C21.5057 76.249 20.5525 75.8536 19.8494 75.1506C19.1464 74.4475 18.751 73.4943 18.75 72.5V66.25H61.25V72.5ZM61.25 63.75H18.75V56.25H61.25V63.75ZM66.25 53.75H13.75V27.5H66.25V53.75Z" fill="#FCD535"/>
<path id="Vector_2" d="M62.5 22.5C63.1904 22.5 63.75 21.9404 63.75 21.25C63.75 20.5596 63.1904 20 62.5 20C61.8096 20 61.25 20.5596 61.25 21.25C61.25 21.9404 61.8096 22.5 62.5 22.5Z" fill="#FCD535"/>
<path id="Vector_3" d="M57.5 22.5C58.1904 22.5 58.75 21.9404 58.75 21.25C58.75 20.5596 58.1904 20 57.5 20C56.8096 20 56.25 20.5596 56.25 21.25C56.25 21.9404 56.8096 22.5 57.5 22.5Z" fill="#FCD535"/>
<path id="Vector_4" d="M52.5 22.5C53.1904 22.5 53.75 21.9404 53.75 21.25C53.75 20.5596 53.1904 20 52.5 20C51.8096 20 51.25 20.5596 51.25 21.25C51.25 21.9404 51.8096 22.5 52.5 22.5Z" fill="#FCD535"/>
<path id="Vector_5" d="M40 75C40.7417 75 41.4667 74.7801 42.0834 74.368C42.7001 73.956 43.1807 73.3703 43.4645 72.6851C43.7484 71.9998 43.8226 71.2458 43.6779 70.5184C43.5333 69.791 43.1761 69.1228 42.6516 68.5984C42.1272 68.0739 41.459 67.7168 40.7316 67.5721C40.0042 67.4274 39.2502 67.5016 38.5649 67.7855C37.8797 68.0693 37.294 68.5499 36.882 69.1666C36.4699 69.7833 36.25 70.5083 36.25 71.25C36.251 72.2443 36.6464 73.1975 37.3494 73.9006C38.0525 74.6036 39.0057 74.999 40 75ZM40 70C40.2472 70 40.4889 70.0733 40.6945 70.2107C40.9 70.348 41.0602 70.5432 41.1548 70.7716C41.2495 71.0001 41.2742 71.2514 41.226 71.4939C41.1777 71.7363 41.0587 71.9591 40.8839 72.1339C40.7091 72.3087 40.4863 72.4277 40.2439 72.476C40.0014 72.5242 39.7501 72.4995 39.5216 72.4048C39.2932 72.3102 39.098 72.15 38.9607 71.9445C38.8233 71.7389 38.75 71.4972 38.75 71.25C38.75 70.9185 38.8817 70.6005 39.1161 70.3661C39.3505 70.1317 39.6685 70 40 70ZM50 72.5H55C55.3315 72.5 55.6495 72.3683 55.8839 72.1339C56.1183 71.8995 56.25 71.5815 56.25 71.25C56.25 70.9185 56.1183 70.6005 55.8839 70.3661C55.6495 70.1317 55.3315 70 55 70H50C49.6685 70 49.3505 70.1317 49.1161 70.3661C48.8817 70.6005 48.75 70.9185 48.75 71.25C48.75 71.5815 48.8817 71.8995 49.1161 72.1339C49.3505 72.3683 49.6685 72.5 50 72.5ZM25 72.5H30C30.3315 72.5 30.6495 72.3683 30.8839 72.1339C31.1183 71.8995 31.25 71.5815 31.25 71.25C31.25 70.9185 31.1183 70.6005 30.8839 70.3661C30.6495 70.1317 30.3315 70 30 70H25C24.6685 70 24.3505 70.1317 24.1161 70.3661C23.8817 70.6005 23.75 70.9185 23.75 71.25C23.75 71.5815 23.8817 71.8995 24.1161 72.1339C24.3505 72.3683 24.6685 72.5 25 72.5ZM45 6.25H35C34.6685 6.25 34.3505 6.3817 34.1161 6.61612C33.8817 6.85054 33.75 7.16848 33.75 7.5C33.75 7.83152 33.8817 8.14946 34.1161 8.38388C34.3505 8.6183 34.6685 8.75 35 8.75H45C45.3315 8.75 45.6495 8.6183 45.8839 8.38388C46.1183 8.14946 46.25 7.83152 46.25 7.5C46.25 7.16848 46.1183 6.85054 45.8839 6.61612C45.6495 6.3817 45.3315 6.25 45 6.25Z" fill="#FCD535"/>
<path id="Vector_6" d="M50 8.75C50.6904 8.75 51.25 8.19036 51.25 7.5C51.25 6.80964 50.6904 6.25 50 6.25C49.3096 6.25 48.75 6.80964 48.75 7.5C48.75 8.19036 49.3096 8.75 50 8.75Z" fill="#FCD535"/>
<path id="Vector_7" d="M29.741 47.1337C29.9767 47.3614 30.2925 47.4874 30.6202 47.4846C30.948 47.4817 31.2615 47.3503 31.4933 47.1185C31.725 46.8868 31.8565 46.5732 31.8593 46.2455C31.8622 45.9177 31.7362 45.602 31.5085 45.3662L26.1422 40L31.5085 34.6337C31.7362 34.398 31.8622 34.0822 31.8593 33.7545C31.8565 33.4267 31.725 33.1132 31.4933 32.8815C31.2615 32.6497 30.948 32.5182 30.6202 32.5154C30.2925 32.5125 29.9767 32.6385 29.741 32.8662L23.491 39.1162C23.2566 39.3506 23.125 39.6685 23.125 40C23.125 40.3314 23.2566 40.6493 23.491 40.8837L29.741 47.1337ZM48.491 47.1337C48.7254 47.3681 49.0433 47.4997 49.3747 47.4997C49.7062 47.4997 50.0241 47.3681 50.2585 47.1337L56.5085 40.8837C56.7428 40.6493 56.8745 40.3314 56.8745 40C56.8745 39.6685 56.7428 39.3506 56.5085 39.1162L50.2585 32.8662C50.0227 32.6385 49.707 32.5125 49.3792 32.5154C49.0515 32.5182 48.738 32.6497 48.5062 32.8815C48.2744 33.1132 48.143 33.4267 48.1401 33.7545C48.1373 34.0822 48.2633 34.398 48.491 34.6337L53.8572 40L48.491 45.3662C48.2566 45.6006 48.125 45.9185 48.125 46.25C48.125 46.5814 48.2566 46.8993 48.491 47.1337ZM35.7572 49.9C35.9082 49.9646 36.0704 49.9989 36.2345 50.0008C36.3987 50.0027 36.5617 49.9723 36.7141 49.9112C36.8665 49.8502 37.0054 49.7597 37.1228 49.6449C37.2402 49.5302 37.3339 49.3934 37.3985 49.2425L44.8985 31.7425C45.0236 31.4388 45.0241 31.0981 44.9 30.794C44.7759 30.4899 44.5371 30.2469 44.2353 30.1175C43.9334 29.9881 43.5927 29.9827 43.2869 30.1024C42.9811 30.2222 42.7347 30.4575 42.601 30.7575L35.101 48.2575C34.9704 48.5622 34.9662 48.9062 35.0892 49.214C35.2123 49.5218 35.4526 49.7693 35.7572 49.9Z" fill="#FCD535"/>
</g>
</g>
</svg>
