<svg width="80" height="80" viewBox="0 0 80 80" fill="none" xmlns="http://www.w3.org/2000/svg">
<g id="Frame" clip-path="url(#clip0_596_2968)">
<g id="Group">
<path id="Vector" d="M27.0968 38.7097H24.5161C23.0932 38.7097 21.9355 39.8675 21.9355 41.2904V46.4517C21.9355 47.8746 23.0932 49.0323 24.5161 49.0323H27.0968C29.9427 49.0323 32.2581 46.717 32.2581 43.871C32.2581 41.025 29.9427 38.7097 27.0968 38.7097ZM27.0968 46.4517H24.5161V41.2904H27.0968C28.5197 41.2904 29.6774 42.4481 29.6774 43.871C29.6774 45.2939 28.5197 46.4517 27.0968 46.4517ZM42.5806 46.2423C42.5801 46.2917 42.5622 46.3394 42.53 46.3768C42.4977 46.4143 42.4533 46.4392 42.4045 46.4471C42.3558 46.455 42.3057 46.4454 42.2633 46.4201C42.2209 46.3947 42.1888 46.3551 42.1727 46.3084L40.2756 40.6173C40.0909 40.0615 39.7357 39.578 39.2606 39.2356C38.7854 38.8932 38.2144 38.7091 37.6287 38.7097C36.0903 38.7097 34.8387 39.9613 34.8387 41.4997V49.0323H37.4194V41.4997C37.4199 41.4503 37.4378 41.4027 37.47 41.3652C37.5023 41.3277 37.5467 41.3028 37.5955 41.2949C37.6442 41.287 37.6943 41.2966 37.7367 41.322C37.7791 41.3473 37.8112 41.3869 37.8273 41.4336L39.7244 47.1247C39.9091 47.6805 40.2643 48.164 40.7394 48.5064C41.2146 48.8489 41.7856 49.0329 42.3713 49.0323C43.9097 49.0323 45.1613 47.7807 45.1613 46.2423V38.7097H42.5806V46.2423ZM47.7419 41.595C47.7419 42.6946 48.3529 43.6834 49.3369 44.1757L52.7347 45.8744C52.7854 45.8996 52.8281 45.9384 52.8579 45.9866C52.8877 46.0348 52.9034 46.0903 52.9032 46.147C52.9031 46.2277 52.871 46.3052 52.8139 46.3623C52.7567 46.4194 52.6793 46.4515 52.5985 46.4517H47.7419V49.0323H52.5985C54.1895 49.0323 55.4839 47.7381 55.4839 46.147C55.4839 45.0475 54.8729 44.0586 53.8889 43.5663L50.4911 41.8676C50.4404 41.8425 50.3977 41.8036 50.3679 41.7554C50.3381 41.7072 50.3224 41.6517 50.3226 41.595C50.3226 41.4271 50.4594 41.2904 50.6273 41.2904H55.4839V38.7097H50.6273C49.0361 38.7097 47.7419 40.0039 47.7419 41.595Z" fill="#FCD535"/>
<path id="Vector_2" d="M73.5484 7.7419C74.261 7.7419 74.8387 7.1642 74.8387 6.45158C74.8387 5.73895 74.261 5.16125 73.5484 5.16125C72.8358 5.16125 72.2581 5.73895 72.2581 6.45158C72.2581 7.1642 72.8358 7.7419 73.5484 7.7419Z" fill="#FCD535"/>
<path id="Vector_3" d="M55.4839 15.4839H58.0645V18.0645H55.4839V15.4839ZM60.6452 15.4839H63.2258V18.0645H60.6452V15.4839ZM65.8065 15.4839H68.3871V18.0645H65.8065V15.4839Z" fill="#FCD535"/>
<path id="Vector_4" d="M76.129 53.3961C76.129 53.2729 76.1582 53.1495 76.2131 53.0395L77.699 50.0679L73.8031 46.1719L70.9677 47.5897V24.5161C70.9677 22.3818 69.2311 20.6452 67.0968 20.6452H41.2903C41.2903 19.7713 41.2353 18.9102 41.1294 18.0645H52.9032V15.4839H40.6371C40.4097 14.6057 40.1242 13.7436 39.7826 12.9032H48.3871C48.7876 12.9023 49.1824 12.8086 49.5406 12.6295C49.8988 12.4504 50.2107 12.1908 50.4518 11.871L53.5484 7.74194H67.2266C67.8261 10.6831 70.4327 12.9032 73.5484 12.9032C77.1058 12.9032 80 10.009 80 6.45161C80 2.89419 77.1058 0 73.5484 0C70.4327 0 67.8261 2.22016 67.2266 5.16129H53.5484C53.1479 5.16226 52.7531 5.25596 52.3949 5.43505C52.0367 5.61415 51.7248 5.87376 51.4837 6.19355L48.3871 10.3226H38.5189C34.944 4.15645 28.271 0 20.6452 0C9.26145 0 0 9.26145 0 20.6452C0 27.5311 3.36306 33.8594 9.03226 37.7163V63.2258C9.03226 65.3602 10.7689 67.0968 12.9032 67.0968H30.9677V72.2581H23.2258C20.3798 72.2581 18.0645 74.5734 18.0645 77.4193C18.0645 78.8423 19.2223 80 20.6452 80H59.3548C60.7777 80 61.9355 78.8423 61.9355 77.4193C61.9355 74.5734 59.6202 72.2581 56.7742 72.2581H49.0323V67.0968H54.9495L57.8098 69.9571L60.7811 68.4713C60.9027 68.4107 61.0378 68.3822 61.1735 68.3884C61.3093 68.3946 61.4412 68.4353 61.5567 68.5067C61.6723 68.5781 61.7678 68.6779 61.8341 68.7965C61.9003 68.9151 61.9352 69.0486 61.9355 69.1845V72.2581H69.6774V69.1845C69.6777 69.0487 69.7126 68.9151 69.7788 68.7966C69.845 68.678 69.9405 68.5782 70.056 68.5068C70.1715 68.4354 70.3034 68.3946 70.4391 68.3884C70.5748 68.3821 70.7098 68.4106 70.8315 68.4711L73.8031 69.9571L77.699 66.0611L76.2132 63.0898C76.1526 62.9682 76.1241 62.8332 76.1303 62.6974C76.1365 62.5617 76.1772 62.4298 76.2487 62.3142C76.3201 62.1986 76.4198 62.1032 76.5384 62.0369C76.657 61.9706 76.7906 61.9357 76.9265 61.9355H80V54.1935H76.9265C76.715 54.1933 76.5124 54.1092 76.3629 53.9597C76.2134 53.8102 76.1293 53.6075 76.129 53.3961ZM73.5484 2.58065C75.6827 2.58065 77.4193 4.31726 77.4193 6.45161C77.4193 8.58597 75.6827 10.3226 73.5484 10.3226C71.414 10.3226 69.6774 8.58597 69.6774 6.45161C69.6774 4.31726 71.414 2.58065 73.5484 2.58065ZM30.9677 20.6452C30.9677 18.899 30.7869 17.1703 30.4361 15.4839H37.9573C38.4573 17.1587 38.7108 18.8973 38.7098 20.6452H30.9677ZM2.58065 20.6452C2.57968 18.8973 2.8332 17.1587 3.33323 15.4839H10.8544C10.5009 17.1816 10.3227 18.9111 10.3226 20.6452C10.3226 20.9679 10.3306 21.2924 10.3431 21.6163C9.54 22.3261 9.03226 23.3627 9.03226 24.5161V25.8064H3.32581C2.83053 24.1308 2.57956 22.3925 2.58065 20.6452ZM12.9032 20.6452C12.9032 18.8948 13.1055 17.164 13.4969 15.4839H27.7935C28.1879 17.176 28.3871 18.9077 28.3873 20.6452H12.9032ZM20.6452 3.24984L22.7585 5.665C24.619 7.79159 26.0669 10.2462 27.0282 12.9032H14.2623C15.2234 10.2462 16.6713 7.79164 18.5318 5.66516L20.6452 3.24984ZM36.9644 12.9032H29.7552C28.6984 9.61013 26.9783 6.56842 24.7008 3.96565L23.7189 2.84339C29.5794 3.85226 34.4829 7.69371 36.9644 12.9032ZM17.5718 2.84339L16.5897 3.96581C14.3122 6.56851 12.592 9.61017 11.5352 12.9032H4.32597C6.80742 7.69371 11.7111 3.8521 17.5718 2.84339ZM4.31097 28.3871H9.03226V34.4847C7.01435 32.7963 5.4129 30.7153 4.31097 28.3871ZM59.3565 77.4193H20.6452C20.6452 75.9965 21.8029 74.8387 23.2258 74.8387H56.7742C58.1971 74.8387 59.3548 75.9965 59.3565 77.4193ZM46.4516 72.2581H33.5484V67.0968H46.4516V72.2581ZM55.3998 63.0895L54.6865 64.5161H46.4516V61.9355H43.871V64.5161H41.2903V61.9355H38.7097V64.5161H36.129V61.9355H33.5484V64.5161H12.9032C12.1918 64.5161 11.6129 63.9373 11.6129 63.2258V24.5161C11.6129 23.8047 12.1918 23.2258 12.9032 23.2258H67.0968C67.8082 23.2258 68.3871 23.8047 68.3871 24.5161V43.871H65.8064V28.3871C65.8064 26.9642 64.6487 25.8064 63.2258 25.8064H16.7742C15.3513 25.8064 14.1935 26.9642 14.1935 28.3871V56.7742C14.1935 58.1971 15.3513 59.3548 16.7742 59.3548H51.6129V61.9355H54.6865C54.8223 61.9357 54.9558 61.9706 55.0744 62.0369C55.193 62.1031 55.2927 62.1985 55.3641 62.3141C55.4356 62.4296 55.4763 62.5615 55.4826 62.6972C55.4888 62.8329 55.4603 62.9679 55.3998 63.0895ZM55.3997 53.0392C55.4603 53.1608 55.4888 53.2959 55.4826 53.4316C55.4764 53.5673 55.4357 53.6992 55.3642 53.8148C55.2928 53.9304 55.1931 54.0258 55.0745 54.0921C54.9559 54.1584 54.8223 54.1933 54.6865 54.1935H51.6129V56.7742H16.7742V28.3871H63.2258V43.871H61.9355V46.9445C61.9352 47.0804 61.9003 47.2139 61.8341 47.3325C61.7679 47.4511 61.6724 47.5508 61.5569 47.6222C61.4414 47.6936 61.3095 47.7344 61.1738 47.7406C61.0381 47.7469 60.9031 47.7184 60.7814 47.6579L57.8098 46.1719L53.9139 50.0679L55.3997 53.0392ZM77.4193 59.3548H76.9265C75.0639 59.3548 73.5484 60.8703 73.5484 62.7329C73.5484 63.2544 73.6718 63.7768 73.905 64.2437L74.559 65.5516L73.2937 66.8169L71.9855 66.1627C71.5162 65.929 70.9992 65.807 70.475 65.8063C68.6123 65.8064 67.0968 67.3219 67.0968 69.1845V69.6774H64.5161V69.1845C64.5161 67.3218 63.0006 65.8064 61.1381 65.8064C60.6166 65.8064 60.0942 65.9298 59.6273 66.1631L58.3194 66.8171L57.054 65.5518L57.7082 64.2435C57.9419 63.7743 58.0639 63.2573 58.0647 62.7331C58.0647 60.8703 56.5492 59.355 54.6866 59.355H54.1935V56.7744H54.6865C56.5492 56.7744 58.0645 55.2589 58.0645 53.3963C58.0645 52.8748 57.9411 52.3524 57.7079 51.8855L57.0539 50.5776L58.3192 49.3123L59.6274 49.9664C60.0967 50.2002 60.6137 50.3222 61.1379 50.3229C63.0006 50.3229 64.516 48.8074 64.516 46.9448V46.4516H67.0966V46.9445C67.0966 48.8073 68.6121 50.3226 70.4747 50.3226C70.9961 50.3226 71.5185 50.1992 71.9855 49.966L73.2934 49.3119L74.5587 50.5773L73.9045 51.8855C73.6708 52.3547 73.5488 52.8717 73.5481 53.396C73.5481 55.2587 75.0635 56.774 76.9261 56.774H77.4193V59.3548Z" fill="#FCD535"/>
<path id="Vector_5" d="M65.8064 51.6129C62.249 51.6129 59.3548 54.5071 59.3548 58.0645C59.3548 61.6219 62.249 64.5161 65.8064 64.5161C69.3639 64.5161 72.2581 61.6219 72.2581 58.0645C72.2581 54.5071 69.3639 51.6129 65.8064 51.6129ZM65.8064 61.9355C63.6721 61.9355 61.9355 60.1989 61.9355 58.0645C61.9355 55.9302 63.6721 54.1936 65.8064 54.1936C67.9408 54.1936 69.6774 55.9302 69.6774 58.0645C69.6774 60.1989 67.9408 61.9355 65.8064 61.9355Z" fill="#FCD535"/>
</g>
</g>
<defs>
<clipPath id="clip0_596_2968">
<rect width="80" height="80" fill="white"/>
</clipPath>
</defs>
</svg>
