<svg width="80" height="80" viewBox="0 0 80 80" fill="none" xmlns="http://www.w3.org/2000/svg">
<g id="Frame">
<g id="Group">
<path id="Vector" d="M69.6875 46.25C67.6506 46.25 65.9139 47.5564 65.2687 49.375H61.875V41.5625H65C71.0311 41.5625 75.9375 36.6559 75.9375 30.625C75.9375 25.4045 72.2766 21.0277 67.3614 19.9459C66.9069 14.0986 62.0034 9.47922 56.0417 9.47922C54.3309 9.47922 52.662 9.86016 51.1397 10.5906C48.2234 6.52969 43.4861 4.0625 38.4375 4.0625C33.3583 4.0625 28.5734 6.57297 25.6637 10.6898C24.7342 10.4385 23.7754 10.3117 22.8125 10.3125C17.1614 10.3125 12.4975 14.6205 11.9325 20.1247C7.30391 21.4634 4.0625 25.6942 4.0625 30.625C4.0625 36.6559 8.96906 41.5625 15 41.5625H19.6875V49.375H16.2937C15.6488 47.5564 13.9119 46.25 11.875 46.25C9.29031 46.25 7.1875 48.3528 7.1875 50.9375C7.1875 53.5222 9.29031 55.625 11.875 55.625C13.9119 55.625 15.6488 54.3186 16.2937 52.5H21.25C22.113 52.5 22.8125 51.8003 22.8125 50.9375V41.5625H29.0625V61.875H24.1063C23.4613 60.0564 21.7244 58.75 19.6875 58.75C17.1028 58.75 15 60.8528 15 63.4375C15 66.0222 17.1028 68.125 19.6875 68.125C21.7244 68.125 23.4613 66.8186 24.1063 65H30.625C31.488 65 32.1875 64.3003 32.1875 63.4375V41.5625H38.4375V66.8312C36.6189 67.4764 35.3125 69.2131 35.3125 71.25C35.3125 73.8347 37.4153 75.9375 40 75.9375C42.5847 75.9375 44.6875 73.8347 44.6875 71.25C44.6875 69.2131 43.3811 67.4764 41.5625 66.8312V41.5625H47.8125V63.4375C47.8125 64.3003 48.512 65 49.375 65H57.4562C58.1014 66.8186 59.8381 68.125 61.875 68.125C64.4597 68.125 66.5625 66.0222 66.5625 63.4375C66.5625 60.8528 64.4597 58.75 61.875 58.75C59.8381 58.75 58.1014 60.0564 57.4562 61.875H50.9375V41.5625H58.75V50.9375C58.75 51.8003 59.4495 52.5 60.3125 52.5H65.2687C65.9139 54.3186 67.6506 55.625 69.6875 55.625C72.2722 55.625 74.375 53.5222 74.375 50.9375C74.375 48.3528 72.2722 46.25 69.6875 46.25ZM11.875 52.5C11.0134 52.5 10.3125 51.7991 10.3125 50.9375C10.3125 50.0759 11.0134 49.375 11.875 49.375C12.7366 49.375 13.4375 50.0759 13.4375 50.9375C13.4375 51.7991 12.7366 52.5 11.875 52.5ZM19.6875 65C18.8259 65 18.125 64.2991 18.125 63.4375C18.125 62.5759 18.8259 61.875 19.6875 61.875C20.5491 61.875 21.25 62.5759 21.25 63.4375C21.25 64.2991 20.5491 65 19.6875 65ZM40 72.8125C39.1384 72.8125 38.4375 72.1116 38.4375 71.25C38.4375 70.3884 39.1384 69.6875 40 69.6875C40.8616 69.6875 41.5625 70.3884 41.5625 71.25C41.5625 72.1116 40.8616 72.8125 40 72.8125ZM61.875 61.875C62.7366 61.875 63.4375 62.5759 63.4375 63.4375C63.4375 64.2991 62.7366 65 61.875 65C61.0134 65 60.3125 64.2991 60.3125 63.4375C60.3125 62.5759 61.0134 61.875 61.875 61.875ZM7.1875 30.625C7.1875 26.7938 9.92594 23.5545 13.6989 22.9227C14.0672 22.861 14.4012 22.6694 14.6404 22.3828C14.8797 22.0961 15.0083 21.7332 15.0031 21.3598C14.9478 16.9548 18.505 13.4375 22.8125 13.4375C23.8131 13.4364 24.8045 13.6286 25.7322 14.0036C26.0791 14.1436 26.4648 14.1544 26.819 14.0341C27.1733 13.9139 27.4726 13.6705 27.6627 13.3483C29.9039 9.54813 34.0327 7.1875 38.4375 7.1875C42.8927 7.1875 47.0447 9.58937 49.2738 13.4558C49.7253 14.2389 50.7438 14.4747 51.4927 13.9764C52.8425 13.0787 54.4155 12.6042 56.0417 12.6042C60.6795 12.6042 64.477 16.4773 64.2609 21.2169C64.2425 21.6197 64.3806 22.0141 64.6463 22.3175C64.9119 22.6209 65.2846 22.8098 65.6864 22.8447C69.6825 23.1919 72.8125 26.6095 72.8125 30.625C72.8125 34.9328 69.3078 38.4375 65 38.4375H15C10.6922 38.4375 7.1875 34.9328 7.1875 30.625ZM69.6875 52.5C68.8259 52.5 68.125 51.7991 68.125 50.9375C68.125 50.0759 68.8259 49.375 69.6875 49.375C70.5491 49.375 71.25 50.0759 71.25 50.9375C71.25 51.7991 70.5491 52.5 69.6875 52.5Z" fill="#FCD535"/>
<path id="Vector_2" d="M63.5164 27.4446C65.5264 27.9949 67.2381 29.2685 68.3365 31.0305C68.7922 31.7618 69.7554 31.9872 70.4889 31.53C71.2214 31.0736 71.445 30.1099 70.9884 29.3775C69.4731 26.9461 67.1123 25.1891 64.3415 24.4305C63.5092 24.2022 62.6498 24.6925 62.4219 25.5249C62.194 26.3572 62.684 27.2166 63.5164 27.4446Z" fill="#FCD535"/>
</g>
</g>
</svg>
