<svg width="162" height="69" viewBox="0 0 162 69" fill="none" xmlns="http://www.w3.org/2000/svg">
<path d="M16.9371 57.1118L24.1402 60.621C24.546 60.8181 24.8298 61.0148 24.9922 61.2116C25.1544 61.401 25.2356 61.632 25.2356 61.9045C25.2356 62.2226 25.1398 62.4799 24.9479 62.6767C24.7561 62.8738 24.5017 62.9722 24.1845 62.9722C24.0516 62.9722 23.9043 62.9495 23.7419 62.9039C23.5869 62.8586 23.3953 62.7828 23.1666 62.6767L14.4475 58.554C14.4032 58.5313 14.3332 58.5012 14.2374 58.4633C13.4554 58.0921 13.0645 57.6568 13.0645 57.1571C13.0645 56.6497 13.4738 56.2031 14.2928 55.817L14.3811 55.76L23.1666 51.558C23.4617 51.4217 23.6791 51.3346 23.8193 51.2968C23.9596 51.2512 24.0813 51.2285 24.1845 51.2285C24.5017 51.2285 24.7561 51.3269 24.9479 51.5237C25.1398 51.7207 25.2356 51.9781 25.2356 52.2962C25.2356 52.5687 25.1508 52.8072 24.9812 53.0117C24.8188 53.2085 24.5386 53.4053 24.1402 53.6023L16.9371 57.1118Z" fill="#0788FF"/>
<path d="M37.5072 50.1607L31.0235 64.4144C30.8242 64.861 30.6397 65.1714 30.4702 65.3455C30.3006 65.5199 30.1013 65.607 29.8725 65.607C29.5334 65.607 29.2308 65.497 28.9654 65.2775C28.7072 65.0578 28.5781 64.7853 28.5781 64.4597C28.5781 64.2403 28.6775 63.8995 28.8768 63.4377L28.8988 63.3921L35.3719 49.1613C35.5783 48.6995 35.7664 48.3813 35.9362 48.2072C36.1058 48.0331 36.3048 47.946 36.5336 47.946C36.8656 47.946 37.1642 48.0558 37.4299 48.2755C37.6953 48.4949 37.8282 48.7675 37.8282 49.093C37.8282 49.2295 37.8059 49.3733 37.7619 49.5247C37.7176 49.6762 37.6328 49.8882 37.5072 50.1607Z" fill="#0788FF"/>
<path d="M49.2124 59.5762V53.3182H48.6041C48.1171 53.3182 47.7667 53.2198 47.5528 53.023C47.3463 52.8262 47.2431 52.5081 47.2431 52.0689C47.2431 51.6298 47.3463 51.3117 47.5528 51.1149C47.7667 50.9104 48.1171 50.8083 48.6041 50.8083H51.7464C52.2257 50.8083 52.5726 50.9104 52.7865 51.1149C53.0004 51.3117 53.1072 51.6298 53.1072 52.0689C53.1072 52.4702 53.0039 52.7806 52.7975 53.0003C52.5982 53.2123 52.3105 53.3182 51.9344 53.3182H51.7464V63.6307C51.7464 63.9867 51.7095 64.21 51.6358 64.3009C51.562 64.3919 51.396 64.4372 51.1378 64.4372H50.0314C49.6771 64.4372 49.4263 64.3993 49.2788 64.3236C49.1387 64.2479 49.017 64.1155 48.9138 63.9262L44.3107 55.6237V61.7909H44.9527C45.432 61.7909 45.775 61.8856 45.9817 62.0747C46.1882 62.264 46.2914 62.5783 46.2914 63.0174C46.2914 63.4643 46.1843 63.786 45.9704 63.9828C45.764 64.1796 45.4248 64.2783 44.9527 64.2783H41.777C41.2975 64.2783 40.9509 64.1796 40.737 63.9828C40.5231 63.786 40.416 63.4643 40.416 63.0174C40.416 62.6161 40.5157 62.3132 40.7147 62.109C40.914 61.897 41.2091 61.7909 41.6 61.7909H41.777V53.3182H41.6C41.2237 53.3182 40.9324 53.2123 40.726 53.0003C40.5192 52.7806 40.416 52.4702 40.416 52.0689C40.416 51.6298 40.5231 51.3117 40.737 51.1149C40.9583 50.9104 41.3049 50.8083 41.777 50.8083H43.5917C44.0269 50.8083 44.322 50.8689 44.4767 50.9899C44.6317 51.1035 44.8051 51.3382 44.9968 51.6942L49.2124 59.5762Z" fill="#0788FF"/>
<path d="M62.0031 56.2713H61.8261C61.4278 56.2713 61.1255 56.1652 60.9188 55.9532C60.7198 55.7413 60.6201 55.4309 60.6201 55.0218C60.6201 54.5752 60.7233 54.2571 60.9298 54.0678C61.1365 53.8787 61.4941 53.7839 62.0031 53.7839H64.0945C64.2935 53.7839 64.4485 53.8295 64.5591 53.9202C64.6698 54.0036 64.7251 54.1208 64.7251 54.2723V61.7909H64.9022C65.3005 61.7909 65.603 61.8971 65.8095 62.109C66.0234 62.321 66.1305 62.6239 66.1305 63.0175C66.1305 63.4719 66.0234 63.7974 65.8095 63.9942C65.5956 64.1836 65.2341 64.2783 64.7251 64.2783H62.8662C62.6597 64.2783 62.4975 64.2328 62.3794 64.1421C62.2688 64.0512 62.2135 63.9262 62.2135 63.7671V62.9039C61.8594 63.4492 61.4242 63.858 60.9078 64.1305C60.3988 64.4033 59.7976 64.5395 59.1041 64.5395C57.9166 64.5395 57.0351 64.1722 56.4597 63.4379C55.8844 62.7033 55.5967 61.579 55.5967 60.0647V56.2713H55.4087C55.0104 56.2713 54.7078 56.1652 54.5014 55.9532C54.2949 55.7413 54.1914 55.4309 54.1914 55.0218C54.1914 54.5752 54.2949 54.2571 54.5014 54.0678C54.7153 53.8787 55.0803 53.7839 55.5967 53.7839H57.6768C57.8761 53.7839 58.0272 53.8295 58.1304 53.9202C58.2339 54.0036 58.2854 54.1208 58.2854 54.2723V59.5536C58.2854 60.4848 58.411 61.1398 58.6617 61.5184C58.9125 61.8971 59.3255 62.0864 59.9008 62.0864C60.513 62.0864 61.0149 61.8553 61.4058 61.3935C61.8041 60.9239 62.0031 60.3106 62.0031 59.5536V56.2713Z" fill="#0788FF"/>
<path d="M74.3173 56.2031C73.5945 56.2031 72.9932 56.4834 72.5137 57.0436C72.0416 57.5964 71.8057 58.3006 71.8057 59.156C71.8057 60.0343 72.0416 60.7537 72.5137 61.314C72.9858 61.8667 73.587 62.1431 74.3173 62.1431C75.0477 62.1431 75.6489 61.8629 76.121 61.3026C76.6003 60.7424 76.8401 60.0268 76.8401 59.156C76.8401 58.308 76.6003 57.6038 76.121 57.0436C75.6415 56.4834 75.0402 56.2031 74.3173 56.2031ZM71.872 54.8063C72.226 54.4882 72.6466 54.2383 73.1334 54.0565C73.6203 53.8749 74.1293 53.784 74.6604 53.784C76.1948 53.784 77.4487 54.3063 78.4224 55.3513C79.4035 56.3886 79.894 57.7213 79.894 59.3492C79.894 60.8333 79.3961 62.0748 78.4001 63.0745C77.4044 64.0664 76.1505 64.5622 74.6383 64.5622C73.9226 64.5622 73.2994 64.4373 72.7683 64.1875C72.2445 63.9299 71.8167 63.5477 71.4847 63.0402V63.79C71.4847 63.9415 71.4258 64.0625 71.3077 64.1535C71.197 64.2367 71.0384 64.2784 70.832 64.2784H69.128C68.6264 64.2784 68.2685 64.1836 68.0546 63.9943C67.8482 63.7975 67.7449 63.4719 67.7449 63.0176C67.7449 62.6163 67.8446 62.3133 68.0436 62.1091C68.2501 61.8971 68.5526 61.791 68.951 61.791H69.128V51.9328H68.951C68.5526 51.9328 68.2465 51.8267 68.0326 51.6147C67.8261 51.3952 67.7227 51.081 67.7227 50.672C67.7227 50.2253 67.8297 49.9036 68.0436 49.7068C68.2575 49.5098 68.619 49.4114 69.128 49.4114H71.197C71.4332 49.4114 71.6028 49.4719 71.706 49.5932C71.8167 49.7068 71.872 49.8959 71.872 50.1609V54.8063Z" fill="#0788FF"/>
<path d="M89.0236 61.7909H91.4024C91.9114 61.7909 92.2728 61.8857 92.4867 62.0747C92.7006 62.264 92.8077 62.5783 92.8077 63.0174C92.8077 63.4643 92.697 63.7861 92.4757 63.9828C92.2618 64.1796 91.904 64.2783 91.4024 64.2783H83.9226C83.4211 64.2783 83.0596 64.1796 82.8383 63.9828C82.6244 63.7861 82.5176 63.4643 82.5176 63.0174C82.5176 62.5783 82.6208 62.264 82.8273 62.0747C83.0412 61.8857 83.4062 61.7909 83.9226 61.7909H86.3016V56.2713H85.0513C84.5572 56.2713 84.2029 56.1765 83.989 55.9872C83.7751 55.7904 83.6683 55.4687 83.6683 55.0218C83.6683 54.5751 83.7715 54.257 83.978 54.0677C84.1844 53.8787 84.5423 53.7839 85.0513 53.7839H88.3817C88.5884 53.7839 88.747 53.8295 88.8576 53.9201C88.9683 54.0036 89.0236 54.1208 89.0236 54.2722V61.7909ZM87.4303 48.6504C87.9688 48.6504 88.3264 48.7562 88.5034 48.9682C88.6806 49.1805 88.769 49.6876 88.769 50.4903C88.769 51.2625 88.6878 51.7434 88.5257 51.9327C88.3707 52.1143 87.9982 52.2052 87.408 52.2052C86.8327 52.2052 86.4602 52.1181 86.2906 51.944C86.1282 51.7699 86.047 51.4216 86.047 50.899C86.047 49.93 86.1321 49.3129 86.3016 49.0478C86.4712 48.7828 86.8475 48.6504 87.4303 48.6504Z" fill="#0788FF"/>
<path d="M105.732 61.7681H105.876C106.288 61.7681 106.598 61.8739 106.805 62.0862C107.011 62.2904 107.115 62.6008 107.115 63.0173C107.115 63.4642 107.008 63.7859 106.794 63.9827C106.587 64.1795 106.233 64.2782 105.732 64.2782H103.01C102.515 64.2782 102.158 64.1795 101.936 63.9827C101.723 63.7859 101.615 63.4642 101.615 63.0173C101.615 62.6008 101.719 62.2904 101.925 62.0862C102.139 61.8739 102.456 61.7681 102.877 61.7681H103.01V58.4858C103.01 57.5771 102.884 56.9336 102.633 56.555C102.39 56.1689 101.981 55.9757 101.405 55.9757C100.793 55.9757 100.291 56.2068 99.9005 56.6686C99.517 57.123 99.3251 57.7285 99.3251 58.4858V61.7681H99.4578C99.8784 61.7681 100.192 61.8739 100.398 62.0862C100.605 62.2904 100.708 62.6008 100.708 63.0173C100.708 63.4642 100.601 63.7859 100.387 63.9827C100.173 64.1795 99.8193 64.2782 99.3251 64.2782H96.5811C96.0869 64.2782 95.7327 64.1795 95.5188 63.9827C95.3049 63.7859 95.1981 63.4642 95.1981 63.0173C95.1981 62.6008 95.3013 62.2904 95.5078 62.0862C95.7142 61.8739 96.0278 61.7681 96.4484 61.7681H96.5811V56.2712H96.3931C95.9947 56.2712 95.6922 56.1689 95.4857 55.9644C95.279 55.7524 95.1758 55.4456 95.1758 55.0446C95.1758 54.5977 95.2829 54.276 95.4968 54.0792C95.7107 53.8821 96.0721 53.7837 96.5811 53.7837H98.4621C98.6686 53.7837 98.8236 53.8255 98.9268 53.9087C99.0375 53.9921 99.0928 54.1132 99.0928 54.2721V55.1579C99.4322 54.6129 99.8636 54.2041 100.387 53.9313C100.918 53.6514 101.531 53.5112 102.224 53.5112C103.404 53.5112 104.282 53.8785 104.858 54.6129C105.44 55.3472 105.732 56.4679 105.732 57.9748V61.7681Z" fill="#0788FF"/>
<path d="M116.242 61.7909H118.621C119.13 61.7909 119.492 61.8857 119.706 62.0747C119.92 62.264 120.027 62.5783 120.027 63.0174C120.027 63.4643 119.916 63.7861 119.695 63.9828C119.481 64.1796 119.123 64.2783 118.621 64.2783H111.142C110.64 64.2783 110.279 64.1796 110.057 63.9828C109.843 63.7861 109.736 63.4643 109.736 63.0174C109.736 62.5783 109.84 62.264 110.046 62.0747C110.26 61.8857 110.625 61.7909 111.142 61.7909H113.521V56.2713H112.27C111.776 56.2713 111.422 56.1765 111.208 55.9872C110.994 55.7904 110.887 55.4687 110.887 55.0218C110.887 54.5751 110.991 54.257 111.197 54.0677C111.403 53.8787 111.761 53.7839 112.27 53.7839H115.601C115.807 53.7839 115.966 53.8295 116.076 53.9201C116.187 54.0036 116.242 54.1208 116.242 54.2722V61.7909ZM114.649 48.6504C115.188 48.6504 115.545 48.7562 115.722 48.9682C115.899 49.1805 115.988 49.6876 115.988 50.4903C115.988 51.2625 115.907 51.7434 115.745 51.9327C115.59 52.1143 115.217 52.2052 114.627 52.2052C114.052 52.2052 113.679 52.1181 113.509 51.944C113.347 51.7699 113.266 51.4216 113.266 50.899C113.266 49.93 113.351 49.3129 113.521 49.0478C113.69 48.7828 114.067 48.6504 114.649 48.6504Z" fill="#0788FF"/>
<path d="M127.598 54.4198H130.973C131.482 54.4198 131.844 54.5146 132.057 54.7039C132.271 54.8932 132.378 55.2075 132.378 55.6464C132.378 56.0933 132.268 56.415 132.046 56.6118C131.832 56.8088 131.475 56.9072 130.973 56.9072H127.598V59.8147C127.598 60.6325 127.72 61.1928 127.963 61.4957C128.207 61.7986 128.635 61.9498 129.247 61.9498C129.822 61.9498 130.501 61.7795 131.283 61.4388C132.065 61.098 132.589 60.9277 132.854 60.9277C133.156 60.9277 133.415 61.0526 133.629 61.3025C133.85 61.5449 133.961 61.8401 133.961 62.1883C133.961 62.7714 133.444 63.3051 132.412 63.7899C131.386 64.2669 130.221 64.5054 128.915 64.5054C128.155 64.5054 127.488 64.3993 126.912 64.1873C126.337 63.9754 125.883 63.6724 125.551 63.2786C125.308 62.976 125.135 62.6125 125.031 62.1883C124.928 61.7643 124.876 61.0565 124.876 60.0646V56.9072H123.836C123.335 56.9072 122.977 56.8088 122.763 56.6118C122.557 56.415 122.453 56.0933 122.453 55.6464C122.453 55.1997 122.557 54.8855 122.763 54.7039C122.97 54.5146 123.327 54.4198 123.836 54.4198H124.876C124.876 54.4198 125.048 51.8696 124.755 50.4676C124.651 49.9702 124.519 49.4983 124.519 49.4983C124.519 49.4983 124.755 49.9828 124.755 49.4983C124.755 49.0138 125.979 49.7407 126.466 49.7407C126.953 49.7407 126.879 49.4983 127.174 50.2252C127.469 50.9521 127.576 52.8071 127.587 52.8903C127.598 52.9738 127.598 54.4198 127.598 54.4198Z" fill="#0788FF"/>
<path d="M139.966 56.2713L141.957 61.1096L144.048 56.2713H143.871C143.473 56.2713 143.167 56.1652 142.953 55.9532C142.747 55.7413 142.643 55.4309 142.643 55.0218C142.643 54.5752 142.747 54.2571 142.953 54.0678C143.167 53.8787 143.532 53.7839 144.048 53.7839H146.649C147.165 53.7839 147.527 53.8823 147.733 54.0794C147.947 54.2684 148.054 54.5827 148.054 55.0218C148.054 55.4309 147.951 55.7413 147.744 55.9532C147.538 56.1652 147.235 56.2713 146.837 56.2713H146.649L142.101 66.2998H142.599C143.101 66.2998 143.458 66.3982 143.672 66.5952C143.894 66.792 144.004 67.1137 144.004 67.5606C144.004 67.9998 143.894 68.3176 143.672 68.5147C143.458 68.7115 143.101 68.8099 142.599 68.8099H137.753C137.244 68.8099 136.882 68.7115 136.668 68.5147C136.454 68.3254 136.347 68.0073 136.347 67.5606C136.347 67.1137 136.454 66.792 136.668 66.5952C136.882 66.3982 137.244 66.2998 137.753 66.2998H139.468L140.508 64.0169L137.155 56.2713H136.978C136.58 56.2713 136.274 56.1652 136.06 55.9532C135.853 55.7413 135.75 55.4309 135.75 55.0218C135.75 54.5752 135.857 54.2571 136.071 54.0678C136.285 53.8787 136.646 53.7839 137.155 53.7839H139.966C140.475 53.7839 140.836 53.8823 141.05 54.0794C141.264 54.2684 141.371 54.5827 141.371 55.0218C141.371 55.4309 141.264 55.7413 141.05 55.9532C140.844 56.1652 140.545 56.2713 140.154 56.2713H139.966Z" fill="#0788FF"/>
<path d="M158.045 57.1118L150.83 53.6023C150.44 53.4053 150.159 53.2085 149.989 53.0117C149.827 52.8072 149.746 52.5687 149.746 52.2962C149.746 51.9781 149.838 51.7207 150.023 51.5237C150.207 51.3269 150.454 51.2285 150.764 51.2285C150.882 51.2285 151.015 51.2512 151.162 51.2968C151.317 51.3421 151.535 51.4292 151.815 51.558L160.579 55.76L160.667 55.817C161.486 56.2031 161.895 56.6497 161.895 57.1571C161.895 57.6643 161.5 58.0999 160.711 58.4633C160.637 58.5086 160.579 58.539 160.534 58.554L151.782 62.6767C151.561 62.7828 151.369 62.8586 151.207 62.9039C151.052 62.9495 150.904 62.9722 150.764 62.9722C150.454 62.9722 150.207 62.8774 150.023 62.6883C149.838 62.4913 149.746 62.2301 149.746 61.9045C149.746 61.632 149.824 61.401 149.978 61.2116C150.141 61.0148 150.425 60.8181 150.83 60.621L158.045 57.1118Z" fill="#0788FF"/>
<path fill-rule="evenodd" clip-rule="evenodd" d="M0.444699 56.2602C0.151391 54.1046 0 51.9043 0 49.6691C0 22.6849 22.0721 0.809814 49.2993 0.809814C70.1393 0.809814 87.9592 13.6255 95.173 31.7385C96.5245 31.5597 97.9042 31.4675 99.3062 31.4675C116.112 31.4675 129.875 42.6659 127.442 59.5371C127.442 59.5371 124.624 58.8931 125.136 58.8931C126.673 43.9538 114.224 34.3135 97.419 34.3135C96.9848 34.3135 96.5527 34.322 96.1229 34.3387C96.1234 34.3395 96.1236 34.3403 96.1239 34.3413L93.4528 34.5517V34.5512C93.4521 34.5512 93.4516 34.5512 93.4508 34.5515C93.2161 33.9578 92.8109 32.9375 92.5168 32.208C92.523 32.2067 92.5291 32.2055 92.5353 32.2042C85.9754 16.8516 70.145 6.02778 51.6581 6.02778C27.2969 6.02778 7.54814 24.8233 7.54814 48.0088C7.54814 48.5919 7.56069 49.172 7.58554 49.7492H7.54148L0.444699 56.2602ZM74.4836 43.963C74.4555 44.0017 74.4275 44.0403 74.3993 44.0792C74.415 44.0625 74.4303 44.046 74.446 44.0292L74.4836 43.963ZM89.6721 35.2364C89.783 35.2096 89.8942 35.183 90.0056 35.157L89.7856 35.1962L89.6721 35.2364ZM94.8871 39.6195L94.9089 39.7038L94.9186 39.7694C94.9081 39.7195 94.8976 39.6695 94.8871 39.6195ZM98.3807 45.0454C98.3761 44.9985 98.3717 44.9516 98.3671 44.9047V44.9841L98.3807 45.0454Z" fill="#0788FF"/>
<path fill-rule="evenodd" clip-rule="evenodd" d="M0.444699 56.2602C0.151391 54.1046 0 51.9043 0 49.6691C0 22.6849 22.0721 0.809814 49.2993 0.809814C70.1393 0.809814 87.9592 13.6255 95.173 31.7385C96.5245 31.5597 97.9042 31.4675 99.3062 31.4675C116.112 31.4675 129.875 42.6659 127.442 59.5371C127.442 59.5371 124.624 58.8931 125.136 58.8931C126.673 43.9538 114.224 34.3135 97.419 34.3135C96.9848 34.3135 96.5527 34.322 96.1229 34.3387C96.1234 34.3395 96.1236 34.3403 96.1239 34.3413L93.4528 34.5517V34.5512C93.4521 34.5512 93.4516 34.5512 93.4508 34.5515C93.2161 33.9578 92.8109 32.9375 92.5168 32.208C92.523 32.2067 92.5291 32.2055 92.5353 32.2042C85.9754 16.8516 70.145 6.02778 51.6581 6.02778C27.2969 6.02778 7.54814 24.8233 7.54814 48.0088C7.54814 48.5919 7.56069 49.172 7.58554 49.7492H7.54148L0.444699 56.2602ZM74.4836 43.963C74.4555 44.0017 74.4275 44.0403 74.3993 44.0792C74.415 44.0625 74.4303 44.046 74.446 44.0292L74.4836 43.963ZM89.6721 35.2364C89.783 35.2096 89.8942 35.183 90.0056 35.157L89.7856 35.1962L89.6721 35.2364ZM94.8871 39.6195L94.9089 39.7038L94.9186 39.7694C94.9081 39.7195 94.8976 39.6695 94.8871 39.6195ZM98.3807 45.0454C98.3761 44.9985 98.3717 44.9516 98.3671 44.9047V44.9841L98.3807 45.0454Z" fill="#0788FF"/>
</svg>
